%TF.GenerationSoftware,KiCad,Pcbnew,(6.0.8)*%
%TF.CreationDate,2023-11-01T21:59:58-07:00*%
%TF.ProjectId,OS3M_Mouse,4f53334d-5f4d-46f7-9573-652e6b696361,rev?*%
%TF.SameCoordinates,Original*%
%TF.FileFunction,Copper,L3,Inr*%
%TF.FilePolarity,Positive*%
%FSLAX46Y46*%
G04 Gerber Fmt 4.6, Leading zero omitted, Abs format (unit mm)*
G04 Created by KiCad (PCBNEW (6.0.8)) date 2023-11-01 21:59:58*
%MOMM*%
%LPD*%
G01*
G04 APERTURE LIST*
G04 Aperture macros list*
%AMHorizOval*
0 Thick line with rounded ends*
0 $1 width*
0 $2 $3 position (X,Y) of the first rounded end (center of the circle)*
0 $4 $5 position (X,Y) of the second rounded end (center of the circle)*
0 Add line between two ends*
20,1,$1,$2,$3,$4,$5,0*
0 Add two circle primitives to create the rounded ends*
1,1,$1,$2,$3*
1,1,$1,$4,$5*%
%AMRotRect*
0 Rectangle, with rotation*
0 The origin of the aperture is its center*
0 $1 length*
0 $2 width*
0 $3 Rotation angle, in degrees counterclockwise*
0 Add horizontal line*
21,1,$1,$2,0,0,$3*%
G04 Aperture macros list end*
%TA.AperFunction,ComponentPad*%
%ADD10RotRect,1.700000X1.700000X170.000000*%
%TD*%
%TA.AperFunction,ComponentPad*%
%ADD11HorizOval,1.700000X0.000000X0.000000X0.000000X0.000000X0*%
%TD*%
%TA.AperFunction,ComponentPad*%
%ADD12C,0.700000*%
%TD*%
%TA.AperFunction,ComponentPad*%
%ADD13C,0.500000*%
%TD*%
%TA.AperFunction,ComponentPad*%
%ADD14RotRect,1.700000X1.700000X330.000000*%
%TD*%
%TA.AperFunction,ComponentPad*%
%ADD15HorizOval,1.700000X0.000000X0.000000X0.000000X0.000000X0*%
%TD*%
%TA.AperFunction,ComponentPad*%
%ADD16O,0.900000X1.700000*%
%TD*%
%TA.AperFunction,ComponentPad*%
%ADD17O,0.900000X2.400000*%
%TD*%
%TA.AperFunction,ViaPad*%
%ADD18C,0.609600*%
%TD*%
%TA.AperFunction,ViaPad*%
%ADD19C,1.016000*%
%TD*%
%TA.AperFunction,ViaPad*%
%ADD20C,0.800000*%
%TD*%
G04 APERTURE END LIST*
D10*
%TO.N,+3.3V*%
%TO.C,J3*%
X156464000Y-100838000D03*
D11*
%TO.N,GND*%
X158965412Y-101279066D03*
%TO.N,/I2C1_SDA*%
X156905066Y-98336588D03*
%TO.N,/I2C1_SCL*%
X159406478Y-98777655D03*
%TD*%
D12*
%TO.N,*%
%TO.C,L1*%
X160809844Y-91070000D03*
X156534844Y-90570000D03*
%TD*%
%TO.N,*%
%TO.C,L2*%
X156709844Y-86805000D03*
X157209844Y-82530000D03*
%TD*%
%TO.N,*%
%TO.C,L3*%
X136359844Y-108925000D03*
X135859844Y-113200000D03*
%TD*%
D13*
%TO.N,GND*%
%TO.C,U4*%
X133359844Y-95600000D03*
X130859844Y-95600000D03*
X130859844Y-94550000D03*
X132109844Y-94550000D03*
X133359844Y-94550000D03*
X133359844Y-96650000D03*
X132109844Y-96650000D03*
X132109844Y-95600000D03*
X130859844Y-96650000D03*
%TD*%
D12*
%TO.N,*%
%TO.C,L5*%
X127509844Y-86805000D03*
X128009844Y-82530000D03*
%TD*%
%TO.N,*%
%TO.C,L4*%
X149359844Y-113200000D03*
X149859844Y-108925000D03*
%TD*%
D14*
%TO.N,GND*%
%TO.C,J1*%
X167005000Y-102450739D03*
D15*
%TO.N,+3.3V*%
X165735000Y-104650444D03*
%TO.N,/UART2_TX*%
X164465000Y-106850148D03*
%TO.N,/UART2_RX*%
X163195000Y-109049853D03*
%TO.N,/SWDIO*%
X161925000Y-111249557D03*
%TO.N,/SWCLK*%
X160655000Y-113449262D03*
%TD*%
D12*
%TO.N,GND*%
%TO.C,J2*%
X145584844Y-71625000D03*
%TO.N,VBUS*%
X144734844Y-71625000D03*
%TO.N,/CC1*%
X143884844Y-71625000D03*
%TO.N,/USB_ESD_D+*%
X143034844Y-71625000D03*
%TO.N,/USB_ESD_D-*%
X142184844Y-71625000D03*
%TO.N,unconnected-(J2-PadA8)*%
X141334844Y-71625000D03*
%TO.N,VBUS*%
X140484844Y-71625000D03*
%TO.N,GND*%
X139634844Y-71625000D03*
X139634844Y-70275000D03*
%TO.N,VBUS*%
X140484844Y-70275000D03*
%TO.N,/CC2*%
X141334844Y-70275000D03*
%TO.N,/USB_ESD_D+*%
X142184844Y-70275000D03*
%TO.N,/USB_ESD_D-*%
X143034844Y-70275000D03*
%TO.N,unconnected-(J2-PadB8)*%
X143884844Y-70275000D03*
%TO.N,VBUS*%
X144734844Y-70275000D03*
%TO.N,GND*%
X145584844Y-70275000D03*
D16*
%TO.N,Net-(J2-PadS1)*%
X138284844Y-67265000D03*
D17*
X146934844Y-70645000D03*
X138284844Y-70645000D03*
D16*
X146934844Y-67265000D03*
%TD*%
D12*
%TO.N,*%
%TO.C,L6*%
X128684844Y-91570000D03*
X124409844Y-91070000D03*
%TD*%
D13*
%TO.N,GND*%
%TO.C,U2*%
X155352306Y-105607538D03*
X154609844Y-107834924D03*
X153867382Y-107092462D03*
X153867382Y-105607538D03*
X154609844Y-104865076D03*
X156094768Y-106350000D03*
X154609844Y-106350000D03*
X153124920Y-106350000D03*
X155352306Y-107092462D03*
%TD*%
D18*
%TO.N,VBUS*%
X137922000Y-79502000D03*
X139192000Y-77978000D03*
X137414000Y-78486000D03*
%TO.N,GND*%
X149860000Y-70104000D03*
X147574000Y-85090000D03*
X143046946Y-76979265D03*
X142494000Y-83058000D03*
X159766000Y-104140000D03*
X140462000Y-84582000D03*
X147574000Y-84074000D03*
X147574000Y-83058000D03*
D19*
X130048000Y-107950000D03*
D18*
X128270000Y-99822000D03*
X152908000Y-101092000D03*
X138430000Y-81788000D03*
X138430000Y-75049900D03*
%TO.N,+3.3V*%
X145034000Y-84074000D03*
X133096000Y-105156000D03*
X137668000Y-84582000D03*
X138430000Y-83312000D03*
X137668000Y-85598000D03*
X146050000Y-77724000D03*
X143002000Y-77978000D03*
X133619844Y-99822000D03*
X140462000Y-83312000D03*
X145034000Y-83058000D03*
D19*
X120142000Y-109220000D03*
D18*
X140462000Y-82550000D03*
X145034000Y-85090000D03*
X133604000Y-89916000D03*
X133619844Y-101330156D03*
%TO.N,/~{RST}*%
X129794000Y-95758000D03*
X144526000Y-78740000D03*
%TO.N,/UART2_TX*%
X149352000Y-83820000D03*
%TO.N,/UART2_RX*%
X149860000Y-84836000D03*
X163068000Y-103124000D03*
%TO.N,/SWDIO*%
X147066000Y-81788000D03*
%TO.N,/SWCLK*%
X146050000Y-81788000D03*
%TO.N,/USB_ESD_D+*%
X137668000Y-72898000D03*
%TO.N,/I2C1_SDA*%
X146304000Y-80772000D03*
X132611700Y-101322300D03*
X156464000Y-109728000D03*
X152034964Y-101203036D03*
%TO.N,/I2C1_SCL*%
X132842000Y-102870000D03*
X151941144Y-100330000D03*
X155448000Y-109731117D03*
X146050000Y-79756000D03*
X148336000Y-104543700D03*
X148336000Y-106426000D03*
%TO.N,/LDC1614_INTB*%
X148844000Y-83058000D03*
X157927507Y-104885793D03*
%TO.N,/LDC1612_INTB*%
X146304000Y-76454000D03*
X133858000Y-98298000D03*
%TO.N,/40MHZ_CLK*%
X131919977Y-98760676D03*
X158242000Y-108458000D03*
X128016000Y-104902000D03*
D20*
%TO.N,/CC2*%
X148359844Y-70100000D03*
%TD*%
%TA.AperFunction,Conductor*%
%TO.N,GND*%
G36*
X137538040Y-69616002D02*
G01*
X137584533Y-69669658D01*
X137594841Y-69738446D01*
X137580882Y-69844477D01*
X137580344Y-69848564D01*
X137580344Y-71437756D01*
X137595655Y-71564281D01*
X137655928Y-71723789D01*
X137752510Y-71864316D01*
X137758180Y-71869368D01*
X137758181Y-71869369D01*
X137874151Y-71972695D01*
X137874154Y-71972697D01*
X137879823Y-71977748D01*
X137886536Y-71981303D01*
X137886537Y-71981303D01*
X138023807Y-72053984D01*
X138023809Y-72053985D01*
X138030520Y-72057538D01*
X138037885Y-72059388D01*
X138188527Y-72097227D01*
X138188531Y-72097227D01*
X138195898Y-72099078D01*
X138203497Y-72099118D01*
X138203499Y-72099118D01*
X138274415Y-72099489D01*
X138366412Y-72099971D01*
X138373792Y-72098199D01*
X138373794Y-72098199D01*
X138524838Y-72061937D01*
X138524842Y-72061936D01*
X138532217Y-72060165D01*
X138683740Y-71981958D01*
X138689465Y-71976964D01*
X138690689Y-71976132D01*
X138758273Y-71954386D01*
X138826885Y-71972630D01*
X138852013Y-71998312D01*
X138853095Y-71997178D01*
X138876413Y-72019411D01*
X138884434Y-72016200D01*
X139545749Y-71354885D01*
X139608061Y-71320859D01*
X139678876Y-71325924D01*
X139723939Y-71354885D01*
X139845026Y-71475972D01*
X139879052Y-71538284D01*
X139880853Y-71581513D01*
X139875128Y-71625000D01*
X139895904Y-71782806D01*
X139899062Y-71790430D01*
X139899063Y-71790434D01*
X139929389Y-71863647D01*
X139956814Y-71929858D01*
X139961841Y-71936409D01*
X139961842Y-71936411D01*
X140027609Y-72022119D01*
X140044477Y-72065751D01*
X140071406Y-72071609D01*
X140087725Y-72082235D01*
X140108530Y-72098199D01*
X140179986Y-72153030D01*
X140187616Y-72156190D01*
X140187617Y-72156191D01*
X140319410Y-72210781D01*
X140319414Y-72210782D01*
X140327038Y-72213940D01*
X140484844Y-72234716D01*
X140642650Y-72213940D01*
X140650274Y-72210782D01*
X140650278Y-72210781D01*
X140782071Y-72156191D01*
X140782072Y-72156190D01*
X140789702Y-72153030D01*
X140833141Y-72119697D01*
X140899361Y-72094098D01*
X140968909Y-72108363D01*
X140986544Y-72119695D01*
X141029986Y-72153030D01*
X141037616Y-72156190D01*
X141037617Y-72156191D01*
X141169410Y-72210781D01*
X141169414Y-72210782D01*
X141177038Y-72213940D01*
X141334844Y-72234716D01*
X141492650Y-72213940D01*
X141500274Y-72210782D01*
X141500278Y-72210781D01*
X141632071Y-72156191D01*
X141632072Y-72156190D01*
X141639702Y-72153030D01*
X141683141Y-72119697D01*
X141749361Y-72094098D01*
X141818909Y-72108363D01*
X141836544Y-72119695D01*
X141879986Y-72153030D01*
X141887616Y-72156190D01*
X141887617Y-72156191D01*
X142019410Y-72210781D01*
X142019414Y-72210782D01*
X142027038Y-72213940D01*
X142184844Y-72234716D01*
X142342650Y-72213940D01*
X142350274Y-72210782D01*
X142350278Y-72210781D01*
X142482071Y-72156191D01*
X142482072Y-72156190D01*
X142489702Y-72153030D01*
X142533141Y-72119697D01*
X142599361Y-72094098D01*
X142668909Y-72108363D01*
X142686544Y-72119695D01*
X142729986Y-72153030D01*
X142737616Y-72156190D01*
X142737617Y-72156191D01*
X142869410Y-72210781D01*
X142869414Y-72210782D01*
X142877038Y-72213940D01*
X143034844Y-72234716D01*
X143192650Y-72213940D01*
X143200274Y-72210782D01*
X143200278Y-72210781D01*
X143332071Y-72156191D01*
X143332072Y-72156190D01*
X143339702Y-72153030D01*
X143383141Y-72119697D01*
X143449361Y-72094098D01*
X143518909Y-72108363D01*
X143536544Y-72119695D01*
X143579986Y-72153030D01*
X143587616Y-72156190D01*
X143587617Y-72156191D01*
X143719410Y-72210781D01*
X143719414Y-72210782D01*
X143727038Y-72213940D01*
X143884844Y-72234716D01*
X144042650Y-72213940D01*
X144050274Y-72210782D01*
X144050278Y-72210781D01*
X144182071Y-72156191D01*
X144182072Y-72156190D01*
X144189702Y-72153030D01*
X144233141Y-72119697D01*
X144299361Y-72094098D01*
X144368909Y-72108363D01*
X144386544Y-72119695D01*
X144429986Y-72153030D01*
X144437616Y-72156190D01*
X144437617Y-72156191D01*
X144569410Y-72210781D01*
X144569414Y-72210782D01*
X144577038Y-72213940D01*
X144734844Y-72234716D01*
X144892650Y-72213940D01*
X144900274Y-72210782D01*
X144900278Y-72210781D01*
X145032071Y-72156191D01*
X145032072Y-72156190D01*
X145039702Y-72153030D01*
X145111159Y-72098199D01*
X145131963Y-72082235D01*
X145175595Y-72065367D01*
X145181453Y-72038438D01*
X145192079Y-72022119D01*
X145257846Y-71936411D01*
X145257847Y-71936409D01*
X145262874Y-71929858D01*
X145290299Y-71863647D01*
X145320625Y-71790434D01*
X145320626Y-71790430D01*
X145323784Y-71782806D01*
X145344560Y-71625000D01*
X145338835Y-71581513D01*
X145349774Y-71511364D01*
X145374662Y-71475972D01*
X145495749Y-71354885D01*
X145558061Y-71320859D01*
X145628876Y-71325924D01*
X145673939Y-71354885D01*
X146331611Y-72012557D01*
X146343991Y-72019317D01*
X146357838Y-72008951D01*
X146400463Y-71968308D01*
X146470176Y-71954871D01*
X146527881Y-71976018D01*
X146529823Y-71977748D01*
X146536541Y-71981305D01*
X146673807Y-72053984D01*
X146673809Y-72053985D01*
X146680520Y-72057538D01*
X146687885Y-72059388D01*
X146838527Y-72097227D01*
X146838531Y-72097227D01*
X146845898Y-72099078D01*
X146853497Y-72099118D01*
X146853499Y-72099118D01*
X146924415Y-72099489D01*
X147016412Y-72099971D01*
X147023792Y-72098199D01*
X147023794Y-72098199D01*
X147174838Y-72061937D01*
X147174842Y-72061936D01*
X147182217Y-72060165D01*
X147333740Y-71981958D01*
X147340419Y-71976132D01*
X147456508Y-71874861D01*
X147462235Y-71869865D01*
X147560282Y-71730357D01*
X147622222Y-71571489D01*
X147639344Y-71441436D01*
X147639344Y-70611709D01*
X147659346Y-70543588D01*
X147713002Y-70497095D01*
X147783276Y-70486991D01*
X147847856Y-70516485D01*
X147857873Y-70526521D01*
X147860752Y-70530805D01*
X147977920Y-70637419D01*
X148117137Y-70713008D01*
X148270366Y-70753207D01*
X148354321Y-70754526D01*
X148421163Y-70755576D01*
X148421166Y-70755576D01*
X148428760Y-70755695D01*
X148583176Y-70720329D01*
X148653586Y-70684917D01*
X148717916Y-70652563D01*
X148717919Y-70652561D01*
X148724699Y-70649151D01*
X148730470Y-70644222D01*
X148730473Y-70644220D01*
X148839380Y-70551204D01*
X148839380Y-70551203D01*
X148845158Y-70546269D01*
X148937599Y-70417624D01*
X148996686Y-70270641D01*
X149019006Y-70113807D01*
X149019151Y-70100000D01*
X149000120Y-69942733D01*
X148944124Y-69794546D01*
X148939823Y-69788288D01*
X148936303Y-69781555D01*
X148938983Y-69780154D01*
X148921214Y-69725876D01*
X148939111Y-69657172D01*
X148991311Y-69609051D01*
X149047154Y-69596000D01*
X150425073Y-69596000D01*
X150493194Y-69616002D01*
X150539687Y-69669658D01*
X150549791Y-69739932D01*
X150539476Y-69774801D01*
X149462448Y-72108363D01*
X149098000Y-72898000D01*
X149098000Y-82383638D01*
X149077998Y-82451759D01*
X149024342Y-82498252D01*
X148955554Y-82508560D01*
X148852188Y-82494952D01*
X148844000Y-82493874D01*
X148835812Y-82494952D01*
X148706179Y-82512018D01*
X148706177Y-82512019D01*
X148697993Y-82513096D01*
X148561937Y-82569453D01*
X148445103Y-82659103D01*
X148355453Y-82775937D01*
X148299096Y-82911993D01*
X148298019Y-82920177D01*
X148298018Y-82920179D01*
X148284432Y-83023381D01*
X148279874Y-83058000D01*
X148299096Y-83204007D01*
X148355453Y-83340063D01*
X148445103Y-83456897D01*
X148561937Y-83546547D01*
X148645421Y-83581128D01*
X148690366Y-83599745D01*
X148690368Y-83599745D01*
X148697993Y-83602904D01*
X148705927Y-83603949D01*
X148766449Y-83640838D01*
X148797471Y-83704698D01*
X148798138Y-83742037D01*
X148787874Y-83820000D01*
X148807096Y-83966007D01*
X148863453Y-84102063D01*
X148953103Y-84218897D01*
X149048706Y-84292256D01*
X149090571Y-84349591D01*
X149098000Y-84392216D01*
X149098000Y-84836000D01*
X149106602Y-84850557D01*
X149106602Y-84850558D01*
X155050080Y-94908751D01*
X155702000Y-96012000D01*
X157146550Y-97012073D01*
X157191172Y-97067292D01*
X157198857Y-97137872D01*
X157167164Y-97201402D01*
X157106155Y-97237712D01*
X157050249Y-97239247D01*
X157031905Y-97235599D01*
X157021012Y-97233432D01*
X157015237Y-97233356D01*
X157015233Y-97233356D01*
X156913859Y-97232029D01*
X156818037Y-97230775D01*
X156812340Y-97231754D01*
X156812339Y-97231754D01*
X156777666Y-97237712D01*
X156617976Y-97265152D01*
X156427529Y-97335412D01*
X156253076Y-97439200D01*
X156248736Y-97443006D01*
X156248732Y-97443009D01*
X156104799Y-97569236D01*
X156100458Y-97573043D01*
X155974786Y-97732457D01*
X155972097Y-97737568D01*
X155972095Y-97737571D01*
X155951625Y-97776479D01*
X155880269Y-97912103D01*
X155820073Y-98105966D01*
X155796214Y-98307552D01*
X155809490Y-98510110D01*
X155810911Y-98515706D01*
X155810912Y-98515711D01*
X155831185Y-98595533D01*
X155859458Y-98706857D01*
X155861875Y-98712100D01*
X155897651Y-98789705D01*
X155944443Y-98891204D01*
X155947776Y-98895920D01*
X156056166Y-99049289D01*
X156061599Y-99056977D01*
X156207004Y-99198623D01*
X156375786Y-99311400D01*
X156381089Y-99313678D01*
X156381092Y-99313680D01*
X156469773Y-99351780D01*
X156562294Y-99391530D01*
X156635310Y-99408052D01*
X156754645Y-99435055D01*
X156754650Y-99435056D01*
X156760282Y-99436330D01*
X156766053Y-99436557D01*
X156766055Y-99436557D01*
X156825822Y-99438905D01*
X156963119Y-99444300D01*
X157064137Y-99429653D01*
X157158297Y-99416001D01*
X157158302Y-99416000D01*
X157164011Y-99415172D01*
X157169475Y-99413317D01*
X157169480Y-99413316D01*
X157350759Y-99351780D01*
X157350764Y-99351778D01*
X157356231Y-99349922D01*
X157385639Y-99333453D01*
X157488196Y-99276018D01*
X157533342Y-99250735D01*
X157541204Y-99244197D01*
X157684979Y-99124619D01*
X157689411Y-99120933D01*
X157713238Y-99092284D01*
X157815519Y-98969306D01*
X157815521Y-98969303D01*
X157819213Y-98964864D01*
X157918400Y-98787753D01*
X157920256Y-98782286D01*
X157920258Y-98782281D01*
X157981794Y-98601002D01*
X157981795Y-98600997D01*
X157983650Y-98595533D01*
X157984478Y-98589824D01*
X157984479Y-98589819D01*
X158002057Y-98468584D01*
X158012778Y-98394641D01*
X158014298Y-98336588D01*
X158001571Y-98198083D01*
X157996253Y-98140201D01*
X157996252Y-98140198D01*
X157995724Y-98134447D01*
X157992482Y-98122951D01*
X157942191Y-97944634D01*
X157942190Y-97944632D01*
X157940623Y-97939075D01*
X157930044Y-97917621D01*
X157873197Y-97802347D01*
X157861007Y-97732404D01*
X157888567Y-97666975D01*
X157947125Y-97626832D01*
X158018090Y-97624721D01*
X158057918Y-97643020D01*
X158488839Y-97941350D01*
X158533461Y-97996569D01*
X158541145Y-98067149D01*
X158516066Y-98122951D01*
X158479779Y-98168980D01*
X158479773Y-98168989D01*
X158476198Y-98173524D01*
X158473509Y-98178635D01*
X158473507Y-98178638D01*
X158454537Y-98214694D01*
X158381681Y-98353170D01*
X158321485Y-98547033D01*
X158297626Y-98748619D01*
X158310902Y-98951177D01*
X158312323Y-98956773D01*
X158312324Y-98956778D01*
X158336573Y-99052257D01*
X158360870Y-99147924D01*
X158363287Y-99153167D01*
X158436233Y-99311400D01*
X158445855Y-99332271D01*
X158449188Y-99336987D01*
X158519557Y-99436557D01*
X158563011Y-99498044D01*
X158708416Y-99639690D01*
X158713220Y-99642900D01*
X158809855Y-99707470D01*
X158855383Y-99761947D01*
X158864230Y-99832390D01*
X158833589Y-99896434D01*
X158773187Y-99933746D01*
X158758912Y-99936785D01*
X158654733Y-99952727D01*
X158644705Y-99955116D01*
X158442280Y-100021278D01*
X158432771Y-100025275D01*
X158243875Y-100123608D01*
X158235150Y-100129102D01*
X158064845Y-100256971D01*
X158057138Y-100263814D01*
X157910002Y-100417783D01*
X157903520Y-100425788D01*
X157902514Y-100427263D01*
X157901955Y-100427721D01*
X157900265Y-100429808D01*
X157899834Y-100429459D01*
X157847602Y-100472265D01*
X157777077Y-100480436D01*
X157713330Y-100449181D01*
X157676601Y-100388424D01*
X157674340Y-100334378D01*
X157687989Y-100256971D01*
X157703673Y-100168022D01*
X157703221Y-100147288D01*
X157702294Y-100104757D01*
X157702293Y-100104755D01*
X157702023Y-100092351D01*
X157672509Y-100025275D01*
X157666244Y-100011038D01*
X157666243Y-100011037D01*
X157661246Y-99999680D01*
X157588109Y-99929666D01*
X157517567Y-99902234D01*
X155794022Y-99598327D01*
X155782592Y-99598576D01*
X155730757Y-99599706D01*
X155730755Y-99599707D01*
X155718351Y-99599977D01*
X155706995Y-99604974D01*
X155706994Y-99604974D01*
X155637038Y-99635756D01*
X155637037Y-99635757D01*
X155625680Y-99640754D01*
X155555666Y-99713891D01*
X155528234Y-99784433D01*
X155224327Y-101507978D01*
X155224462Y-101514167D01*
X155225430Y-101558542D01*
X155225977Y-101583649D01*
X155230974Y-101595005D01*
X155230974Y-101595006D01*
X155261756Y-101664962D01*
X155266754Y-101676320D01*
X155339891Y-101746334D01*
X155410433Y-101773766D01*
X157133978Y-102077673D01*
X157145408Y-102077424D01*
X157197243Y-102076294D01*
X157197245Y-102076293D01*
X157209649Y-102076023D01*
X157221005Y-102071026D01*
X157221006Y-102071026D01*
X157290962Y-102040244D01*
X157290963Y-102040243D01*
X157302320Y-102035246D01*
X157372334Y-101962109D01*
X157399766Y-101891567D01*
X157420348Y-101774840D01*
X157429256Y-101724323D01*
X157460784Y-101660711D01*
X157521698Y-101624241D01*
X157592658Y-101626494D01*
X157651137Y-101666754D01*
X157670085Y-101698799D01*
X157747182Y-101888669D01*
X157751825Y-101897860D01*
X157863106Y-102079454D01*
X157869189Y-102087765D01*
X158008625Y-102248733D01*
X158015992Y-102255949D01*
X158179846Y-102391982D01*
X158188293Y-102397897D01*
X158372168Y-102505345D01*
X158381454Y-102509795D01*
X158466682Y-102542340D01*
X158479703Y-102543373D01*
X158487016Y-102529457D01*
X158659453Y-101551515D01*
X165961250Y-101551515D01*
X165961853Y-101553255D01*
X165967669Y-101558542D01*
X166896340Y-102094711D01*
X166911775Y-102098456D01*
X166913515Y-102097853D01*
X166918802Y-102092037D01*
X167454971Y-101163366D01*
X167458716Y-101147931D01*
X167458113Y-101146191D01*
X167452297Y-101140904D01*
X166909189Y-100827341D01*
X166903106Y-100824254D01*
X166856294Y-100803607D01*
X166841266Y-100799119D01*
X166714380Y-100778000D01*
X166696608Y-100777597D01*
X166569955Y-100792811D01*
X166552793Y-100797410D01*
X166435507Y-100847558D01*
X166420314Y-100856796D01*
X166320990Y-100938525D01*
X166310216Y-100949929D01*
X166280003Y-100991210D01*
X166276272Y-100996934D01*
X165964995Y-101536080D01*
X165961250Y-101551515D01*
X158659453Y-101551515D01*
X158737497Y-101108904D01*
X158769024Y-101045292D01*
X158829938Y-101008822D01*
X158883462Y-101006698D01*
X159259659Y-101073031D01*
X160308752Y-101258015D01*
X160322768Y-101256452D01*
X160325518Y-101248079D01*
X160310193Y-101061670D01*
X160308508Y-101051490D01*
X160256626Y-100844941D01*
X160253306Y-100835190D01*
X160168384Y-100639880D01*
X160163517Y-100630805D01*
X160047838Y-100451992D01*
X160041548Y-100443823D01*
X159898218Y-100286306D01*
X159890685Y-100279281D01*
X159723551Y-100147288D01*
X159714964Y-100141583D01*
X159623421Y-100091048D01*
X159573451Y-100040616D01*
X159558679Y-99971173D01*
X159583796Y-99904767D01*
X159640827Y-99862483D01*
X159654900Y-99858222D01*
X159659710Y-99857067D01*
X159665423Y-99856239D01*
X159670887Y-99854384D01*
X159670892Y-99854383D01*
X159852171Y-99792847D01*
X159852176Y-99792845D01*
X159857643Y-99790989D01*
X160034754Y-99691802D01*
X160053763Y-99675993D01*
X160186391Y-99565686D01*
X160190823Y-99562000D01*
X160288714Y-99444300D01*
X160316931Y-99410373D01*
X160316933Y-99410370D01*
X160320625Y-99405931D01*
X160409608Y-99247041D01*
X160416988Y-99233863D01*
X160416989Y-99233861D01*
X160419812Y-99228820D01*
X160421668Y-99223353D01*
X160421670Y-99223348D01*
X160483206Y-99042069D01*
X160483207Y-99042064D01*
X160485062Y-99036600D01*
X160485890Y-99030891D01*
X160485891Y-99030886D01*
X160506904Y-98885959D01*
X160514190Y-98835708D01*
X160515710Y-98777655D01*
X160512515Y-98742884D01*
X160508059Y-98694383D01*
X160521744Y-98624718D01*
X160570921Y-98573511D01*
X160639975Y-98557020D01*
X160653181Y-98558397D01*
X163819702Y-99058374D01*
X163839888Y-99063296D01*
X165354000Y-99568000D01*
X168122785Y-100484213D01*
X168181173Y-100524603D01*
X168208456Y-100590148D01*
X168205701Y-100633324D01*
X168042628Y-101310688D01*
X168007238Y-101372233D01*
X167944191Y-101404876D01*
X167912437Y-101404148D01*
X167902484Y-101407593D01*
X167897196Y-101413409D01*
X167351970Y-102357769D01*
X167160970Y-102688590D01*
X167109588Y-102737583D01*
X167039874Y-102751019D01*
X166988851Y-102734709D01*
X165717627Y-102000768D01*
X165702192Y-101997023D01*
X165700452Y-101997626D01*
X165695165Y-102003442D01*
X165381602Y-102546550D01*
X165378515Y-102552633D01*
X165357868Y-102599445D01*
X165353380Y-102614473D01*
X165332261Y-102741359D01*
X165331858Y-102759131D01*
X165347072Y-102885784D01*
X165351671Y-102902946D01*
X165401819Y-103020232D01*
X165411057Y-103035425D01*
X165492786Y-103134749D01*
X165504190Y-103145523D01*
X165545471Y-103175736D01*
X165551195Y-103179467D01*
X165777939Y-103310378D01*
X165826932Y-103361760D01*
X165840368Y-103431474D01*
X165813982Y-103497385D01*
X165756150Y-103538567D01*
X165713290Y-103545486D01*
X165705912Y-103545389D01*
X165647971Y-103544631D01*
X165642274Y-103545610D01*
X165642273Y-103545610D01*
X165632508Y-103547288D01*
X165447910Y-103579008D01*
X165257463Y-103649268D01*
X165083010Y-103753056D01*
X165078670Y-103756862D01*
X165078666Y-103756865D01*
X164934733Y-103883092D01*
X164930392Y-103886899D01*
X164804720Y-104046313D01*
X164802031Y-104051424D01*
X164802029Y-104051427D01*
X164771775Y-104108931D01*
X164710203Y-104225959D01*
X164650007Y-104419822D01*
X164626148Y-104621408D01*
X164639424Y-104823966D01*
X164640845Y-104829562D01*
X164640846Y-104829567D01*
X164665266Y-104925719D01*
X164689392Y-105020713D01*
X164691809Y-105025956D01*
X164729010Y-105106652D01*
X164774377Y-105205060D01*
X164777710Y-105209776D01*
X164880105Y-105354662D01*
X164891533Y-105370833D01*
X164895675Y-105374868D01*
X164949743Y-105427538D01*
X165036938Y-105512479D01*
X165205720Y-105625256D01*
X165211023Y-105627534D01*
X165211026Y-105627536D01*
X165374443Y-105697745D01*
X165392228Y-105705386D01*
X165452606Y-105719048D01*
X165584579Y-105748911D01*
X165584584Y-105748912D01*
X165590216Y-105750186D01*
X165595987Y-105750413D01*
X165595989Y-105750413D01*
X165655756Y-105752761D01*
X165793053Y-105758156D01*
X165893499Y-105743592D01*
X165988231Y-105729857D01*
X165988236Y-105729856D01*
X165993945Y-105729028D01*
X165999409Y-105727173D01*
X165999414Y-105727172D01*
X166180693Y-105665636D01*
X166180698Y-105665634D01*
X166186165Y-105663778D01*
X166214866Y-105647705D01*
X166260683Y-105622046D01*
X166363276Y-105564591D01*
X166382808Y-105548347D01*
X166514913Y-105438475D01*
X166519345Y-105434789D01*
X166582429Y-105358939D01*
X166645453Y-105283162D01*
X166645455Y-105283159D01*
X166649147Y-105278720D01*
X166731679Y-105131349D01*
X166745510Y-105106652D01*
X166745511Y-105106650D01*
X166748334Y-105101609D01*
X166750190Y-105096142D01*
X166750192Y-105096137D01*
X166811728Y-104914858D01*
X166811729Y-104914853D01*
X166813584Y-104909389D01*
X166814412Y-104903680D01*
X166814413Y-104903675D01*
X166842179Y-104712171D01*
X166842712Y-104708497D01*
X166844232Y-104650444D01*
X166829204Y-104486896D01*
X166826187Y-104454057D01*
X166826186Y-104454054D01*
X166825658Y-104448303D01*
X166824090Y-104442743D01*
X166772125Y-104258490D01*
X166772124Y-104258488D01*
X166770557Y-104252931D01*
X166699544Y-104108929D01*
X166687354Y-104038989D01*
X166714913Y-103973560D01*
X166773471Y-103933416D01*
X166844436Y-103931304D01*
X166875550Y-103944084D01*
X167100810Y-104074137D01*
X167106894Y-104077224D01*
X167153706Y-104097871D01*
X167168734Y-104102359D01*
X167229281Y-104112436D01*
X167293193Y-104143351D01*
X167330246Y-104203911D01*
X167331094Y-104266217D01*
X166280314Y-108630886D01*
X166141629Y-109206948D01*
X166106238Y-109268495D01*
X166098439Y-109275364D01*
X163208802Y-111616129D01*
X163143279Y-111643465D01*
X163073379Y-111631037D01*
X163021294Y-111582791D01*
X163003561Y-111514045D01*
X163004796Y-111500142D01*
X163032712Y-111307610D01*
X163034232Y-111249557D01*
X163015658Y-111047416D01*
X163014090Y-111041856D01*
X162962125Y-110857603D01*
X162962124Y-110857601D01*
X162960557Y-110852044D01*
X162949978Y-110830590D01*
X162873331Y-110675166D01*
X162870776Y-110669985D01*
X162749320Y-110507336D01*
X162674789Y-110438440D01*
X162604503Y-110373468D01*
X162600258Y-110369544D01*
X162595375Y-110366463D01*
X162595371Y-110366460D01*
X162433464Y-110264305D01*
X162428581Y-110261224D01*
X162240039Y-110186003D01*
X162234379Y-110184877D01*
X162234375Y-110184876D01*
X162046613Y-110147528D01*
X162046610Y-110147528D01*
X162040946Y-110146401D01*
X162035171Y-110146325D01*
X162035167Y-110146325D01*
X161933793Y-110144998D01*
X161837971Y-110143744D01*
X161832274Y-110144723D01*
X161832273Y-110144723D01*
X161758859Y-110157338D01*
X161637910Y-110178121D01*
X161447463Y-110248381D01*
X161273010Y-110352169D01*
X161268670Y-110355975D01*
X161268666Y-110355978D01*
X161248723Y-110373468D01*
X161120392Y-110486012D01*
X160994720Y-110645426D01*
X160992031Y-110650537D01*
X160992029Y-110650540D01*
X160979073Y-110675166D01*
X160900203Y-110825072D01*
X160840007Y-111018935D01*
X160816148Y-111220521D01*
X160829424Y-111423079D01*
X160830845Y-111428675D01*
X160830846Y-111428680D01*
X160869986Y-111582791D01*
X160879392Y-111619826D01*
X160881809Y-111625069D01*
X160961959Y-111798928D01*
X160964377Y-111804173D01*
X161081533Y-111969946D01*
X161226938Y-112111592D01*
X161395720Y-112224369D01*
X161401023Y-112226647D01*
X161401026Y-112226649D01*
X161576921Y-112302219D01*
X161582228Y-112304499D01*
X161655244Y-112321021D01*
X161774579Y-112348024D01*
X161774584Y-112348025D01*
X161780216Y-112349299D01*
X161785987Y-112349526D01*
X161785989Y-112349526D01*
X161829836Y-112351249D01*
X161945068Y-112355776D01*
X162012350Y-112378437D01*
X162056700Y-112433877D01*
X162064037Y-112504493D01*
X162032032Y-112567866D01*
X162019436Y-112579582D01*
X161725432Y-112817741D01*
X161659913Y-112845075D01*
X161590012Y-112832648D01*
X161545167Y-112795221D01*
X161482777Y-112711671D01*
X161479320Y-112707041D01*
X161330258Y-112569249D01*
X161325375Y-112566168D01*
X161325371Y-112566165D01*
X161163464Y-112464010D01*
X161158581Y-112460929D01*
X160970039Y-112385708D01*
X160964379Y-112384582D01*
X160964375Y-112384581D01*
X160776613Y-112347233D01*
X160776610Y-112347233D01*
X160770946Y-112346106D01*
X160765171Y-112346030D01*
X160765167Y-112346030D01*
X160663793Y-112344703D01*
X160567971Y-112343449D01*
X160562274Y-112344428D01*
X160562273Y-112344428D01*
X160373607Y-112376847D01*
X160367910Y-112377826D01*
X160177463Y-112448086D01*
X160003010Y-112551874D01*
X159998670Y-112555680D01*
X159998666Y-112555683D01*
X159866067Y-112671970D01*
X159850392Y-112685717D01*
X159724720Y-112845131D01*
X159722031Y-112850242D01*
X159722029Y-112850245D01*
X159698408Y-112895142D01*
X159630203Y-113024777D01*
X159570007Y-113218640D01*
X159546148Y-113420226D01*
X159559424Y-113622784D01*
X159560846Y-113628382D01*
X159560846Y-113628384D01*
X159562187Y-113633663D01*
X159559569Y-113704611D01*
X159519009Y-113762881D01*
X159453385Y-113789973D01*
X159383531Y-113777285D01*
X159361015Y-113762797D01*
X158928688Y-113414491D01*
X156694152Y-111614231D01*
X155330181Y-110515344D01*
X155289683Y-110457031D01*
X155287140Y-110386080D01*
X155323360Y-110325018D01*
X155386843Y-110293231D01*
X155425676Y-110292304D01*
X155448000Y-110295243D01*
X155456188Y-110294165D01*
X155585821Y-110277099D01*
X155585823Y-110277098D01*
X155594007Y-110276021D01*
X155730063Y-110219664D01*
X155846897Y-110130014D01*
X155857235Y-110116541D01*
X155914573Y-110074675D01*
X155985444Y-110070454D01*
X156047347Y-110105219D01*
X156057152Y-110116535D01*
X156065103Y-110126897D01*
X156181937Y-110216547D01*
X156317993Y-110272904D01*
X156326177Y-110273981D01*
X156326179Y-110273982D01*
X156455812Y-110291048D01*
X156464000Y-110292126D01*
X156472188Y-110291048D01*
X156601821Y-110273982D01*
X156601823Y-110273981D01*
X156610007Y-110272904D01*
X156746063Y-110216547D01*
X156862897Y-110126897D01*
X156952547Y-110010063D01*
X157008904Y-109874007D01*
X157014729Y-109829766D01*
X157027048Y-109736188D01*
X157028126Y-109728000D01*
X157011863Y-109604469D01*
X157009982Y-109590179D01*
X157009981Y-109590177D01*
X157008904Y-109581993D01*
X156952547Y-109445937D01*
X156862897Y-109329103D01*
X156746063Y-109239453D01*
X156610007Y-109183096D01*
X156601823Y-109182019D01*
X156601821Y-109182018D01*
X156472188Y-109164952D01*
X156464000Y-109163874D01*
X156455812Y-109164952D01*
X156326179Y-109182018D01*
X156326177Y-109182019D01*
X156317993Y-109183096D01*
X156181937Y-109239453D01*
X156065103Y-109329103D01*
X156054766Y-109342575D01*
X156054765Y-109342576D01*
X155997427Y-109384442D01*
X155926556Y-109388663D01*
X155864653Y-109353898D01*
X155854843Y-109342576D01*
X155846897Y-109332220D01*
X155730063Y-109242570D01*
X155594007Y-109186213D01*
X155585823Y-109185136D01*
X155585821Y-109185135D01*
X155456188Y-109168069D01*
X155448000Y-109166991D01*
X155439812Y-109168069D01*
X155310179Y-109185135D01*
X155310177Y-109185136D01*
X155301993Y-109186213D01*
X155165937Y-109242570D01*
X155049103Y-109332220D01*
X154959453Y-109449054D01*
X154903096Y-109585110D01*
X154883874Y-109731117D01*
X154884952Y-109739305D01*
X154894422Y-109811234D01*
X154903096Y-109877124D01*
X154905055Y-109881854D01*
X154903400Y-109951377D01*
X154863605Y-110010173D01*
X154798340Y-110038120D01*
X154728327Y-110026346D01*
X154704334Y-110011129D01*
X152326903Y-108095745D01*
X153897724Y-108095745D01*
X153915172Y-108148198D01*
X153921043Y-108160903D01*
X154001841Y-108294317D01*
X154010381Y-108305406D01*
X154118729Y-108417603D01*
X154129511Y-108426523D01*
X154260023Y-108511929D01*
X154272518Y-108518240D01*
X154342865Y-108544402D01*
X154356931Y-108545395D01*
X154359844Y-108540048D01*
X154359844Y-108532632D01*
X154859844Y-108532632D01*
X154863817Y-108546163D01*
X154870844Y-108547173D01*
X154918258Y-108531767D01*
X154931009Y-108525983D01*
X155045052Y-108458000D01*
X157677874Y-108458000D01*
X157678952Y-108466188D01*
X157689380Y-108545395D01*
X157697096Y-108604007D01*
X157753453Y-108740063D01*
X157843103Y-108856897D01*
X157959937Y-108946547D01*
X158095993Y-109002904D01*
X158104177Y-109003981D01*
X158104179Y-109003982D01*
X158233812Y-109021048D01*
X158242000Y-109022126D01*
X158250188Y-109021048D01*
X158251943Y-109020817D01*
X162086148Y-109020817D01*
X162099424Y-109223375D01*
X162100845Y-109228971D01*
X162100846Y-109228976D01*
X162132573Y-109353898D01*
X162149392Y-109420122D01*
X162151809Y-109425365D01*
X162189010Y-109506061D01*
X162234377Y-109604469D01*
X162237710Y-109609185D01*
X162321680Y-109728000D01*
X162351533Y-109770242D01*
X162496938Y-109911888D01*
X162501742Y-109915098D01*
X162556037Y-109951377D01*
X162665720Y-110024665D01*
X162671023Y-110026943D01*
X162671026Y-110026945D01*
X162846921Y-110102515D01*
X162852228Y-110104795D01*
X162920958Y-110120347D01*
X163044579Y-110148320D01*
X163044584Y-110148321D01*
X163050216Y-110149595D01*
X163055987Y-110149822D01*
X163055989Y-110149822D01*
X163115756Y-110152170D01*
X163253053Y-110157565D01*
X163353499Y-110143001D01*
X163448231Y-110129266D01*
X163448236Y-110129265D01*
X163453945Y-110128437D01*
X163459409Y-110126582D01*
X163459414Y-110126581D01*
X163640693Y-110065045D01*
X163640698Y-110065043D01*
X163646165Y-110063187D01*
X163823276Y-109964000D01*
X163832399Y-109956413D01*
X163974913Y-109837884D01*
X163979345Y-109834198D01*
X164065077Y-109731117D01*
X164105453Y-109682571D01*
X164105455Y-109682568D01*
X164109147Y-109678129D01*
X164189462Y-109534716D01*
X164205510Y-109506061D01*
X164205511Y-109506059D01*
X164208334Y-109501018D01*
X164210190Y-109495551D01*
X164210192Y-109495546D01*
X164271728Y-109314267D01*
X164271729Y-109314262D01*
X164273584Y-109308798D01*
X164274412Y-109303089D01*
X164274413Y-109303084D01*
X164291991Y-109181849D01*
X164302712Y-109107906D01*
X164304232Y-109049853D01*
X164288853Y-108882479D01*
X164286187Y-108853466D01*
X164286186Y-108853463D01*
X164285658Y-108847712D01*
X164284090Y-108842152D01*
X164232125Y-108657899D01*
X164232124Y-108657897D01*
X164230557Y-108652340D01*
X164219978Y-108630886D01*
X164143331Y-108475462D01*
X164140776Y-108470281D01*
X164019320Y-108307632D01*
X163870258Y-108169840D01*
X163865375Y-108166759D01*
X163865371Y-108166756D01*
X163703464Y-108064601D01*
X163698581Y-108061520D01*
X163510039Y-107986299D01*
X163504379Y-107985173D01*
X163504375Y-107985172D01*
X163316613Y-107947824D01*
X163316610Y-107947824D01*
X163310946Y-107946697D01*
X163305171Y-107946621D01*
X163305167Y-107946621D01*
X163203793Y-107945294D01*
X163107971Y-107944040D01*
X163102274Y-107945019D01*
X163102273Y-107945019D01*
X162913607Y-107977438D01*
X162907910Y-107978417D01*
X162717463Y-108048677D01*
X162543010Y-108152465D01*
X162538670Y-108156271D01*
X162538666Y-108156274D01*
X162500817Y-108189467D01*
X162390392Y-108286308D01*
X162264720Y-108445722D01*
X162262031Y-108450833D01*
X162262029Y-108450836D01*
X162226566Y-108518240D01*
X162170203Y-108625368D01*
X162110007Y-108819231D01*
X162086148Y-109020817D01*
X158251943Y-109020817D01*
X158379821Y-109003982D01*
X158379823Y-109003981D01*
X158388007Y-109002904D01*
X158524063Y-108946547D01*
X158640897Y-108856897D01*
X158730547Y-108740063D01*
X158786904Y-108604007D01*
X158794621Y-108545395D01*
X158805048Y-108466188D01*
X158806126Y-108458000D01*
X158798091Y-108396970D01*
X158787982Y-108320179D01*
X158787981Y-108320177D01*
X158786904Y-108311993D01*
X158730547Y-108175937D01*
X158640897Y-108059103D01*
X158524063Y-107969453D01*
X158388007Y-107913096D01*
X158379823Y-107912019D01*
X158379821Y-107912018D01*
X158250188Y-107894952D01*
X158242000Y-107893874D01*
X158233812Y-107894952D01*
X158104179Y-107912018D01*
X158104177Y-107912019D01*
X158095993Y-107913096D01*
X157959937Y-107969453D01*
X157843103Y-108059103D01*
X157753453Y-108175937D01*
X157697096Y-108311993D01*
X157696019Y-108320177D01*
X157696018Y-108320179D01*
X157685909Y-108396970D01*
X157677874Y-108458000D01*
X155045052Y-108458000D01*
X155064978Y-108446122D01*
X155076131Y-108437656D01*
X155189077Y-108330099D01*
X155198080Y-108319369D01*
X155284386Y-108189467D01*
X155290789Y-108177009D01*
X155319337Y-108101858D01*
X155320427Y-108087800D01*
X155315235Y-108084924D01*
X154877959Y-108084924D01*
X154862720Y-108089399D01*
X154861515Y-108090789D01*
X154859844Y-108098472D01*
X154859844Y-108532632D01*
X154359844Y-108532632D01*
X154359844Y-108103039D01*
X154355369Y-108087800D01*
X154353979Y-108086595D01*
X154346296Y-108084924D01*
X153912239Y-108084924D01*
X153898708Y-108088897D01*
X153897724Y-108095745D01*
X152326903Y-108095745D01*
X152146000Y-107950000D01*
X131826000Y-107950000D01*
X130079738Y-109314267D01*
X123781718Y-114234595D01*
X123715723Y-114260771D01*
X123646053Y-114247112D01*
X123619390Y-114228536D01*
X119534878Y-110515344D01*
X118142343Y-109249402D01*
X118117892Y-109209286D01*
X119374750Y-109209286D01*
X119391443Y-109379536D01*
X119445440Y-109541856D01*
X119449087Y-109547878D01*
X119449088Y-109547880D01*
X119530406Y-109682154D01*
X119530409Y-109682157D01*
X119534056Y-109688180D01*
X119652889Y-109811234D01*
X119700592Y-109842450D01*
X119764098Y-109884007D01*
X119796030Y-109904903D01*
X119802634Y-109907359D01*
X119802636Y-109907360D01*
X119949757Y-109962074D01*
X119949759Y-109962074D01*
X119956367Y-109964532D01*
X120035454Y-109975085D01*
X120118949Y-109986226D01*
X120118953Y-109986226D01*
X120125930Y-109987157D01*
X120132941Y-109986519D01*
X120132945Y-109986519D01*
X120289273Y-109972292D01*
X120289275Y-109972292D01*
X120296292Y-109971653D01*
X120302990Y-109969477D01*
X120302993Y-109969476D01*
X120452289Y-109920966D01*
X120452291Y-109920965D01*
X120458985Y-109918790D01*
X120528881Y-109877124D01*
X120599872Y-109834805D01*
X120599874Y-109834804D01*
X120605924Y-109831197D01*
X120729805Y-109713227D01*
X120743079Y-109693249D01*
X120798930Y-109609185D01*
X120824471Y-109570743D01*
X120869186Y-109453030D01*
X120882718Y-109417408D01*
X120882719Y-109417406D01*
X120885218Y-109410826D01*
X120895345Y-109338770D01*
X120908475Y-109245347D01*
X120908475Y-109245344D01*
X120909026Y-109241425D01*
X120909325Y-109220000D01*
X120890256Y-109050000D01*
X120882102Y-109026583D01*
X120836314Y-108895097D01*
X120836313Y-108895095D01*
X120833999Y-108888450D01*
X120743348Y-108743378D01*
X120730159Y-108730096D01*
X120627772Y-108626992D01*
X120622809Y-108621994D01*
X120504909Y-108547173D01*
X120484316Y-108534104D01*
X120484313Y-108534102D01*
X120478373Y-108530333D01*
X120466157Y-108525983D01*
X120323854Y-108475311D01*
X120323849Y-108475310D01*
X120317219Y-108472949D01*
X120310231Y-108472116D01*
X120310228Y-108472115D01*
X120191854Y-108458000D01*
X120147357Y-108452694D01*
X120140354Y-108453430D01*
X120140353Y-108453430D01*
X120096873Y-108458000D01*
X119977228Y-108470575D01*
X119967071Y-108474033D01*
X119821956Y-108523434D01*
X119821953Y-108523435D01*
X119815289Y-108525704D01*
X119669588Y-108615340D01*
X119664557Y-108620267D01*
X119664554Y-108620269D01*
X119626128Y-108657899D01*
X119547366Y-108735028D01*
X119543547Y-108740953D01*
X119543546Y-108740955D01*
X119539900Y-108746613D01*
X119454698Y-108878820D01*
X119452287Y-108885443D01*
X119452286Y-108885446D01*
X119398600Y-109032947D01*
X119398599Y-109032952D01*
X119396190Y-109039570D01*
X119374750Y-109209286D01*
X118117892Y-109209286D01*
X118105393Y-109188780D01*
X118102814Y-109176885D01*
X118082259Y-109053557D01*
X117798880Y-107353283D01*
X153155262Y-107353283D01*
X153172710Y-107405736D01*
X153178581Y-107418441D01*
X153259379Y-107551855D01*
X153267919Y-107562944D01*
X153376267Y-107675141D01*
X153387049Y-107684061D01*
X153517561Y-107769467D01*
X153530056Y-107775778D01*
X153600403Y-107801940D01*
X153614469Y-107802933D01*
X153617382Y-107797586D01*
X153617382Y-107790170D01*
X155602306Y-107790170D01*
X155606279Y-107803701D01*
X155613306Y-107804711D01*
X155660720Y-107789305D01*
X155673471Y-107783521D01*
X155807440Y-107703660D01*
X155818593Y-107695194D01*
X155931539Y-107587637D01*
X155940542Y-107576907D01*
X156026848Y-107447005D01*
X156033251Y-107434547D01*
X156061799Y-107359396D01*
X156062889Y-107345338D01*
X156057697Y-107342462D01*
X155620421Y-107342462D01*
X155605182Y-107346937D01*
X155603977Y-107348327D01*
X155602306Y-107356010D01*
X155602306Y-107790170D01*
X153617382Y-107790170D01*
X153617382Y-107566809D01*
X154117382Y-107566809D01*
X154121857Y-107582048D01*
X154123247Y-107583253D01*
X154130930Y-107584924D01*
X154341729Y-107584924D01*
X154356968Y-107580449D01*
X154358173Y-107579059D01*
X154359844Y-107571376D01*
X154359844Y-107566809D01*
X154859844Y-107566809D01*
X154864319Y-107582048D01*
X154865709Y-107583253D01*
X154873392Y-107584924D01*
X155084191Y-107584924D01*
X155099430Y-107580449D01*
X155100635Y-107579059D01*
X155102306Y-107571376D01*
X155102306Y-107360577D01*
X155097831Y-107345338D01*
X155096441Y-107344133D01*
X155088758Y-107342462D01*
X154877959Y-107342462D01*
X154862720Y-107346937D01*
X154861515Y-107348327D01*
X154859844Y-107356010D01*
X154859844Y-107566809D01*
X154359844Y-107566809D01*
X154359844Y-107360577D01*
X154355369Y-107345338D01*
X154353979Y-107344133D01*
X154346296Y-107342462D01*
X154135497Y-107342462D01*
X154120258Y-107346937D01*
X154119053Y-107348327D01*
X154117382Y-107356010D01*
X154117382Y-107566809D01*
X153617382Y-107566809D01*
X153617382Y-107360577D01*
X153612907Y-107345338D01*
X153611517Y-107344133D01*
X153603834Y-107342462D01*
X153169777Y-107342462D01*
X153156246Y-107346435D01*
X153155262Y-107353283D01*
X117798880Y-107353283D01*
X117644333Y-106426000D01*
X147771874Y-106426000D01*
X147791096Y-106572007D01*
X147847453Y-106708063D01*
X147937103Y-106824897D01*
X148053937Y-106914547D01*
X148189993Y-106970904D01*
X148198177Y-106971981D01*
X148198179Y-106971982D01*
X148327812Y-106989048D01*
X148336000Y-106990126D01*
X148344188Y-106989048D01*
X148473821Y-106971982D01*
X148473823Y-106971981D01*
X148482007Y-106970904D01*
X148618063Y-106914547D01*
X148734897Y-106824897D01*
X148824547Y-106708063D01*
X148864826Y-106610821D01*
X152412800Y-106610821D01*
X152430248Y-106663274D01*
X152436119Y-106675979D01*
X152516917Y-106809393D01*
X152525457Y-106820482D01*
X152633805Y-106932679D01*
X152644587Y-106941599D01*
X152775099Y-107027005D01*
X152787594Y-107033316D01*
X152857941Y-107059478D01*
X152872007Y-107060471D01*
X152874920Y-107055124D01*
X152874920Y-107047708D01*
X156344768Y-107047708D01*
X156348741Y-107061239D01*
X156355768Y-107062249D01*
X156403182Y-107046843D01*
X156415933Y-107041059D01*
X156549902Y-106961198D01*
X156561055Y-106952732D01*
X156674001Y-106845175D01*
X156683004Y-106834445D01*
X156691862Y-106821112D01*
X163356148Y-106821112D01*
X163369424Y-107023670D01*
X163370845Y-107029266D01*
X163370846Y-107029271D01*
X163391119Y-107109093D01*
X163419392Y-107220417D01*
X163421809Y-107225660D01*
X163459010Y-107306356D01*
X163504377Y-107404764D01*
X163621533Y-107570537D01*
X163766938Y-107712183D01*
X163935720Y-107824960D01*
X163941023Y-107827238D01*
X163941026Y-107827240D01*
X164029707Y-107865340D01*
X164122228Y-107905090D01*
X164195244Y-107921612D01*
X164314579Y-107948615D01*
X164314584Y-107948616D01*
X164320216Y-107949890D01*
X164325987Y-107950117D01*
X164325989Y-107950117D01*
X164385756Y-107952465D01*
X164523053Y-107957860D01*
X164623499Y-107943296D01*
X164718231Y-107929561D01*
X164718236Y-107929560D01*
X164723945Y-107928732D01*
X164729409Y-107926877D01*
X164729414Y-107926876D01*
X164910693Y-107865340D01*
X164910698Y-107865338D01*
X164916165Y-107863482D01*
X165093276Y-107764295D01*
X165155934Y-107712183D01*
X165244913Y-107638179D01*
X165249345Y-107634493D01*
X165379147Y-107478424D01*
X165452783Y-107346937D01*
X165475510Y-107306356D01*
X165475511Y-107306354D01*
X165478334Y-107301313D01*
X165480190Y-107295846D01*
X165480192Y-107295841D01*
X165541728Y-107114562D01*
X165541729Y-107114557D01*
X165543584Y-107109093D01*
X165544412Y-107103384D01*
X165544413Y-107103379D01*
X165563620Y-106970904D01*
X165572712Y-106908201D01*
X165574232Y-106850148D01*
X165555658Y-106648007D01*
X165554090Y-106642447D01*
X165502125Y-106458194D01*
X165502124Y-106458192D01*
X165500557Y-106452635D01*
X165489978Y-106431181D01*
X165413331Y-106275757D01*
X165410776Y-106270576D01*
X165289320Y-106107927D01*
X165188182Y-106014436D01*
X165144503Y-105974059D01*
X165140258Y-105970135D01*
X165135375Y-105967054D01*
X165135371Y-105967051D01*
X164973464Y-105864896D01*
X164968581Y-105861815D01*
X164780039Y-105786594D01*
X164774379Y-105785468D01*
X164774375Y-105785467D01*
X164586613Y-105748119D01*
X164586610Y-105748119D01*
X164580946Y-105746992D01*
X164575171Y-105746916D01*
X164575167Y-105746916D01*
X164473793Y-105745589D01*
X164377971Y-105744335D01*
X164372274Y-105745314D01*
X164372273Y-105745314D01*
X164183607Y-105777733D01*
X164177910Y-105778712D01*
X163987463Y-105848972D01*
X163813010Y-105952760D01*
X163808670Y-105956566D01*
X163808666Y-105956569D01*
X163665772Y-106081885D01*
X163660392Y-106086603D01*
X163534720Y-106246017D01*
X163532031Y-106251128D01*
X163532029Y-106251131D01*
X163520856Y-106272367D01*
X163440203Y-106425663D01*
X163380007Y-106619526D01*
X163356148Y-106821112D01*
X156691862Y-106821112D01*
X156769310Y-106704543D01*
X156775713Y-106692085D01*
X156804261Y-106616934D01*
X156805351Y-106602876D01*
X156800159Y-106600000D01*
X156362883Y-106600000D01*
X156347644Y-106604475D01*
X156346439Y-106605865D01*
X156344768Y-106613548D01*
X156344768Y-107047708D01*
X152874920Y-107047708D01*
X152874920Y-106824347D01*
X153374920Y-106824347D01*
X153379395Y-106839586D01*
X153380785Y-106840791D01*
X153388468Y-106842462D01*
X153599267Y-106842462D01*
X153614506Y-106837987D01*
X153615711Y-106836597D01*
X153617382Y-106828914D01*
X153617382Y-106824347D01*
X154117382Y-106824347D01*
X154121857Y-106839586D01*
X154123247Y-106840791D01*
X154130930Y-106842462D01*
X154341729Y-106842462D01*
X154356968Y-106837987D01*
X154358173Y-106836597D01*
X154359844Y-106828914D01*
X154359844Y-106824347D01*
X154859844Y-106824347D01*
X154864319Y-106839586D01*
X154865709Y-106840791D01*
X154873392Y-106842462D01*
X155084191Y-106842462D01*
X155099430Y-106837987D01*
X155100635Y-106836597D01*
X155102306Y-106828914D01*
X155102306Y-106824347D01*
X155602306Y-106824347D01*
X155606781Y-106839586D01*
X155608171Y-106840791D01*
X155615854Y-106842462D01*
X155826653Y-106842462D01*
X155841892Y-106837987D01*
X155843097Y-106836597D01*
X155844768Y-106828914D01*
X155844768Y-106618115D01*
X155840293Y-106602876D01*
X155838903Y-106601671D01*
X155831220Y-106600000D01*
X155620421Y-106600000D01*
X155605182Y-106604475D01*
X155603977Y-106605865D01*
X155602306Y-106613548D01*
X155602306Y-106824347D01*
X155102306Y-106824347D01*
X155102306Y-106618115D01*
X155097831Y-106602876D01*
X155096441Y-106601671D01*
X155088758Y-106600000D01*
X154877959Y-106600000D01*
X154862720Y-106604475D01*
X154861515Y-106605865D01*
X154859844Y-106613548D01*
X154859844Y-106824347D01*
X154359844Y-106824347D01*
X154359844Y-106618115D01*
X154355369Y-106602876D01*
X154353979Y-106601671D01*
X154346296Y-106600000D01*
X154135497Y-106600000D01*
X154120258Y-106604475D01*
X154119053Y-106605865D01*
X154117382Y-106613548D01*
X154117382Y-106824347D01*
X153617382Y-106824347D01*
X153617382Y-106618115D01*
X153612907Y-106602876D01*
X153611517Y-106601671D01*
X153603834Y-106600000D01*
X153393035Y-106600000D01*
X153377796Y-106604475D01*
X153376591Y-106605865D01*
X153374920Y-106613548D01*
X153374920Y-106824347D01*
X152874920Y-106824347D01*
X152874920Y-106618115D01*
X152870445Y-106602876D01*
X152869055Y-106601671D01*
X152861372Y-106600000D01*
X152427315Y-106600000D01*
X152413784Y-106603973D01*
X152412800Y-106610821D01*
X148864826Y-106610821D01*
X148880904Y-106572007D01*
X148900126Y-106426000D01*
X148880904Y-106279993D01*
X148824547Y-106143937D01*
X148788569Y-106097050D01*
X152414523Y-106097050D01*
X152420029Y-106100000D01*
X152856805Y-106100000D01*
X152872044Y-106095525D01*
X152873249Y-106094135D01*
X152874920Y-106086452D01*
X152874920Y-106081885D01*
X153374920Y-106081885D01*
X153379395Y-106097124D01*
X153380785Y-106098329D01*
X153388468Y-106100000D01*
X153599267Y-106100000D01*
X153614506Y-106095525D01*
X153615711Y-106094135D01*
X153617382Y-106086452D01*
X153617382Y-106081885D01*
X154117382Y-106081885D01*
X154121857Y-106097124D01*
X154123247Y-106098329D01*
X154130930Y-106100000D01*
X154341729Y-106100000D01*
X154356968Y-106095525D01*
X154358173Y-106094135D01*
X154359844Y-106086452D01*
X154359844Y-106081885D01*
X154859844Y-106081885D01*
X154864319Y-106097124D01*
X154865709Y-106098329D01*
X154873392Y-106100000D01*
X155084191Y-106100000D01*
X155099430Y-106095525D01*
X155100635Y-106094135D01*
X155102306Y-106086452D01*
X155102306Y-106081885D01*
X155602306Y-106081885D01*
X155606781Y-106097124D01*
X155608171Y-106098329D01*
X155615854Y-106100000D01*
X155826653Y-106100000D01*
X155841892Y-106095525D01*
X155843097Y-106094135D01*
X155844768Y-106086452D01*
X155844768Y-106081885D01*
X156344768Y-106081885D01*
X156349243Y-106097124D01*
X156350633Y-106098329D01*
X156358316Y-106100000D01*
X156792284Y-106100000D01*
X156805815Y-106096027D01*
X156806750Y-106089522D01*
X156784997Y-106027054D01*
X156778951Y-106014436D01*
X156696299Y-105882165D01*
X156687602Y-105871192D01*
X156577701Y-105760521D01*
X156566791Y-105751749D01*
X156435110Y-105668181D01*
X156422514Y-105662038D01*
X156361835Y-105640431D01*
X156347755Y-105639635D01*
X156344768Y-105645305D01*
X156344768Y-106081885D01*
X155844768Y-106081885D01*
X155844768Y-105875653D01*
X155840293Y-105860414D01*
X155838903Y-105859209D01*
X155831220Y-105857538D01*
X155620421Y-105857538D01*
X155605182Y-105862013D01*
X155603977Y-105863403D01*
X155602306Y-105871086D01*
X155602306Y-106081885D01*
X155102306Y-106081885D01*
X155102306Y-105875653D01*
X155097831Y-105860414D01*
X155096441Y-105859209D01*
X155088758Y-105857538D01*
X154877959Y-105857538D01*
X154862720Y-105862013D01*
X154861515Y-105863403D01*
X154859844Y-105871086D01*
X154859844Y-106081885D01*
X154359844Y-106081885D01*
X154359844Y-105875653D01*
X154355369Y-105860414D01*
X154353979Y-105859209D01*
X154346296Y-105857538D01*
X154135497Y-105857538D01*
X154120258Y-105862013D01*
X154119053Y-105863403D01*
X154117382Y-105871086D01*
X154117382Y-106081885D01*
X153617382Y-106081885D01*
X153617382Y-105875653D01*
X153612907Y-105860414D01*
X153611517Y-105859209D01*
X153603834Y-105857538D01*
X153393035Y-105857538D01*
X153377796Y-105862013D01*
X153376591Y-105863403D01*
X153374920Y-105871086D01*
X153374920Y-106081885D01*
X152874920Y-106081885D01*
X152874920Y-105652459D01*
X152870947Y-105638928D01*
X152864273Y-105637969D01*
X152806807Y-105657531D01*
X152794137Y-105663493D01*
X152661296Y-105745218D01*
X152650262Y-105753838D01*
X152538829Y-105862962D01*
X152529980Y-105873811D01*
X152445491Y-106004913D01*
X152439265Y-106017455D01*
X152415417Y-106082977D01*
X152414523Y-106097050D01*
X148788569Y-106097050D01*
X148734897Y-106027103D01*
X148722324Y-106017455D01*
X148624613Y-105942479D01*
X148618063Y-105937453D01*
X148482007Y-105881096D01*
X148473823Y-105880019D01*
X148473821Y-105880018D01*
X148344188Y-105862952D01*
X148336000Y-105861874D01*
X148327812Y-105862952D01*
X148198179Y-105880018D01*
X148198177Y-105880019D01*
X148189993Y-105881096D01*
X148053937Y-105937453D01*
X148047387Y-105942479D01*
X147949677Y-106017455D01*
X147937103Y-106027103D01*
X147847453Y-106143937D01*
X147791096Y-106279993D01*
X147771874Y-106426000D01*
X117644333Y-106426000D01*
X117390333Y-104902000D01*
X127451874Y-104902000D01*
X127452952Y-104910188D01*
X127467885Y-105023614D01*
X127471096Y-105048007D01*
X127527453Y-105184063D01*
X127617103Y-105300897D01*
X127733937Y-105390547D01*
X127869993Y-105446904D01*
X127878177Y-105447981D01*
X127878179Y-105447982D01*
X128007812Y-105465048D01*
X128016000Y-105466126D01*
X128024188Y-105465048D01*
X128153821Y-105447982D01*
X128153823Y-105447981D01*
X128162007Y-105446904D01*
X128298063Y-105390547D01*
X128414897Y-105300897D01*
X128504547Y-105184063D01*
X128516171Y-105156000D01*
X132531874Y-105156000D01*
X132532952Y-105164188D01*
X132549562Y-105290352D01*
X132551096Y-105302007D01*
X132607453Y-105438063D01*
X132697103Y-105554897D01*
X132813937Y-105644547D01*
X132949993Y-105700904D01*
X132958177Y-105701981D01*
X132958179Y-105701982D01*
X133087812Y-105719048D01*
X133096000Y-105720126D01*
X133104188Y-105719048D01*
X133233821Y-105701982D01*
X133233823Y-105701981D01*
X133242007Y-105700904D01*
X133378063Y-105644547D01*
X133494897Y-105554897D01*
X133584547Y-105438063D01*
X133640904Y-105302007D01*
X133642439Y-105290352D01*
X133659048Y-105164188D01*
X133660126Y-105156000D01*
X133643006Y-105025956D01*
X133641982Y-105018179D01*
X133641981Y-105018177D01*
X133640904Y-105009993D01*
X133584547Y-104873937D01*
X133494897Y-104757103D01*
X133378063Y-104667453D01*
X133242007Y-104611096D01*
X133233823Y-104610019D01*
X133233821Y-104610018D01*
X133104188Y-104592952D01*
X133096000Y-104591874D01*
X133087812Y-104592952D01*
X132958179Y-104610018D01*
X132958177Y-104610019D01*
X132949993Y-104611096D01*
X132813937Y-104667453D01*
X132697103Y-104757103D01*
X132607453Y-104873937D01*
X132551096Y-105009993D01*
X132550019Y-105018177D01*
X132550018Y-105018179D01*
X132548994Y-105025956D01*
X132531874Y-105156000D01*
X128516171Y-105156000D01*
X128560904Y-105048007D01*
X128564116Y-105023614D01*
X128579048Y-104910188D01*
X128580126Y-104902000D01*
X128569661Y-104822506D01*
X128561982Y-104764179D01*
X128561981Y-104764177D01*
X128560904Y-104755993D01*
X128504547Y-104619937D01*
X128414897Y-104503103D01*
X128298063Y-104413453D01*
X128162007Y-104357096D01*
X128153823Y-104356019D01*
X128153821Y-104356018D01*
X128024188Y-104338952D01*
X128016000Y-104337874D01*
X128007812Y-104338952D01*
X127878179Y-104356018D01*
X127878177Y-104356019D01*
X127869993Y-104357096D01*
X127733937Y-104413453D01*
X127617103Y-104503103D01*
X127527453Y-104619937D01*
X127471096Y-104755993D01*
X127470019Y-104764177D01*
X127470018Y-104764179D01*
X127462339Y-104822506D01*
X127451874Y-104902000D01*
X117390333Y-104902000D01*
X117108550Y-103211301D01*
X117117081Y-103140820D01*
X117162364Y-103086139D01*
X117171185Y-103080701D01*
X117546782Y-102870000D01*
X132277874Y-102870000D01*
X132278952Y-102878188D01*
X132295117Y-103000973D01*
X132297096Y-103016007D01*
X132353453Y-103152063D01*
X132443103Y-103268897D01*
X132559937Y-103358547D01*
X132695993Y-103414904D01*
X132704177Y-103415981D01*
X132704179Y-103415982D01*
X132833812Y-103433048D01*
X132842000Y-103434126D01*
X132850188Y-103433048D01*
X132979821Y-103415982D01*
X132979823Y-103415981D01*
X132988007Y-103414904D01*
X133124063Y-103358547D01*
X133240897Y-103268897D01*
X133330547Y-103152063D01*
X133386904Y-103016007D01*
X133388884Y-103000973D01*
X133405048Y-102878188D01*
X133406126Y-102870000D01*
X133398016Y-102808399D01*
X133387982Y-102732179D01*
X133387981Y-102732177D01*
X133386904Y-102723993D01*
X133330547Y-102587937D01*
X133240897Y-102471103D01*
X133124063Y-102381453D01*
X132988007Y-102325096D01*
X132979823Y-102324019D01*
X132979821Y-102324018D01*
X132850188Y-102306952D01*
X132842000Y-102305874D01*
X132833812Y-102306952D01*
X132704179Y-102324018D01*
X132704177Y-102324019D01*
X132695993Y-102325096D01*
X132559937Y-102381453D01*
X132443103Y-102471103D01*
X132353453Y-102587937D01*
X132297096Y-102723993D01*
X132296019Y-102732177D01*
X132296018Y-102732179D01*
X132285984Y-102808399D01*
X132277874Y-102870000D01*
X117546782Y-102870000D01*
X120305726Y-101322300D01*
X132047574Y-101322300D01*
X132048652Y-101330488D01*
X132059569Y-101413409D01*
X132066796Y-101468307D01*
X132123153Y-101604363D01*
X132212803Y-101721197D01*
X132329637Y-101810847D01*
X132465693Y-101867204D01*
X132473877Y-101868281D01*
X132473879Y-101868282D01*
X132603512Y-101885348D01*
X132611700Y-101886426D01*
X132619888Y-101885348D01*
X132749521Y-101868282D01*
X132749523Y-101868281D01*
X132757707Y-101867204D01*
X132893763Y-101810847D01*
X133010597Y-101721197D01*
X133015623Y-101714647D01*
X133021464Y-101708806D01*
X133023312Y-101710654D01*
X133070129Y-101676465D01*
X133141000Y-101672241D01*
X133202904Y-101707003D01*
X133212715Y-101718325D01*
X133220947Y-101729053D01*
X133337781Y-101818703D01*
X133473837Y-101875060D01*
X133482021Y-101876137D01*
X133482023Y-101876138D01*
X133611656Y-101893204D01*
X133619844Y-101894282D01*
X133628032Y-101893204D01*
X133757665Y-101876138D01*
X133757667Y-101876137D01*
X133765851Y-101875060D01*
X133848672Y-101840754D01*
X135968703Y-101840754D01*
X135971125Y-101852925D01*
X135971125Y-101856044D01*
X135971890Y-101861686D01*
X135983701Y-102023415D01*
X135984694Y-102027884D01*
X135984695Y-102027891D01*
X136013610Y-102158031D01*
X136023424Y-102202203D01*
X136088687Y-102373328D01*
X136090927Y-102377332D01*
X136147052Y-102477653D01*
X136178106Y-102533162D01*
X136180908Y-102536803D01*
X136180910Y-102536807D01*
X136256455Y-102634995D01*
X136289787Y-102678318D01*
X136300396Y-102688590D01*
X136373248Y-102759131D01*
X136421362Y-102805719D01*
X136570042Y-102912664D01*
X136574112Y-102914772D01*
X136574119Y-102914776D01*
X136714231Y-102987335D01*
X136718846Y-102990099D01*
X136721802Y-102991366D01*
X136732033Y-102998385D01*
X136744169Y-103000954D01*
X136744171Y-103000955D01*
X136744655Y-103001057D01*
X136744917Y-103001113D01*
X136768452Y-103008568D01*
X142081206Y-105285463D01*
X142102844Y-105297370D01*
X142113688Y-105304808D01*
X142125832Y-105307378D01*
X142127463Y-105308077D01*
X142137902Y-105311000D01*
X142190548Y-105329470D01*
X142270525Y-105357528D01*
X142270530Y-105357529D01*
X142274548Y-105358939D01*
X142440648Y-105393032D01*
X142609824Y-105404466D01*
X142779000Y-105393032D01*
X142945100Y-105358939D01*
X142949118Y-105357529D01*
X142949123Y-105357528D01*
X142957503Y-105354588D01*
X153156985Y-105354588D01*
X153162491Y-105357538D01*
X153599267Y-105357538D01*
X153614506Y-105353063D01*
X153615711Y-105351673D01*
X153617382Y-105343990D01*
X153617382Y-105339423D01*
X154117382Y-105339423D01*
X154121857Y-105354662D01*
X154123247Y-105355867D01*
X154130930Y-105357538D01*
X154341729Y-105357538D01*
X154356968Y-105353063D01*
X154358173Y-105351673D01*
X154359844Y-105343990D01*
X154359844Y-105339423D01*
X154859844Y-105339423D01*
X154864319Y-105354662D01*
X154865709Y-105355867D01*
X154873392Y-105357538D01*
X155084191Y-105357538D01*
X155099430Y-105353063D01*
X155100635Y-105351673D01*
X155102306Y-105343990D01*
X155102306Y-105339423D01*
X155602306Y-105339423D01*
X155606781Y-105354662D01*
X155608171Y-105355867D01*
X155615854Y-105357538D01*
X156049822Y-105357538D01*
X156063353Y-105353565D01*
X156064288Y-105347060D01*
X156042535Y-105284592D01*
X156036489Y-105271974D01*
X155953837Y-105139703D01*
X155945140Y-105128730D01*
X155835239Y-105018059D01*
X155824329Y-105009287D01*
X155692648Y-104925719D01*
X155680052Y-104919576D01*
X155619373Y-104897969D01*
X155605293Y-104897173D01*
X155602306Y-104902843D01*
X155602306Y-105339423D01*
X155102306Y-105339423D01*
X155102306Y-105133191D01*
X155097831Y-105117952D01*
X155096441Y-105116747D01*
X155088758Y-105115076D01*
X154877959Y-105115076D01*
X154862720Y-105119551D01*
X154861515Y-105120941D01*
X154859844Y-105128624D01*
X154859844Y-105339423D01*
X154359844Y-105339423D01*
X154359844Y-105133191D01*
X154355369Y-105117952D01*
X154353979Y-105116747D01*
X154346296Y-105115076D01*
X154135497Y-105115076D01*
X154120258Y-105119551D01*
X154119053Y-105120941D01*
X154117382Y-105128624D01*
X154117382Y-105339423D01*
X153617382Y-105339423D01*
X153617382Y-104909997D01*
X153613409Y-104896466D01*
X153606735Y-104895507D01*
X153549269Y-104915069D01*
X153536599Y-104921031D01*
X153403758Y-105002756D01*
X153392724Y-105011376D01*
X153281291Y-105120500D01*
X153272442Y-105131349D01*
X153187953Y-105262451D01*
X153181727Y-105274993D01*
X153157879Y-105340515D01*
X153156985Y-105354588D01*
X142957503Y-105354588D01*
X143029100Y-105329470D01*
X143081746Y-105311000D01*
X143092188Y-105308076D01*
X143093818Y-105307377D01*
X143105960Y-105304808D01*
X143116804Y-105297369D01*
X143138440Y-105285463D01*
X144869221Y-104543700D01*
X147771874Y-104543700D01*
X147772952Y-104551888D01*
X147786415Y-104654148D01*
X147791096Y-104689707D01*
X147847453Y-104825763D01*
X147937103Y-104942597D01*
X148053937Y-105032247D01*
X148189993Y-105088604D01*
X148198177Y-105089681D01*
X148198179Y-105089682D01*
X148312768Y-105104767D01*
X148327083Y-105106652D01*
X148327812Y-105106748D01*
X148336000Y-105107826D01*
X148344188Y-105106748D01*
X148344918Y-105106652D01*
X148359232Y-105104767D01*
X148473821Y-105089682D01*
X148473823Y-105089681D01*
X148482007Y-105088604D01*
X148618063Y-105032247D01*
X148734897Y-104942597D01*
X148778484Y-104885793D01*
X157363381Y-104885793D01*
X157364459Y-104893981D01*
X157380810Y-105018179D01*
X157382603Y-105031800D01*
X157438960Y-105167856D01*
X157528610Y-105284690D01*
X157645444Y-105374340D01*
X157781500Y-105430697D01*
X157789684Y-105431774D01*
X157789686Y-105431775D01*
X157919319Y-105448841D01*
X157927507Y-105449919D01*
X157935695Y-105448841D01*
X158065328Y-105431775D01*
X158065330Y-105431774D01*
X158073514Y-105430697D01*
X158209570Y-105374340D01*
X158326404Y-105284690D01*
X158416054Y-105167856D01*
X158472411Y-105031800D01*
X158474205Y-105018179D01*
X158490555Y-104893981D01*
X158491633Y-104885793D01*
X158483730Y-104825763D01*
X158473489Y-104747972D01*
X158473488Y-104747970D01*
X158472411Y-104739786D01*
X158416054Y-104603730D01*
X158326404Y-104486896D01*
X158209570Y-104397246D01*
X158073514Y-104340889D01*
X158065330Y-104339812D01*
X158065328Y-104339811D01*
X157935695Y-104322745D01*
X157927507Y-104321667D01*
X157919319Y-104322745D01*
X157789686Y-104339811D01*
X157789684Y-104339812D01*
X157781500Y-104340889D01*
X157645444Y-104397246D01*
X157528610Y-104486896D01*
X157438960Y-104603730D01*
X157382603Y-104739786D01*
X157381526Y-104747970D01*
X157381525Y-104747972D01*
X157371284Y-104825763D01*
X157363381Y-104885793D01*
X148778484Y-104885793D01*
X148824547Y-104825763D01*
X148880904Y-104689707D01*
X148885586Y-104654148D01*
X148891118Y-104612126D01*
X153899447Y-104612126D01*
X153904953Y-104615076D01*
X154341729Y-104615076D01*
X154356968Y-104610601D01*
X154358173Y-104609211D01*
X154359844Y-104601528D01*
X154359844Y-104596961D01*
X154859844Y-104596961D01*
X154864319Y-104612200D01*
X154865709Y-104613405D01*
X154873392Y-104615076D01*
X155307360Y-104615076D01*
X155320891Y-104611103D01*
X155321826Y-104604598D01*
X155300073Y-104542130D01*
X155294027Y-104529512D01*
X155211375Y-104397241D01*
X155202678Y-104386268D01*
X155092777Y-104275597D01*
X155081867Y-104266825D01*
X154950186Y-104183257D01*
X154937590Y-104177114D01*
X154876911Y-104155507D01*
X154862831Y-104154711D01*
X154859844Y-104160381D01*
X154859844Y-104596961D01*
X154359844Y-104596961D01*
X154359844Y-104167535D01*
X154355871Y-104154004D01*
X154349197Y-104153045D01*
X154291731Y-104172607D01*
X154279061Y-104178569D01*
X154146220Y-104260294D01*
X154135186Y-104268914D01*
X154023753Y-104378038D01*
X154014904Y-104388887D01*
X153930415Y-104519989D01*
X153924189Y-104532531D01*
X153900341Y-104598053D01*
X153899447Y-104612126D01*
X148891118Y-104612126D01*
X148899048Y-104551888D01*
X148900126Y-104543700D01*
X148891986Y-104481870D01*
X148881982Y-104405879D01*
X148881981Y-104405877D01*
X148880904Y-104397693D01*
X148824547Y-104261637D01*
X148734897Y-104144803D01*
X148618063Y-104055153D01*
X148482007Y-103998796D01*
X148473823Y-103997719D01*
X148473821Y-103997718D01*
X148344188Y-103980652D01*
X148336000Y-103979574D01*
X148327812Y-103980652D01*
X148198179Y-103997718D01*
X148198177Y-103997719D01*
X148189993Y-103998796D01*
X148053937Y-104055153D01*
X147937103Y-104144803D01*
X147847453Y-104261637D01*
X147791096Y-104397693D01*
X147790019Y-104405877D01*
X147790018Y-104405879D01*
X147780014Y-104481870D01*
X147771874Y-104543700D01*
X144869221Y-104543700D01*
X148181855Y-103124000D01*
X162503874Y-103124000D01*
X162523096Y-103270007D01*
X162579453Y-103406063D01*
X162669103Y-103522897D01*
X162785937Y-103612547D01*
X162921993Y-103668904D01*
X162930177Y-103669981D01*
X162930179Y-103669982D01*
X163059812Y-103687048D01*
X163068000Y-103688126D01*
X163076188Y-103687048D01*
X163205821Y-103669982D01*
X163205823Y-103669981D01*
X163214007Y-103668904D01*
X163350063Y-103612547D01*
X163466897Y-103522897D01*
X163556547Y-103406063D01*
X163612904Y-103270007D01*
X163632126Y-103124000D01*
X163615948Y-103001112D01*
X163613982Y-102986179D01*
X163613981Y-102986177D01*
X163612904Y-102977993D01*
X163556547Y-102841937D01*
X163466897Y-102725103D01*
X163350063Y-102635453D01*
X163214007Y-102579096D01*
X163205823Y-102578019D01*
X163205821Y-102578018D01*
X163076188Y-102560952D01*
X163068000Y-102559874D01*
X163059812Y-102560952D01*
X162930179Y-102578018D01*
X162930177Y-102578019D01*
X162921993Y-102579096D01*
X162785937Y-102635453D01*
X162669103Y-102725103D01*
X162579453Y-102841937D01*
X162523096Y-102977993D01*
X162522019Y-102986177D01*
X162522018Y-102986179D01*
X162520052Y-103001112D01*
X162503874Y-103124000D01*
X148181855Y-103124000D01*
X148451164Y-103008582D01*
X148474724Y-103001121D01*
X148475426Y-103000973D01*
X148475429Y-103000972D01*
X148487569Y-102998404D01*
X148497804Y-102991385D01*
X148500650Y-102990165D01*
X148505589Y-102987207D01*
X148649573Y-102912675D01*
X148798278Y-102805743D01*
X148929876Y-102678346D01*
X148959285Y-102640128D01*
X148974099Y-102620876D01*
X158986733Y-102620876D01*
X158988307Y-102634995D01*
X159001534Y-102639375D01*
X159022062Y-102640128D01*
X159032348Y-102639661D01*
X159243597Y-102612600D01*
X159253674Y-102610458D01*
X159457667Y-102549257D01*
X159467254Y-102545499D01*
X159658507Y-102451805D01*
X159667357Y-102446530D01*
X159840740Y-102322858D01*
X159848612Y-102316205D01*
X159999464Y-102165878D01*
X160006142Y-102158031D01*
X160130415Y-101985086D01*
X160135725Y-101976249D01*
X160230085Y-101785327D01*
X160232973Y-101778033D01*
X160233103Y-101764178D01*
X160221101Y-101758396D01*
X159189288Y-101576460D01*
X159173502Y-101578220D01*
X159172074Y-101579380D01*
X159169095Y-101586655D01*
X158986733Y-102620876D01*
X148974099Y-102620876D01*
X149021039Y-102559874D01*
X149041574Y-102533187D01*
X149043813Y-102529185D01*
X149043817Y-102529179D01*
X149128759Y-102377356D01*
X149128760Y-102377354D01*
X149131004Y-102373343D01*
X149196270Y-102202206D01*
X149224239Y-102076294D01*
X149234993Y-102027884D01*
X149234994Y-102027879D01*
X149235988Y-102023403D01*
X149247802Y-101861452D01*
X149248525Y-101856110D01*
X149248525Y-101852899D01*
X149250945Y-101840728D01*
X149248524Y-101828560D01*
X149248524Y-101828555D01*
X149248382Y-101827843D01*
X149245959Y-101803254D01*
X149245959Y-100330000D01*
X151377018Y-100330000D01*
X151378096Y-100338188D01*
X151389629Y-100425788D01*
X151396240Y-100476007D01*
X151452597Y-100612063D01*
X151542247Y-100728897D01*
X151548797Y-100733923D01*
X151550531Y-100735657D01*
X151584554Y-100797970D01*
X151579488Y-100868786D01*
X151561397Y-100901451D01*
X151546417Y-100920973D01*
X151490060Y-101057029D01*
X151488983Y-101065213D01*
X151488982Y-101065215D01*
X151479018Y-101140904D01*
X151470838Y-101203036D01*
X151471916Y-101211224D01*
X151487574Y-101330156D01*
X151490060Y-101349043D01*
X151546417Y-101485099D01*
X151636067Y-101601933D01*
X151752901Y-101691583D01*
X151888957Y-101747940D01*
X151897141Y-101749017D01*
X151897143Y-101749018D01*
X152026776Y-101766084D01*
X152034964Y-101767162D01*
X152043152Y-101766084D01*
X152172785Y-101749018D01*
X152172787Y-101749017D01*
X152180971Y-101747940D01*
X152317027Y-101691583D01*
X152433861Y-101601933D01*
X152523511Y-101485099D01*
X152579868Y-101349043D01*
X152582355Y-101330156D01*
X152598012Y-101211224D01*
X152599090Y-101203036D01*
X152590910Y-101140904D01*
X152580946Y-101065215D01*
X152580945Y-101065213D01*
X152579868Y-101057029D01*
X152523511Y-100920973D01*
X152433861Y-100804139D01*
X152427311Y-100799113D01*
X152425577Y-100797379D01*
X152391554Y-100735066D01*
X152396620Y-100664250D01*
X152414711Y-100631585D01*
X152429691Y-100612063D01*
X152486048Y-100476007D01*
X152492660Y-100425788D01*
X152504192Y-100338188D01*
X152505270Y-100330000D01*
X152491568Y-100225923D01*
X152487126Y-100192179D01*
X152487125Y-100192177D01*
X152486048Y-100183993D01*
X152429691Y-100047937D01*
X152340041Y-99931103D01*
X152223207Y-99841453D01*
X152087151Y-99785096D01*
X152078967Y-99784019D01*
X152078965Y-99784018D01*
X151949332Y-99766952D01*
X151941144Y-99765874D01*
X151932956Y-99766952D01*
X151803323Y-99784018D01*
X151803321Y-99784019D01*
X151795137Y-99785096D01*
X151659081Y-99841453D01*
X151542247Y-99931103D01*
X151452597Y-100047937D01*
X151396240Y-100183993D01*
X151395163Y-100192177D01*
X151395162Y-100192179D01*
X151390720Y-100225923D01*
X151377018Y-100330000D01*
X149245959Y-100330000D01*
X149245959Y-89396746D01*
X149248382Y-89372157D01*
X149248524Y-89371446D01*
X149248524Y-89371440D01*
X149250945Y-89359272D01*
X149248525Y-89347103D01*
X149248525Y-89343765D01*
X149247852Y-89338797D01*
X149236353Y-89181174D01*
X149236353Y-89181171D01*
X149236019Y-89176592D01*
X149196301Y-88997785D01*
X149131033Y-88826643D01*
X149050206Y-88682176D01*
X149043844Y-88670804D01*
X149043840Y-88670798D01*
X149041601Y-88666796D01*
X148929899Y-88521633D01*
X148801642Y-88397469D01*
X148801596Y-88397424D01*
X148801590Y-88397419D01*
X148798299Y-88394233D01*
X148649590Y-88287298D01*
X148645512Y-88285187D01*
X148645507Y-88285184D01*
X148505386Y-88212651D01*
X148500754Y-88209878D01*
X148497801Y-88208613D01*
X148487569Y-88201596D01*
X148475295Y-88199000D01*
X148474724Y-88198879D01*
X148451163Y-88191418D01*
X146590381Y-87393940D01*
X143138440Y-85914537D01*
X143116803Y-85902630D01*
X143105960Y-85895192D01*
X143093818Y-85892623D01*
X143092188Y-85891924D01*
X143081746Y-85889000D01*
X143029100Y-85870530D01*
X142949123Y-85842472D01*
X142949118Y-85842471D01*
X142945100Y-85841061D01*
X142779000Y-85806968D01*
X142609824Y-85795534D01*
X142440648Y-85806968D01*
X142274548Y-85841061D01*
X142270530Y-85842471D01*
X142270525Y-85842472D01*
X142190548Y-85870530D01*
X142137902Y-85889000D01*
X142127463Y-85891923D01*
X142125832Y-85892622D01*
X142113688Y-85895192D01*
X142102848Y-85902628D01*
X142102845Y-85902630D01*
X142081206Y-85914537D01*
X136768465Y-88191426D01*
X136744921Y-88198883D01*
X136732055Y-88201606D01*
X136721821Y-88208627D01*
X136718973Y-88209847D01*
X136714039Y-88212801D01*
X136654286Y-88243739D01*
X136570066Y-88287344D01*
X136421375Y-88394280D01*
X136418082Y-88397468D01*
X136418081Y-88397469D01*
X136293088Y-88518482D01*
X136289789Y-88521676D01*
X136178098Y-88666829D01*
X136169528Y-88682146D01*
X136090914Y-88822652D01*
X136090910Y-88822660D01*
X136088670Y-88826664D01*
X136023401Y-88997790D01*
X135983675Y-89176581D01*
X135983340Y-89181171D01*
X135971846Y-89338532D01*
X135971125Y-89343852D01*
X135971125Y-89347075D01*
X135968703Y-89359246D01*
X135971124Y-89371419D01*
X135971269Y-89372149D01*
X135973689Y-89396725D01*
X135973689Y-101803275D01*
X135971269Y-101827851D01*
X135968703Y-101840754D01*
X133848672Y-101840754D01*
X133901907Y-101818703D01*
X134018741Y-101729053D01*
X134108391Y-101612219D01*
X134164748Y-101476163D01*
X134183970Y-101330156D01*
X134174267Y-101256452D01*
X134165826Y-101192335D01*
X134165825Y-101192333D01*
X134164748Y-101184149D01*
X134108391Y-101048093D01*
X134018741Y-100931259D01*
X133901907Y-100841609D01*
X133765851Y-100785252D01*
X133757667Y-100784175D01*
X133757665Y-100784174D01*
X133628032Y-100767108D01*
X133619844Y-100766030D01*
X133611656Y-100767108D01*
X133482023Y-100784174D01*
X133482021Y-100784175D01*
X133473837Y-100785252D01*
X133337781Y-100841609D01*
X133220947Y-100931259D01*
X133215921Y-100937809D01*
X133210080Y-100943650D01*
X133208232Y-100941802D01*
X133161415Y-100975991D01*
X133090544Y-100980215D01*
X133028640Y-100945453D01*
X133018829Y-100934131D01*
X133010597Y-100923403D01*
X132893763Y-100833753D01*
X132757707Y-100777396D01*
X132749523Y-100776319D01*
X132749521Y-100776318D01*
X132619888Y-100759252D01*
X132611700Y-100758174D01*
X132603512Y-100759252D01*
X132473879Y-100776318D01*
X132473877Y-100776319D01*
X132465693Y-100777396D01*
X132329637Y-100833753D01*
X132212803Y-100923403D01*
X132123153Y-101040237D01*
X132066796Y-101176293D01*
X132047574Y-101322300D01*
X120305726Y-101322300D01*
X122980174Y-99822000D01*
X133055718Y-99822000D01*
X133056796Y-99830188D01*
X133070830Y-99936785D01*
X133074940Y-99968007D01*
X133131297Y-100104063D01*
X133220947Y-100220897D01*
X133337781Y-100310547D01*
X133473837Y-100366904D01*
X133482021Y-100367981D01*
X133482023Y-100367982D01*
X133611656Y-100385048D01*
X133619844Y-100386126D01*
X133628032Y-100385048D01*
X133757665Y-100367982D01*
X133757667Y-100367981D01*
X133765851Y-100366904D01*
X133901907Y-100310547D01*
X134018741Y-100220897D01*
X134108391Y-100104063D01*
X134164748Y-99968007D01*
X134168859Y-99936785D01*
X134182892Y-99830188D01*
X134183970Y-99822000D01*
X134171260Y-99725458D01*
X134165826Y-99684179D01*
X134165825Y-99684177D01*
X134164748Y-99675993D01*
X134108391Y-99539937D01*
X134018741Y-99423103D01*
X133901907Y-99333453D01*
X133765851Y-99277096D01*
X133757667Y-99276019D01*
X133757665Y-99276018D01*
X133628032Y-99258952D01*
X133619844Y-99257874D01*
X133611656Y-99258952D01*
X133482023Y-99276018D01*
X133482021Y-99276019D01*
X133473837Y-99277096D01*
X133337781Y-99333453D01*
X133220947Y-99423103D01*
X133131297Y-99539937D01*
X133074940Y-99675993D01*
X133073863Y-99684177D01*
X133073862Y-99684179D01*
X133068428Y-99725458D01*
X133055718Y-99822000D01*
X122980174Y-99822000D01*
X123040328Y-99788255D01*
X124872100Y-98760676D01*
X131355851Y-98760676D01*
X131356929Y-98768864D01*
X131372345Y-98885959D01*
X131375073Y-98906683D01*
X131431430Y-99042739D01*
X131521080Y-99159573D01*
X131637914Y-99249223D01*
X131773970Y-99305580D01*
X131782154Y-99306657D01*
X131782156Y-99306658D01*
X131911789Y-99323724D01*
X131919977Y-99324802D01*
X131928165Y-99323724D01*
X132057798Y-99306658D01*
X132057800Y-99306657D01*
X132065984Y-99305580D01*
X132202040Y-99249223D01*
X132318874Y-99159573D01*
X132408524Y-99042739D01*
X132464881Y-98906683D01*
X132467610Y-98885959D01*
X132483025Y-98768864D01*
X132484103Y-98760676D01*
X132476281Y-98701262D01*
X132465959Y-98622855D01*
X132465958Y-98622853D01*
X132464881Y-98614669D01*
X132408524Y-98478613D01*
X132318874Y-98361779D01*
X132235756Y-98298000D01*
X133293874Y-98298000D01*
X133294952Y-98306188D01*
X133307081Y-98398315D01*
X133313096Y-98444007D01*
X133369453Y-98580063D01*
X133459103Y-98696897D01*
X133575937Y-98786547D01*
X133711993Y-98842904D01*
X133720177Y-98843981D01*
X133720179Y-98843982D01*
X133849812Y-98861048D01*
X133858000Y-98862126D01*
X133866188Y-98861048D01*
X133995821Y-98843982D01*
X133995823Y-98843981D01*
X134004007Y-98842904D01*
X134140063Y-98786547D01*
X134256897Y-98696897D01*
X134346547Y-98580063D01*
X134402904Y-98444007D01*
X134408920Y-98398315D01*
X134421048Y-98306188D01*
X134422126Y-98298000D01*
X134418304Y-98268971D01*
X134403982Y-98160179D01*
X134403981Y-98160177D01*
X134402904Y-98151993D01*
X134346547Y-98015937D01*
X134256897Y-97899103D01*
X134140063Y-97809453D01*
X134004007Y-97753096D01*
X133995823Y-97752019D01*
X133995821Y-97752018D01*
X133866188Y-97734952D01*
X133858000Y-97733874D01*
X133849812Y-97734952D01*
X133720179Y-97752018D01*
X133720177Y-97752019D01*
X133711993Y-97753096D01*
X133575937Y-97809453D01*
X133459103Y-97899103D01*
X133369453Y-98015937D01*
X133313096Y-98151993D01*
X133312019Y-98160177D01*
X133312018Y-98160179D01*
X133297696Y-98268971D01*
X133293874Y-98298000D01*
X132235756Y-98298000D01*
X132202040Y-98272129D01*
X132065984Y-98215772D01*
X132057800Y-98214695D01*
X132057798Y-98214694D01*
X131928165Y-98197628D01*
X131919977Y-98196550D01*
X131911789Y-98197628D01*
X131782156Y-98214694D01*
X131782154Y-98214695D01*
X131773970Y-98215772D01*
X131637914Y-98272129D01*
X131521080Y-98361779D01*
X131431430Y-98478613D01*
X131375073Y-98614669D01*
X131373996Y-98622853D01*
X131373995Y-98622855D01*
X131363673Y-98701262D01*
X131355851Y-98760676D01*
X124872100Y-98760676D01*
X127413640Y-97334934D01*
X130534083Y-97334934D01*
X130536866Y-97338652D01*
X130668701Y-97387681D01*
X130682292Y-97391070D01*
X130836888Y-97411697D01*
X130850884Y-97411991D01*
X131006204Y-97397855D01*
X131019929Y-97395038D01*
X131168259Y-97346843D01*
X131176899Y-97342924D01*
X131184307Y-97334934D01*
X131784083Y-97334934D01*
X131786866Y-97338652D01*
X131918701Y-97387681D01*
X131932292Y-97391070D01*
X132086888Y-97411697D01*
X132100884Y-97411991D01*
X132256204Y-97397855D01*
X132269929Y-97395038D01*
X132418259Y-97346843D01*
X132426899Y-97342924D01*
X132434307Y-97334934D01*
X133034083Y-97334934D01*
X133036866Y-97338652D01*
X133168701Y-97387681D01*
X133182292Y-97391070D01*
X133336888Y-97411697D01*
X133350884Y-97411991D01*
X133506204Y-97397855D01*
X133519929Y-97395038D01*
X133668259Y-97346843D01*
X133676899Y-97342924D01*
X133685274Y-97333891D01*
X133681769Y-97325478D01*
X133372656Y-97016365D01*
X133358712Y-97008751D01*
X133356879Y-97008882D01*
X133350264Y-97013133D01*
X133040843Y-97322554D01*
X133034083Y-97334934D01*
X132434307Y-97334934D01*
X132435274Y-97333891D01*
X132431769Y-97325478D01*
X132122656Y-97016365D01*
X132108712Y-97008751D01*
X132106879Y-97008882D01*
X132100264Y-97013133D01*
X131790843Y-97322554D01*
X131784083Y-97334934D01*
X131184307Y-97334934D01*
X131185274Y-97333891D01*
X131181769Y-97325478D01*
X130872656Y-97016365D01*
X130858712Y-97008751D01*
X130856879Y-97008882D01*
X130850264Y-97013133D01*
X130540843Y-97322554D01*
X130534083Y-97334934D01*
X127413640Y-97334934D01*
X127495688Y-97288907D01*
X127495689Y-97288906D01*
X127508000Y-97282000D01*
X128580444Y-95758000D01*
X129229874Y-95758000D01*
X129249096Y-95904007D01*
X129305453Y-96040063D01*
X129395103Y-96156897D01*
X129511937Y-96246547D01*
X129647993Y-96302904D01*
X129656177Y-96303981D01*
X129656179Y-96303982D01*
X129785812Y-96321048D01*
X129794000Y-96322126D01*
X129802188Y-96321048D01*
X129931821Y-96303982D01*
X129931823Y-96303981D01*
X129940007Y-96302904D01*
X129947637Y-96299744D01*
X129947639Y-96299743D01*
X129957440Y-96295684D01*
X130028030Y-96288095D01*
X130091516Y-96319875D01*
X130127743Y-96380933D01*
X130124059Y-96455186D01*
X130120845Y-96464017D01*
X130117553Y-96477625D01*
X130098006Y-96632356D01*
X130097810Y-96646362D01*
X130113030Y-96801585D01*
X130115941Y-96815280D01*
X130165171Y-96963270D01*
X130167573Y-96968468D01*
X130175561Y-96975772D01*
X130184182Y-96972109D01*
X130493479Y-96662812D01*
X130499857Y-96651132D01*
X131218595Y-96651132D01*
X131218726Y-96652965D01*
X131222977Y-96659580D01*
X131472032Y-96908635D01*
X131485976Y-96916249D01*
X131487809Y-96916118D01*
X131494424Y-96911867D01*
X131743479Y-96662812D01*
X131749857Y-96651132D01*
X132468595Y-96651132D01*
X132468726Y-96652965D01*
X132472977Y-96659580D01*
X132722032Y-96908635D01*
X132735976Y-96916249D01*
X132737809Y-96916118D01*
X132744424Y-96911867D01*
X132993479Y-96662812D01*
X132999857Y-96651132D01*
X133718595Y-96651132D01*
X133718726Y-96652965D01*
X133722977Y-96659580D01*
X134032022Y-96968625D01*
X134044402Y-96975385D01*
X134048218Y-96972528D01*
X134096175Y-96846283D01*
X134099655Y-96832727D01*
X134121792Y-96675221D01*
X134122398Y-96667338D01*
X134122585Y-96653962D01*
X134122198Y-96646062D01*
X134104469Y-96488003D01*
X134101367Y-96474350D01*
X134050544Y-96328407D01*
X134044985Y-96323467D01*
X134035932Y-96327465D01*
X133726209Y-96637188D01*
X133718595Y-96651132D01*
X132999857Y-96651132D01*
X133001093Y-96648868D01*
X133000962Y-96647035D01*
X132996711Y-96640420D01*
X132747656Y-96391365D01*
X132733712Y-96383751D01*
X132731879Y-96383882D01*
X132725264Y-96388133D01*
X132476209Y-96637188D01*
X132468595Y-96651132D01*
X131749857Y-96651132D01*
X131751093Y-96648868D01*
X131750962Y-96647035D01*
X131746711Y-96640420D01*
X131497656Y-96391365D01*
X131483712Y-96383751D01*
X131481879Y-96383882D01*
X131475264Y-96388133D01*
X131226209Y-96637188D01*
X131218595Y-96651132D01*
X130499857Y-96651132D01*
X130501093Y-96648868D01*
X130500962Y-96647035D01*
X130496711Y-96640420D01*
X130191376Y-96335085D01*
X130157350Y-96272773D01*
X130162415Y-96201958D01*
X130189890Y-96159205D01*
X130192897Y-96156897D01*
X130207542Y-96137812D01*
X130216504Y-96126132D01*
X130693595Y-96126132D01*
X130693726Y-96127965D01*
X130697977Y-96134580D01*
X130847032Y-96283635D01*
X130860976Y-96291249D01*
X130862809Y-96291118D01*
X130869424Y-96286867D01*
X131018479Y-96137812D01*
X131024857Y-96126132D01*
X131943595Y-96126132D01*
X131943726Y-96127965D01*
X131947977Y-96134580D01*
X132097032Y-96283635D01*
X132110976Y-96291249D01*
X132112809Y-96291118D01*
X132119424Y-96286867D01*
X132268479Y-96137812D01*
X132274857Y-96126132D01*
X133193595Y-96126132D01*
X133193726Y-96127965D01*
X133197977Y-96134580D01*
X133347032Y-96283635D01*
X133360976Y-96291249D01*
X133362809Y-96291118D01*
X133369424Y-96286867D01*
X133518479Y-96137812D01*
X133526093Y-96123868D01*
X133525962Y-96122035D01*
X133521711Y-96115420D01*
X133372656Y-95966365D01*
X133358712Y-95958751D01*
X133356879Y-95958882D01*
X133350264Y-95963133D01*
X133201209Y-96112188D01*
X133193595Y-96126132D01*
X132274857Y-96126132D01*
X132276093Y-96123868D01*
X132275962Y-96122035D01*
X132271711Y-96115420D01*
X132122656Y-95966365D01*
X132108712Y-95958751D01*
X132106879Y-95958882D01*
X132100264Y-95963133D01*
X131951209Y-96112188D01*
X131943595Y-96126132D01*
X131024857Y-96126132D01*
X131026093Y-96123868D01*
X131025962Y-96122035D01*
X131021711Y-96115420D01*
X130872656Y-95966365D01*
X130858712Y-95958751D01*
X130856879Y-95958882D01*
X130850264Y-95963133D01*
X130701209Y-96112188D01*
X130693595Y-96126132D01*
X130216504Y-96126132D01*
X130277521Y-96046613D01*
X130282547Y-96040063D01*
X130338904Y-95904007D01*
X130354035Y-95789078D01*
X130382756Y-95724152D01*
X130389861Y-95716430D01*
X130493479Y-95612812D01*
X130499857Y-95601132D01*
X131218595Y-95601132D01*
X131218726Y-95602965D01*
X131222977Y-95609580D01*
X131472032Y-95858635D01*
X131485976Y-95866249D01*
X131487809Y-95866118D01*
X131494424Y-95861867D01*
X131743479Y-95612812D01*
X131749857Y-95601132D01*
X132468595Y-95601132D01*
X132468726Y-95602965D01*
X132472977Y-95609580D01*
X132722032Y-95858635D01*
X132735976Y-95866249D01*
X132737809Y-95866118D01*
X132744424Y-95861867D01*
X132993479Y-95612812D01*
X132999857Y-95601132D01*
X133718595Y-95601132D01*
X133718726Y-95602965D01*
X133722977Y-95609580D01*
X134032022Y-95918625D01*
X134044402Y-95925385D01*
X134048218Y-95922528D01*
X134096175Y-95796283D01*
X134099655Y-95782727D01*
X134121792Y-95625221D01*
X134122398Y-95617338D01*
X134122585Y-95603962D01*
X134122198Y-95596062D01*
X134104469Y-95438003D01*
X134101367Y-95424350D01*
X134050544Y-95278407D01*
X134044985Y-95273467D01*
X134035932Y-95277465D01*
X133726209Y-95587188D01*
X133718595Y-95601132D01*
X132999857Y-95601132D01*
X133001093Y-95598868D01*
X133000962Y-95597035D01*
X132996711Y-95590420D01*
X132747656Y-95341365D01*
X132733712Y-95333751D01*
X132731879Y-95333882D01*
X132725264Y-95338133D01*
X132476209Y-95587188D01*
X132468595Y-95601132D01*
X131749857Y-95601132D01*
X131751093Y-95598868D01*
X131750962Y-95597035D01*
X131746711Y-95590420D01*
X131497656Y-95341365D01*
X131483712Y-95333751D01*
X131481879Y-95333882D01*
X131475264Y-95338133D01*
X131226209Y-95587188D01*
X131218595Y-95601132D01*
X130499857Y-95601132D01*
X130501093Y-95598868D01*
X130500962Y-95597035D01*
X130496711Y-95590420D01*
X130186883Y-95280592D01*
X130172939Y-95272978D01*
X130145268Y-95274957D01*
X130134014Y-95279154D01*
X130077439Y-95266130D01*
X130076063Y-95269453D01*
X129947633Y-95216255D01*
X129947634Y-95216255D01*
X129940007Y-95213096D01*
X129931823Y-95212019D01*
X129931821Y-95212018D01*
X129802188Y-95194952D01*
X129794000Y-95193874D01*
X129785812Y-95194952D01*
X129656179Y-95212018D01*
X129656177Y-95212019D01*
X129647993Y-95213096D01*
X129511937Y-95269453D01*
X129395103Y-95359103D01*
X129305453Y-95475937D01*
X129249096Y-95611993D01*
X129248019Y-95620177D01*
X129248018Y-95620179D01*
X129235347Y-95716430D01*
X129229874Y-95758000D01*
X128580444Y-95758000D01*
X129060277Y-95076132D01*
X130693595Y-95076132D01*
X130693726Y-95077965D01*
X130697977Y-95084580D01*
X130847032Y-95233635D01*
X130860976Y-95241249D01*
X130862809Y-95241118D01*
X130869424Y-95236867D01*
X131018479Y-95087812D01*
X131024857Y-95076132D01*
X131943595Y-95076132D01*
X131943726Y-95077965D01*
X131947977Y-95084580D01*
X132097032Y-95233635D01*
X132110976Y-95241249D01*
X132112809Y-95241118D01*
X132119424Y-95236867D01*
X132268479Y-95087812D01*
X132274857Y-95076132D01*
X133193595Y-95076132D01*
X133193726Y-95077965D01*
X133197977Y-95084580D01*
X133347032Y-95233635D01*
X133360976Y-95241249D01*
X133362809Y-95241118D01*
X133369424Y-95236867D01*
X133518479Y-95087812D01*
X133526093Y-95073868D01*
X133525962Y-95072035D01*
X133521711Y-95065420D01*
X133372656Y-94916365D01*
X133358712Y-94908751D01*
X133356879Y-94908882D01*
X133350264Y-94913133D01*
X133201209Y-95062188D01*
X133193595Y-95076132D01*
X132274857Y-95076132D01*
X132276093Y-95073868D01*
X132275962Y-95072035D01*
X132271711Y-95065420D01*
X132122656Y-94916365D01*
X132108712Y-94908751D01*
X132106879Y-94908882D01*
X132100264Y-94913133D01*
X131951209Y-95062188D01*
X131943595Y-95076132D01*
X131024857Y-95076132D01*
X131026093Y-95073868D01*
X131025962Y-95072035D01*
X131021711Y-95065420D01*
X130872656Y-94916365D01*
X130858712Y-94908751D01*
X130856879Y-94908882D01*
X130850264Y-94913133D01*
X130701209Y-95062188D01*
X130693595Y-95076132D01*
X129060277Y-95076132D01*
X129433078Y-94546362D01*
X130097810Y-94546362D01*
X130113030Y-94701585D01*
X130115941Y-94715280D01*
X130165171Y-94863270D01*
X130167573Y-94868468D01*
X130175561Y-94875772D01*
X130184182Y-94872109D01*
X130493479Y-94562812D01*
X130499857Y-94551132D01*
X131218595Y-94551132D01*
X131218726Y-94552965D01*
X131222977Y-94559580D01*
X131472032Y-94808635D01*
X131485976Y-94816249D01*
X131487809Y-94816118D01*
X131494424Y-94811867D01*
X131743479Y-94562812D01*
X131749857Y-94551132D01*
X132468595Y-94551132D01*
X132468726Y-94552965D01*
X132472977Y-94559580D01*
X132722032Y-94808635D01*
X132735976Y-94816249D01*
X132737809Y-94816118D01*
X132744424Y-94811867D01*
X132993479Y-94562812D01*
X132999857Y-94551132D01*
X133718595Y-94551132D01*
X133718726Y-94552965D01*
X133722977Y-94559580D01*
X134032022Y-94868625D01*
X134044402Y-94875385D01*
X134048218Y-94872528D01*
X134096175Y-94746283D01*
X134099655Y-94732727D01*
X134121792Y-94575221D01*
X134122398Y-94567338D01*
X134122585Y-94553962D01*
X134122198Y-94546062D01*
X134104469Y-94388003D01*
X134101367Y-94374350D01*
X134050544Y-94228407D01*
X134044985Y-94223467D01*
X134035932Y-94227465D01*
X133726209Y-94537188D01*
X133718595Y-94551132D01*
X132999857Y-94551132D01*
X133001093Y-94548868D01*
X133000962Y-94547035D01*
X132996711Y-94540420D01*
X132747656Y-94291365D01*
X132733712Y-94283751D01*
X132731879Y-94283882D01*
X132725264Y-94288133D01*
X132476209Y-94537188D01*
X132468595Y-94551132D01*
X131749857Y-94551132D01*
X131751093Y-94548868D01*
X131750962Y-94547035D01*
X131746711Y-94540420D01*
X131497656Y-94291365D01*
X131483712Y-94283751D01*
X131481879Y-94283882D01*
X131475264Y-94288133D01*
X131226209Y-94537188D01*
X131218595Y-94551132D01*
X130499857Y-94551132D01*
X130501093Y-94548868D01*
X130500962Y-94547035D01*
X130496711Y-94540420D01*
X130186883Y-94230592D01*
X130174503Y-94223832D01*
X130170881Y-94226543D01*
X130120845Y-94364016D01*
X130117553Y-94377625D01*
X130098006Y-94532356D01*
X130097810Y-94546362D01*
X129433078Y-94546362D01*
X129912343Y-93865302D01*
X130533704Y-93865302D01*
X130537528Y-93874131D01*
X130847032Y-94183635D01*
X130860976Y-94191249D01*
X130862809Y-94191118D01*
X130869424Y-94186867D01*
X131179691Y-93876600D01*
X131185860Y-93865302D01*
X131783704Y-93865302D01*
X131787528Y-93874131D01*
X132097032Y-94183635D01*
X132110976Y-94191249D01*
X132112809Y-94191118D01*
X132119424Y-94186867D01*
X132429691Y-93876600D01*
X132435860Y-93865302D01*
X133033704Y-93865302D01*
X133037528Y-93874131D01*
X133347032Y-94183635D01*
X133360976Y-94191249D01*
X133362809Y-94191118D01*
X133369424Y-94186867D01*
X133679691Y-93876600D01*
X133686451Y-93864220D01*
X133683866Y-93860766D01*
X133683566Y-93860606D01*
X133540664Y-93809720D01*
X133527039Y-93806524D01*
X133372162Y-93788057D01*
X133358165Y-93787959D01*
X133203051Y-93804262D01*
X133189377Y-93807268D01*
X133041728Y-93857532D01*
X133039957Y-93858366D01*
X133033704Y-93865302D01*
X132435860Y-93865302D01*
X132436451Y-93864220D01*
X132433866Y-93860766D01*
X132433566Y-93860606D01*
X132290664Y-93809720D01*
X132277039Y-93806524D01*
X132122162Y-93788057D01*
X132108165Y-93787959D01*
X131953051Y-93804262D01*
X131939377Y-93807268D01*
X131791728Y-93857532D01*
X131789957Y-93858366D01*
X131783704Y-93865302D01*
X131185860Y-93865302D01*
X131186451Y-93864220D01*
X131183866Y-93860766D01*
X131183566Y-93860606D01*
X131040664Y-93809720D01*
X131027039Y-93806524D01*
X130872162Y-93788057D01*
X130858165Y-93787959D01*
X130703051Y-93804262D01*
X130689377Y-93807268D01*
X130541728Y-93857532D01*
X130539957Y-93858366D01*
X130533704Y-93865302D01*
X129912343Y-93865302D01*
X132825216Y-89725956D01*
X132880777Y-89681757D01*
X132951414Y-89674614D01*
X133014699Y-89706793D01*
X133050540Y-89768078D01*
X133053182Y-89814914D01*
X133039874Y-89916000D01*
X133059096Y-90062007D01*
X133115453Y-90198063D01*
X133205103Y-90314897D01*
X133321937Y-90404547D01*
X133457993Y-90460904D01*
X133466177Y-90461981D01*
X133466179Y-90461982D01*
X133595812Y-90479048D01*
X133604000Y-90480126D01*
X133612188Y-90479048D01*
X133741821Y-90461982D01*
X133741823Y-90461981D01*
X133750007Y-90460904D01*
X133886063Y-90404547D01*
X134002897Y-90314897D01*
X134092547Y-90198063D01*
X134148904Y-90062007D01*
X134168126Y-89916000D01*
X134148904Y-89769993D01*
X134092547Y-89633937D01*
X134002897Y-89517103D01*
X133886063Y-89427453D01*
X133750007Y-89371096D01*
X133741823Y-89370019D01*
X133741821Y-89370018D01*
X133612188Y-89352952D01*
X133604000Y-89351874D01*
X133595812Y-89352952D01*
X133466179Y-89370018D01*
X133466177Y-89370019D01*
X133457993Y-89371096D01*
X133321937Y-89427453D01*
X133321064Y-89425345D01*
X133263588Y-89439289D01*
X133196496Y-89416070D01*
X133152608Y-89360263D01*
X133145859Y-89289588D01*
X133166538Y-89240920D01*
X135333855Y-86161048D01*
X135730074Y-85598000D01*
X137103874Y-85598000D01*
X137123096Y-85744007D01*
X137179453Y-85880063D01*
X137269103Y-85996897D01*
X137385937Y-86086547D01*
X137521993Y-86142904D01*
X137530177Y-86143981D01*
X137530179Y-86143982D01*
X137659812Y-86161048D01*
X137668000Y-86162126D01*
X137676188Y-86161048D01*
X137805821Y-86143982D01*
X137805823Y-86143981D01*
X137814007Y-86142904D01*
X137950063Y-86086547D01*
X138066897Y-85996897D01*
X138156547Y-85880063D01*
X138212904Y-85744007D01*
X138232126Y-85598000D01*
X138218424Y-85493923D01*
X138213982Y-85460179D01*
X138213981Y-85460177D01*
X138212904Y-85451993D01*
X138156547Y-85315937D01*
X138066897Y-85199103D01*
X138054984Y-85189962D01*
X138013117Y-85132626D01*
X138010578Y-85090000D01*
X144469874Y-85090000D01*
X144470952Y-85098188D01*
X144484238Y-85199103D01*
X144489096Y-85236007D01*
X144545453Y-85372063D01*
X144635103Y-85488897D01*
X144751937Y-85578547D01*
X144887993Y-85634904D01*
X144896177Y-85635981D01*
X144896179Y-85635982D01*
X145025812Y-85653048D01*
X145034000Y-85654126D01*
X145042188Y-85653048D01*
X145171821Y-85635982D01*
X145171823Y-85635981D01*
X145180007Y-85634904D01*
X145316063Y-85578547D01*
X145432897Y-85488897D01*
X145522547Y-85372063D01*
X145578904Y-85236007D01*
X145583763Y-85199103D01*
X145597048Y-85098188D01*
X145598126Y-85090000D01*
X145583909Y-84982007D01*
X145579982Y-84952179D01*
X145579981Y-84952177D01*
X145578904Y-84943993D01*
X145522547Y-84807937D01*
X145432897Y-84691103D01*
X145420984Y-84681962D01*
X145379117Y-84624626D01*
X145374895Y-84553755D01*
X145409658Y-84491851D01*
X145420981Y-84482041D01*
X145432897Y-84472897D01*
X145522547Y-84356063D01*
X145578904Y-84220007D01*
X145583763Y-84183103D01*
X145597048Y-84082188D01*
X145598126Y-84074000D01*
X145578904Y-83927993D01*
X145522547Y-83791937D01*
X145432897Y-83675103D01*
X145420984Y-83665962D01*
X145379117Y-83608626D01*
X145374895Y-83537755D01*
X145409658Y-83475851D01*
X145420981Y-83466041D01*
X145432897Y-83456897D01*
X145522547Y-83340063D01*
X145578904Y-83204007D01*
X145598126Y-83058000D01*
X145593568Y-83023381D01*
X145579982Y-82920179D01*
X145579981Y-82920177D01*
X145578904Y-82911993D01*
X145522547Y-82775937D01*
X145432897Y-82659103D01*
X145316063Y-82569453D01*
X145180007Y-82513096D01*
X145171823Y-82512019D01*
X145171821Y-82512018D01*
X145042188Y-82494952D01*
X145034000Y-82493874D01*
X145025812Y-82494952D01*
X144896179Y-82512018D01*
X144896177Y-82512019D01*
X144887993Y-82513096D01*
X144751937Y-82569453D01*
X144635103Y-82659103D01*
X144545453Y-82775937D01*
X144489096Y-82911993D01*
X144488019Y-82920177D01*
X144488018Y-82920179D01*
X144474432Y-83023381D01*
X144469874Y-83058000D01*
X144489096Y-83204007D01*
X144545453Y-83340063D01*
X144635103Y-83456897D01*
X144647016Y-83466038D01*
X144688883Y-83523374D01*
X144693105Y-83594245D01*
X144658342Y-83656149D01*
X144647019Y-83665959D01*
X144635103Y-83675103D01*
X144545453Y-83791937D01*
X144489096Y-83927993D01*
X144469874Y-84074000D01*
X144470952Y-84082188D01*
X144484238Y-84183103D01*
X144489096Y-84220007D01*
X144545453Y-84356063D01*
X144635103Y-84472897D01*
X144647016Y-84482038D01*
X144688883Y-84539374D01*
X144693105Y-84610245D01*
X144658342Y-84672149D01*
X144647019Y-84681959D01*
X144635103Y-84691103D01*
X144545453Y-84807937D01*
X144489096Y-84943993D01*
X144488019Y-84952177D01*
X144488018Y-84952179D01*
X144484091Y-84982007D01*
X144469874Y-85090000D01*
X138010578Y-85090000D01*
X138008895Y-85061755D01*
X138043658Y-84999851D01*
X138054981Y-84990041D01*
X138066897Y-84980897D01*
X138156547Y-84864063D01*
X138212904Y-84728007D01*
X138217763Y-84691103D01*
X138231048Y-84590188D01*
X138232126Y-84582000D01*
X138218424Y-84477922D01*
X138213982Y-84444179D01*
X138213981Y-84444177D01*
X138212904Y-84435993D01*
X138156547Y-84299937D01*
X138066897Y-84183103D01*
X137950063Y-84093453D01*
X137814007Y-84037096D01*
X137805823Y-84036019D01*
X137805821Y-84036018D01*
X137676188Y-84018952D01*
X137668000Y-84017874D01*
X137659812Y-84018952D01*
X137530179Y-84036018D01*
X137530177Y-84036019D01*
X137521993Y-84037096D01*
X137385937Y-84093453D01*
X137269103Y-84183103D01*
X137179453Y-84299937D01*
X137123096Y-84435993D01*
X137122019Y-84444177D01*
X137122018Y-84444179D01*
X137117576Y-84477922D01*
X137103874Y-84582000D01*
X137104952Y-84590188D01*
X137118238Y-84691103D01*
X137123096Y-84728007D01*
X137179453Y-84864063D01*
X137269103Y-84980897D01*
X137281016Y-84990038D01*
X137322883Y-85047374D01*
X137327105Y-85118245D01*
X137292342Y-85180149D01*
X137281019Y-85189959D01*
X137269103Y-85199103D01*
X137179453Y-85315937D01*
X137123096Y-85451993D01*
X137122019Y-85460177D01*
X137122018Y-85460179D01*
X137117576Y-85493923D01*
X137103874Y-85598000D01*
X135730074Y-85598000D01*
X137160000Y-83566000D01*
X137160000Y-83312000D01*
X137865874Y-83312000D01*
X137866952Y-83320188D01*
X137880238Y-83421103D01*
X137885096Y-83458007D01*
X137941453Y-83594063D01*
X138031103Y-83710897D01*
X138147937Y-83800547D01*
X138283993Y-83856904D01*
X138292177Y-83857981D01*
X138292179Y-83857982D01*
X138421812Y-83875048D01*
X138430000Y-83876126D01*
X138438188Y-83875048D01*
X138567821Y-83857982D01*
X138567823Y-83857981D01*
X138576007Y-83856904D01*
X138712063Y-83800547D01*
X138828897Y-83710897D01*
X138918547Y-83594063D01*
X138974904Y-83458007D01*
X138979763Y-83421103D01*
X138993048Y-83320188D01*
X138994126Y-83312000D01*
X139897874Y-83312000D01*
X139898952Y-83320188D01*
X139912238Y-83421103D01*
X139917096Y-83458007D01*
X139973453Y-83594063D01*
X140063103Y-83710897D01*
X140179937Y-83800547D01*
X140315993Y-83856904D01*
X140324177Y-83857981D01*
X140324179Y-83857982D01*
X140453812Y-83875048D01*
X140462000Y-83876126D01*
X140470188Y-83875048D01*
X140599821Y-83857982D01*
X140599823Y-83857981D01*
X140608007Y-83856904D01*
X140744063Y-83800547D01*
X140860897Y-83710897D01*
X140950547Y-83594063D01*
X141006904Y-83458007D01*
X141011763Y-83421103D01*
X141025048Y-83320188D01*
X141026126Y-83312000D01*
X141006904Y-83165993D01*
X140950547Y-83029937D01*
X140945519Y-83023384D01*
X140945517Y-83023381D01*
X140933488Y-83007704D01*
X140907887Y-82941484D01*
X140922152Y-82871935D01*
X140933488Y-82854296D01*
X140945517Y-82838619D01*
X140945519Y-82838616D01*
X140950547Y-82832063D01*
X140954114Y-82823453D01*
X141003745Y-82703633D01*
X141006904Y-82696007D01*
X141011763Y-82659103D01*
X141025048Y-82558188D01*
X141026126Y-82550000D01*
X141013508Y-82454154D01*
X141007982Y-82412179D01*
X141007981Y-82412177D01*
X141006904Y-82403993D01*
X140950547Y-82267937D01*
X140860897Y-82151103D01*
X140744063Y-82061453D01*
X140608007Y-82005096D01*
X140599823Y-82004019D01*
X140599821Y-82004018D01*
X140470188Y-81986952D01*
X140462000Y-81985874D01*
X140453812Y-81986952D01*
X140324179Y-82004018D01*
X140324177Y-82004019D01*
X140315993Y-82005096D01*
X140179937Y-82061453D01*
X140063103Y-82151103D01*
X139973453Y-82267937D01*
X139917096Y-82403993D01*
X139916019Y-82412177D01*
X139916018Y-82412179D01*
X139910492Y-82454154D01*
X139897874Y-82550000D01*
X139898952Y-82558188D01*
X139912238Y-82659103D01*
X139917096Y-82696007D01*
X139920255Y-82703633D01*
X139969887Y-82823453D01*
X139973453Y-82832063D01*
X139978481Y-82838616D01*
X139978483Y-82838619D01*
X139990512Y-82854296D01*
X140016113Y-82920516D01*
X140001848Y-82990065D01*
X139990512Y-83007704D01*
X139978483Y-83023381D01*
X139978481Y-83023384D01*
X139973453Y-83029937D01*
X139917096Y-83165993D01*
X139897874Y-83312000D01*
X138994126Y-83312000D01*
X138974904Y-83165993D01*
X138918547Y-83029937D01*
X138828897Y-82913103D01*
X138712063Y-82823453D01*
X138576007Y-82767096D01*
X138567823Y-82766019D01*
X138567821Y-82766018D01*
X138438188Y-82748952D01*
X138430000Y-82747874D01*
X138421812Y-82748952D01*
X138292179Y-82766018D01*
X138292177Y-82766019D01*
X138283993Y-82767096D01*
X138147937Y-82823453D01*
X138031103Y-82913103D01*
X137941453Y-83029937D01*
X137885096Y-83165993D01*
X137865874Y-83312000D01*
X137160000Y-83312000D01*
X137160000Y-81788000D01*
X145485874Y-81788000D01*
X145486952Y-81796188D01*
X145503172Y-81919389D01*
X145505096Y-81934007D01*
X145561453Y-82070063D01*
X145651103Y-82186897D01*
X145767937Y-82276547D01*
X145903993Y-82332904D01*
X145912177Y-82333981D01*
X145912179Y-82333982D01*
X146041812Y-82351048D01*
X146050000Y-82352126D01*
X146058188Y-82351048D01*
X146187821Y-82333982D01*
X146187823Y-82333981D01*
X146196007Y-82332904D01*
X146332063Y-82276547D01*
X146448897Y-82186897D01*
X146458038Y-82174984D01*
X146515374Y-82133117D01*
X146586245Y-82128895D01*
X146648149Y-82163658D01*
X146657959Y-82174981D01*
X146667103Y-82186897D01*
X146783937Y-82276547D01*
X146919993Y-82332904D01*
X146928177Y-82333981D01*
X146928179Y-82333982D01*
X147057812Y-82351048D01*
X147066000Y-82352126D01*
X147074188Y-82351048D01*
X147203821Y-82333982D01*
X147203823Y-82333981D01*
X147212007Y-82332904D01*
X147348063Y-82276547D01*
X147464897Y-82186897D01*
X147554547Y-82070063D01*
X147610904Y-81934007D01*
X147612829Y-81919389D01*
X147629048Y-81796188D01*
X147630126Y-81788000D01*
X147624331Y-81743979D01*
X147611982Y-81650179D01*
X147611981Y-81650177D01*
X147610904Y-81641993D01*
X147554547Y-81505937D01*
X147464897Y-81389103D01*
X147348063Y-81299453D01*
X147212007Y-81243096D01*
X147203823Y-81242019D01*
X147203821Y-81242018D01*
X147074188Y-81224952D01*
X147066000Y-81223874D01*
X146919993Y-81243096D01*
X146919689Y-81240789D01*
X146860726Y-81239385D01*
X146801930Y-81199591D01*
X146773982Y-81134327D01*
X146785755Y-81064313D01*
X146788163Y-81059777D01*
X146792547Y-81054063D01*
X146848904Y-80918007D01*
X146853785Y-80880937D01*
X146867048Y-80780188D01*
X146868126Y-80772000D01*
X146848904Y-80625993D01*
X146792547Y-80489937D01*
X146702897Y-80373103D01*
X146586063Y-80283453D01*
X146578440Y-80280295D01*
X146578434Y-80280292D01*
X146558831Y-80272172D01*
X146503551Y-80227623D01*
X146481131Y-80160259D01*
X146498690Y-80091468D01*
X146507082Y-80079069D01*
X146538547Y-80038063D01*
X146594904Y-79902007D01*
X146599022Y-79870733D01*
X146613048Y-79764188D01*
X146614126Y-79756000D01*
X146604725Y-79684594D01*
X146595982Y-79618179D01*
X146595981Y-79618177D01*
X146594904Y-79609993D01*
X146538547Y-79473937D01*
X146448897Y-79357103D01*
X146332063Y-79267453D01*
X146196007Y-79211096D01*
X146187823Y-79210019D01*
X146187821Y-79210018D01*
X146058188Y-79192952D01*
X146050000Y-79191874D01*
X146041812Y-79192952D01*
X145912179Y-79210018D01*
X145912177Y-79210019D01*
X145903993Y-79211096D01*
X145767937Y-79267453D01*
X145651103Y-79357103D01*
X145561453Y-79473937D01*
X145505096Y-79609993D01*
X145504019Y-79618177D01*
X145504018Y-79618179D01*
X145495275Y-79684594D01*
X145485874Y-79756000D01*
X145486952Y-79764188D01*
X145500979Y-79870733D01*
X145505096Y-79902007D01*
X145561453Y-80038063D01*
X145651103Y-80154897D01*
X145767937Y-80244547D01*
X145775560Y-80247705D01*
X145775566Y-80247708D01*
X145795169Y-80255828D01*
X145850449Y-80300377D01*
X145872869Y-80367741D01*
X145855310Y-80436532D01*
X145846918Y-80448931D01*
X145815453Y-80489937D01*
X145759096Y-80625993D01*
X145739874Y-80772000D01*
X145740952Y-80780188D01*
X145754216Y-80880937D01*
X145759096Y-80918007D01*
X145815453Y-81054063D01*
X145846913Y-81095062D01*
X145872512Y-81161281D01*
X145858247Y-81230829D01*
X145808646Y-81281625D01*
X145795169Y-81288172D01*
X145775566Y-81296292D01*
X145775560Y-81296295D01*
X145767937Y-81299453D01*
X145651103Y-81389103D01*
X145561453Y-81505937D01*
X145505096Y-81641993D01*
X145504019Y-81650177D01*
X145504018Y-81650179D01*
X145491669Y-81743979D01*
X145485874Y-81788000D01*
X137160000Y-81788000D01*
X137160000Y-79757336D01*
X137180002Y-79689215D01*
X137233658Y-79642722D01*
X137303932Y-79632618D01*
X137368512Y-79662112D01*
X137402409Y-79709117D01*
X137433453Y-79784063D01*
X137523103Y-79900897D01*
X137639937Y-79990547D01*
X137775993Y-80046904D01*
X137784177Y-80047981D01*
X137784179Y-80047982D01*
X137913812Y-80065048D01*
X137922000Y-80066126D01*
X137930188Y-80065048D01*
X138059821Y-80047982D01*
X138059823Y-80047981D01*
X138068007Y-80046904D01*
X138204063Y-79990547D01*
X138320897Y-79900897D01*
X138410547Y-79784063D01*
X138466904Y-79648007D01*
X138486126Y-79502000D01*
X138466904Y-79355993D01*
X138410547Y-79219937D01*
X138320897Y-79103103D01*
X138204063Y-79013453D01*
X138068007Y-78957096D01*
X138059823Y-78956019D01*
X138059821Y-78956018D01*
X138030586Y-78952169D01*
X137998608Y-78947960D01*
X137933682Y-78919238D01*
X137894590Y-78859973D01*
X137893745Y-78788982D01*
X137902555Y-78768066D01*
X137902547Y-78768063D01*
X137914171Y-78740000D01*
X143961874Y-78740000D01*
X143962952Y-78748188D01*
X143977669Y-78859973D01*
X143981096Y-78886007D01*
X144037453Y-79022063D01*
X144127103Y-79138897D01*
X144243937Y-79228547D01*
X144379993Y-79284904D01*
X144388177Y-79285981D01*
X144388179Y-79285982D01*
X144517812Y-79303048D01*
X144526000Y-79304126D01*
X144534188Y-79303048D01*
X144663821Y-79285982D01*
X144663823Y-79285981D01*
X144672007Y-79284904D01*
X144808063Y-79228547D01*
X144924897Y-79138897D01*
X145014547Y-79022063D01*
X145070904Y-78886007D01*
X145074332Y-78859973D01*
X145089048Y-78748188D01*
X145090126Y-78740000D01*
X145070904Y-78593993D01*
X145014547Y-78457937D01*
X144924897Y-78341103D01*
X144808063Y-78251453D01*
X144672007Y-78195096D01*
X144663823Y-78194019D01*
X144663821Y-78194018D01*
X144534188Y-78176952D01*
X144526000Y-78175874D01*
X144517812Y-78176952D01*
X144388179Y-78194018D01*
X144388177Y-78194019D01*
X144379993Y-78195096D01*
X144243937Y-78251453D01*
X144127103Y-78341103D01*
X144037453Y-78457937D01*
X143981096Y-78593993D01*
X143961874Y-78740000D01*
X137914171Y-78740000D01*
X137955745Y-78639633D01*
X137958904Y-78632007D01*
X137978126Y-78486000D01*
X137963863Y-78377659D01*
X137959982Y-78348179D01*
X137959981Y-78348177D01*
X137958904Y-78339993D01*
X137902547Y-78203937D01*
X137812897Y-78087103D01*
X137696063Y-77997453D01*
X137649100Y-77978000D01*
X138627874Y-77978000D01*
X138628952Y-77986188D01*
X138642835Y-78091638D01*
X138647096Y-78124007D01*
X138703453Y-78260063D01*
X138793103Y-78376897D01*
X138909937Y-78466547D01*
X139045993Y-78522904D01*
X139054177Y-78523981D01*
X139054179Y-78523982D01*
X139183812Y-78541048D01*
X139192000Y-78542126D01*
X139200188Y-78541048D01*
X139329821Y-78523982D01*
X139329823Y-78523981D01*
X139338007Y-78522904D01*
X139474063Y-78466547D01*
X139590897Y-78376897D01*
X139680547Y-78260063D01*
X139736904Y-78124007D01*
X139741166Y-78091638D01*
X139755048Y-77986188D01*
X139756126Y-77978000D01*
X142437874Y-77978000D01*
X142438952Y-77986188D01*
X142452835Y-78091638D01*
X142457096Y-78124007D01*
X142513453Y-78260063D01*
X142603103Y-78376897D01*
X142719937Y-78466547D01*
X142855993Y-78522904D01*
X142864177Y-78523981D01*
X142864179Y-78523982D01*
X142993812Y-78541048D01*
X143002000Y-78542126D01*
X143010188Y-78541048D01*
X143139821Y-78523982D01*
X143139823Y-78523981D01*
X143148007Y-78522904D01*
X143284063Y-78466547D01*
X143400897Y-78376897D01*
X143490547Y-78260063D01*
X143546904Y-78124007D01*
X143551166Y-78091638D01*
X143565048Y-77986188D01*
X143566126Y-77978000D01*
X143546904Y-77831993D01*
X143502171Y-77724000D01*
X145485874Y-77724000D01*
X145486952Y-77732188D01*
X145497412Y-77811638D01*
X145505096Y-77870007D01*
X145561453Y-78006063D01*
X145651103Y-78122897D01*
X145767937Y-78212547D01*
X145903993Y-78268904D01*
X145912177Y-78269981D01*
X145912179Y-78269982D01*
X146041812Y-78287048D01*
X146050000Y-78288126D01*
X146058188Y-78287048D01*
X146187821Y-78269982D01*
X146187823Y-78269981D01*
X146196007Y-78268904D01*
X146332063Y-78212547D01*
X146448897Y-78122897D01*
X146538547Y-78006063D01*
X146594904Y-77870007D01*
X146602589Y-77811638D01*
X146613048Y-77732188D01*
X146614126Y-77724000D01*
X146594904Y-77577993D01*
X146538547Y-77441937D01*
X146448897Y-77325103D01*
X146332063Y-77235453D01*
X146333129Y-77234064D01*
X146291029Y-77189906D01*
X146277597Y-77120192D01*
X146303988Y-77054282D01*
X146361822Y-77013104D01*
X146386578Y-77007255D01*
X146411109Y-77004025D01*
X146441821Y-76999982D01*
X146441823Y-76999981D01*
X146450007Y-76998904D01*
X146586063Y-76942547D01*
X146702897Y-76852897D01*
X146792547Y-76736063D01*
X146848904Y-76600007D01*
X146868126Y-76454000D01*
X146848904Y-76307993D01*
X146792547Y-76171937D01*
X146702897Y-76055103D01*
X146586063Y-75965453D01*
X146450007Y-75909096D01*
X146441823Y-75908019D01*
X146441821Y-75908018D01*
X146312188Y-75890952D01*
X146304000Y-75889874D01*
X146295812Y-75890952D01*
X146166179Y-75908018D01*
X146166177Y-75908019D01*
X146157993Y-75909096D01*
X146021937Y-75965453D01*
X145905103Y-76055103D01*
X145815453Y-76171937D01*
X145759096Y-76307993D01*
X145739874Y-76454000D01*
X145759096Y-76600007D01*
X145815453Y-76736063D01*
X145905103Y-76852897D01*
X145911653Y-76857923D01*
X146021937Y-76942547D01*
X146020871Y-76943936D01*
X146062971Y-76988094D01*
X146076403Y-77057808D01*
X146050012Y-77123718D01*
X145992178Y-77164896D01*
X145967422Y-77170745D01*
X145942891Y-77173975D01*
X145912179Y-77178018D01*
X145912177Y-77178019D01*
X145903993Y-77179096D01*
X145767937Y-77235453D01*
X145651103Y-77325103D01*
X145561453Y-77441937D01*
X145505096Y-77577993D01*
X145485874Y-77724000D01*
X143502171Y-77724000D01*
X143490547Y-77695937D01*
X143400897Y-77579103D01*
X143284063Y-77489453D01*
X143148007Y-77433096D01*
X143139823Y-77432019D01*
X143139821Y-77432018D01*
X143010188Y-77414952D01*
X143002000Y-77413874D01*
X142993812Y-77414952D01*
X142864179Y-77432018D01*
X142864177Y-77432019D01*
X142855993Y-77433096D01*
X142719937Y-77489453D01*
X142603103Y-77579103D01*
X142513453Y-77695937D01*
X142457096Y-77831993D01*
X142437874Y-77978000D01*
X139756126Y-77978000D01*
X139736904Y-77831993D01*
X139680547Y-77695937D01*
X139590897Y-77579103D01*
X139474063Y-77489453D01*
X139338007Y-77433096D01*
X139329823Y-77432019D01*
X139329821Y-77432018D01*
X139200188Y-77414952D01*
X139192000Y-77413874D01*
X139183812Y-77414952D01*
X139054179Y-77432018D01*
X139054177Y-77432019D01*
X139045993Y-77433096D01*
X138909937Y-77489453D01*
X138793103Y-77579103D01*
X138703453Y-77695937D01*
X138647096Y-77831993D01*
X138627874Y-77978000D01*
X137649100Y-77978000D01*
X137560007Y-77941096D01*
X137551823Y-77940019D01*
X137551821Y-77940018D01*
X137422188Y-77922952D01*
X137414000Y-77921874D01*
X137405812Y-77922952D01*
X137302446Y-77936560D01*
X137232297Y-77925620D01*
X137179199Y-77878492D01*
X137160000Y-77811638D01*
X137160000Y-73468682D01*
X137180002Y-73400561D01*
X137233658Y-73354068D01*
X137303932Y-73343964D01*
X137362703Y-73368719D01*
X137385937Y-73386547D01*
X137521993Y-73442904D01*
X137530177Y-73443981D01*
X137530179Y-73443982D01*
X137659812Y-73461048D01*
X137668000Y-73462126D01*
X137676188Y-73461048D01*
X137805821Y-73443982D01*
X137805823Y-73443981D01*
X137814007Y-73442904D01*
X137950063Y-73386547D01*
X138066897Y-73296897D01*
X138156547Y-73180063D01*
X138212904Y-73044007D01*
X138232126Y-72898000D01*
X138212904Y-72751993D01*
X138156547Y-72615937D01*
X138066897Y-72499103D01*
X137950063Y-72409453D01*
X137891246Y-72385090D01*
X139239584Y-72385090D01*
X139243095Y-72389780D01*
X139362216Y-72442816D01*
X139374704Y-72446873D01*
X139538208Y-72481628D01*
X139551268Y-72483000D01*
X139718420Y-72483000D01*
X139731480Y-72481628D01*
X139894984Y-72446873D01*
X139907472Y-72442816D01*
X140019607Y-72392890D01*
X140028784Y-72385090D01*
X145189584Y-72385090D01*
X145193095Y-72389780D01*
X145312216Y-72442816D01*
X145324704Y-72446873D01*
X145488208Y-72481628D01*
X145501268Y-72483000D01*
X145668420Y-72483000D01*
X145681480Y-72481628D01*
X145844984Y-72446873D01*
X145857472Y-72442816D01*
X145969607Y-72392890D01*
X145980351Y-72383758D01*
X145978754Y-72378120D01*
X145597656Y-71997022D01*
X145583712Y-71989408D01*
X145581879Y-71989539D01*
X145575264Y-71993790D01*
X145381136Y-72187918D01*
X145323832Y-72219209D01*
X145310427Y-72256500D01*
X145297762Y-72271292D01*
X145196344Y-72372710D01*
X145189584Y-72385090D01*
X140028784Y-72385090D01*
X140030351Y-72383758D01*
X140028754Y-72378120D01*
X139921926Y-72271292D01*
X139890635Y-72213988D01*
X139853344Y-72200583D01*
X139838552Y-72187918D01*
X139647656Y-71997022D01*
X139633712Y-71989408D01*
X139631879Y-71989539D01*
X139625264Y-71993790D01*
X139246344Y-72372710D01*
X139239584Y-72385090D01*
X137891246Y-72385090D01*
X137814007Y-72353096D01*
X137805823Y-72352019D01*
X137805821Y-72352018D01*
X137676188Y-72334952D01*
X137668000Y-72333874D01*
X137659812Y-72334952D01*
X137530179Y-72352018D01*
X137530177Y-72352019D01*
X137521993Y-72353096D01*
X137385937Y-72409453D01*
X137379387Y-72414479D01*
X137362703Y-72427281D01*
X137296483Y-72452881D01*
X137226934Y-72438616D01*
X137176138Y-72389014D01*
X137160000Y-72327318D01*
X137160000Y-69722000D01*
X137180002Y-69653879D01*
X137233658Y-69607386D01*
X137286000Y-69596000D01*
X137469919Y-69596000D01*
X137538040Y-69616002D01*
G37*
%TD.AperFunction*%
%TD*%
M02*
