%TF.GenerationSoftware,KiCad,Pcbnew,(6.0.8)*%
%TF.CreationDate,2023-11-01T21:59:58-07:00*%
%TF.ProjectId,OS3M_Mouse,4f53334d-5f4d-46f7-9573-652e6b696361,rev?*%
%TF.SameCoordinates,Original*%
%TF.FileFunction,Legend,Bot*%
%TF.FilePolarity,Positive*%
%FSLAX46Y46*%
G04 Gerber Fmt 4.6, Leading zero omitted, Abs format (unit mm)*
G04 Created by KiCad (PCBNEW (6.0.8)) date 2023-11-01 21:59:58*
%MOMM*%
%LPD*%
G01*
G04 APERTURE LIST*
G04 Aperture macros list*
%AMHorizOval*
0 Thick line with rounded ends*
0 $1 width*
0 $2 $3 position (X,Y) of the first rounded end (center of the circle)*
0 $4 $5 position (X,Y) of the second rounded end (center of the circle)*
0 Add line between two ends*
20,1,$1,$2,$3,$4,$5,0*
0 Add two circle primitives to create the rounded ends*
1,1,$1,$2,$3*
1,1,$1,$4,$5*%
%AMRotRect*
0 Rectangle, with rotation*
0 The origin of the aperture is its center*
0 $1 length*
0 $2 width*
0 $3 Rotation angle, in degrees counterclockwise*
0 Add horizontal line*
21,1,$1,$2,0,0,$3*%
G04 Aperture macros list end*
%ADD10C,0.600000*%
%ADD11C,0.150000*%
%ADD12RotRect,1.700000X1.700000X170.000000*%
%ADD13HorizOval,1.700000X0.000000X0.000000X0.000000X0.000000X0*%
%ADD14C,0.700000*%
%ADD15RotRect,1.700000X1.700000X330.000000*%
%ADD16HorizOval,1.700000X0.000000X0.000000X0.000000X0.000000X0*%
%ADD17O,0.900000X1.700000*%
%ADD18O,0.900000X2.400000*%
G04 APERTURE END LIST*
D10*
X125765775Y-103505791D02*
G75*
G03*
X125729235Y-103461606I-44875J91D01*
G01*
X124570074Y-105290658D02*
G75*
G03*
X124574368Y-105333091I41426J-17242D01*
G01*
X119699852Y-103273346D02*
X119989923Y-102573054D01*
X125051491Y-101825388D02*
X124574368Y-102530617D01*
X121648450Y-101318662D02*
X121809746Y-100482613D01*
X124443496Y-101165808D02*
X125046039Y-101768352D01*
X119985635Y-105333102D02*
G75*
G03*
X119989923Y-105290654I-37235J25202D01*
G01*
X124574368Y-105333091D02*
X125051491Y-106038320D01*
X124570065Y-102573054D02*
X124860135Y-103273346D01*
X125046072Y-106095390D02*
G75*
G03*
X125051491Y-106038320I-31572J31790D01*
G01*
X120116492Y-106697900D02*
X119513948Y-106095356D01*
X121621506Y-101351760D02*
G75*
G03*
X121648450Y-101318662I-17006J41360D01*
G01*
X120173527Y-101160357D02*
X120878757Y-101637480D01*
X124860102Y-103273360D02*
G75*
G03*
X124893185Y-103300310I41498J17160D01*
G01*
X122691722Y-104826397D02*
G75*
G03*
X121868266Y-104826397I-411728J894543D01*
G01*
X120116492Y-106697900D02*
G75*
G03*
X120173527Y-106703351I31808J31700D01*
G01*
X121853931Y-100446155D02*
G75*
G03*
X121809746Y-100482613I-131J-44845D01*
G01*
X119513970Y-101768374D02*
G75*
G03*
X119508497Y-101825388I31830J-31826D01*
G01*
X121241857Y-106354761D02*
G75*
G03*
X121300744Y-106330186I17143J41761D01*
G01*
X118830763Y-103461659D02*
G75*
G03*
X118794277Y-103505791I8337J-44041D01*
G01*
X121891112Y-104884285D02*
X121300744Y-106330186D01*
X120173501Y-101160396D02*
G75*
G03*
X120116492Y-101165808I-25201J-37504D01*
G01*
X123259250Y-106330183D02*
G75*
G03*
X123318125Y-106354750I41650J16983D01*
G01*
X125765710Y-103505791D02*
X125765710Y-104357917D01*
X123681230Y-101637480D02*
X124386460Y-101160357D01*
X120878757Y-106226228D02*
X120173527Y-106703351D01*
X120921194Y-101641783D02*
X121621486Y-101351713D01*
X119508482Y-106038310D02*
G75*
G03*
X119513948Y-106095356I37518J-25190D01*
G01*
X123681233Y-106226223D02*
G75*
G03*
X123638794Y-106221925I-25233J-37477D01*
G01*
X119989923Y-105290654D02*
X119699852Y-104590362D01*
X121853931Y-100446137D02*
X122706056Y-100446137D01*
X120878760Y-101637475D02*
G75*
G03*
X120921194Y-101641783I25240J37475D01*
G01*
X119985619Y-102530617D02*
X119508497Y-101825388D01*
X124893185Y-103300310D02*
X125729235Y-103461606D01*
X118794277Y-104357917D02*
X118794277Y-103505791D01*
X124893174Y-104563343D02*
G75*
G03*
X124860135Y-104590362I8626J-44257D01*
G01*
X125046039Y-106095356D02*
X124443496Y-106697900D01*
X124860135Y-104590362D02*
X124570065Y-105290654D01*
X125729235Y-104402102D02*
X124893185Y-104563398D01*
X125051488Y-101825386D02*
G75*
G03*
X125046039Y-101768352I-37588J25186D01*
G01*
X122691722Y-104826396D02*
G75*
G03*
X122668875Y-104884285I18878J-40904D01*
G01*
X124443506Y-101165798D02*
G75*
G03*
X124386460Y-101160357I-31806J-31702D01*
G01*
X122750242Y-100482613D02*
X122911537Y-101318662D01*
X119666802Y-104563398D02*
X118830753Y-104402102D01*
X125729246Y-104402156D02*
G75*
G03*
X125765710Y-104357917I-8746J44356D01*
G01*
X123259243Y-106330186D02*
X122668875Y-104884285D01*
X121891140Y-104884296D02*
G75*
G03*
X121868266Y-104826397I-41440J17096D01*
G01*
X123638794Y-106221925D02*
X123318125Y-106354750D01*
X118830753Y-103461606D02*
X119666802Y-103300310D01*
X122911555Y-101318658D02*
G75*
G03*
X122938502Y-101351713I44245J8558D01*
G01*
X119989916Y-102573051D02*
G75*
G03*
X119985619Y-102530617I-41316J17251D01*
G01*
X123638807Y-101641751D02*
G75*
G03*
X123681230Y-101637480I17293J41051D01*
G01*
X119699821Y-104590375D02*
G75*
G03*
X119666802Y-104563398I-41521J-17125D01*
G01*
X118794262Y-104357917D02*
G75*
G03*
X118830753Y-104402102I45138J117D01*
G01*
X121241862Y-106354750D02*
X120921194Y-106221925D01*
X122750254Y-100482611D02*
G75*
G03*
X122706056Y-100446137I-44154J-8489D01*
G01*
X119513948Y-101768352D02*
X120116492Y-101165808D01*
X124574384Y-102530628D02*
G75*
G03*
X124570065Y-102573054I37716J-25272D01*
G01*
X119666810Y-103300351D02*
G75*
G03*
X119699852Y-103273346I-8610J44251D01*
G01*
X122938502Y-101351713D02*
X123638794Y-101641783D01*
X119508497Y-106038320D02*
X119985619Y-105333091D01*
X120921182Y-106221953D02*
G75*
G03*
X120878757Y-106226228I-17282J-41147D01*
G01*
X124386432Y-106703393D02*
G75*
G03*
X124443496Y-106697900I25168J37693D01*
G01*
X124386460Y-106703351D02*
X123681230Y-106226228D01*
D11*
X158979904Y-113942761D02*
X158837047Y-113990380D01*
X158598952Y-113990380D01*
X158503714Y-113942761D01*
X158456095Y-113895142D01*
X158408476Y-113799904D01*
X158408476Y-113704666D01*
X158456095Y-113609428D01*
X158503714Y-113561809D01*
X158598952Y-113514190D01*
X158789428Y-113466571D01*
X158884666Y-113418952D01*
X158932285Y-113371333D01*
X158979904Y-113276095D01*
X158979904Y-113180857D01*
X158932285Y-113085619D01*
X158884666Y-113038000D01*
X158789428Y-112990380D01*
X158551333Y-112990380D01*
X158408476Y-113038000D01*
X158075142Y-112990380D02*
X157837047Y-113990380D01*
X157646571Y-113276095D01*
X157456095Y-113990380D01*
X157218000Y-112990380D01*
X156265619Y-113895142D02*
X156313238Y-113942761D01*
X156456095Y-113990380D01*
X156551333Y-113990380D01*
X156694190Y-113942761D01*
X156789428Y-113847523D01*
X156837047Y-113752285D01*
X156884666Y-113561809D01*
X156884666Y-113418952D01*
X156837047Y-113228476D01*
X156789428Y-113133238D01*
X156694190Y-113038000D01*
X156551333Y-112990380D01*
X156456095Y-112990380D01*
X156313238Y-113038000D01*
X156265619Y-113085619D01*
X155360857Y-113990380D02*
X155837047Y-113990380D01*
X155837047Y-112990380D01*
X155027523Y-113990380D02*
X155027523Y-112990380D01*
X154456095Y-113990380D02*
X154884666Y-113418952D01*
X154456095Y-112990380D02*
X155027523Y-113561809D01*
X164306095Y-104100380D02*
X163687047Y-104100380D01*
X164020380Y-104481333D01*
X163877523Y-104481333D01*
X163782285Y-104528952D01*
X163734666Y-104576571D01*
X163687047Y-104671809D01*
X163687047Y-104909904D01*
X163734666Y-105005142D01*
X163782285Y-105052761D01*
X163877523Y-105100380D01*
X164163238Y-105100380D01*
X164258476Y-105052761D01*
X164306095Y-105005142D01*
X163401333Y-104100380D02*
X163068000Y-105100380D01*
X162734666Y-104100380D01*
X162496571Y-104100380D02*
X161877523Y-104100380D01*
X162210857Y-104481333D01*
X162068000Y-104481333D01*
X161972761Y-104528952D01*
X161925142Y-104576571D01*
X161877523Y-104671809D01*
X161877523Y-104909904D01*
X161925142Y-105005142D01*
X161972761Y-105052761D01*
X162068000Y-105100380D01*
X162353714Y-105100380D01*
X162448952Y-105052761D01*
X162496571Y-105005142D01*
X161448380Y-108418380D02*
X161448380Y-109227904D01*
X161400761Y-109323142D01*
X161353142Y-109370761D01*
X161257904Y-109418380D01*
X161067428Y-109418380D01*
X160972190Y-109370761D01*
X160924571Y-109323142D01*
X160876952Y-109227904D01*
X160876952Y-108418380D01*
X160448380Y-109132666D02*
X159972190Y-109132666D01*
X160543619Y-109418380D02*
X160210285Y-108418380D01*
X159876952Y-109418380D01*
X158972190Y-109418380D02*
X159305523Y-108942190D01*
X159543619Y-109418380D02*
X159543619Y-108418380D01*
X159162666Y-108418380D01*
X159067428Y-108466000D01*
X159019809Y-108513619D01*
X158972190Y-108608857D01*
X158972190Y-108751714D01*
X159019809Y-108846952D01*
X159067428Y-108894571D01*
X159162666Y-108942190D01*
X159543619Y-108942190D01*
X158686476Y-108418380D02*
X158115047Y-108418380D01*
X158400761Y-109418380D02*
X158400761Y-108418380D01*
X158019809Y-109513619D02*
X157257904Y-109513619D01*
X156448380Y-109418380D02*
X156781714Y-108942190D01*
X157019809Y-109418380D02*
X157019809Y-108418380D01*
X156638857Y-108418380D01*
X156543619Y-108466000D01*
X156496000Y-108513619D01*
X156448380Y-108608857D01*
X156448380Y-108751714D01*
X156496000Y-108846952D01*
X156543619Y-108894571D01*
X156638857Y-108942190D01*
X157019809Y-108942190D01*
X156115047Y-108418380D02*
X155448380Y-109418380D01*
X155448380Y-108418380D02*
X156115047Y-109418380D01*
X160107047Y-111656761D02*
X159964190Y-111704380D01*
X159726095Y-111704380D01*
X159630857Y-111656761D01*
X159583238Y-111609142D01*
X159535619Y-111513904D01*
X159535619Y-111418666D01*
X159583238Y-111323428D01*
X159630857Y-111275809D01*
X159726095Y-111228190D01*
X159916571Y-111180571D01*
X160011809Y-111132952D01*
X160059428Y-111085333D01*
X160107047Y-110990095D01*
X160107047Y-110894857D01*
X160059428Y-110799619D01*
X160011809Y-110752000D01*
X159916571Y-110704380D01*
X159678476Y-110704380D01*
X159535619Y-110752000D01*
X159202285Y-110704380D02*
X158964190Y-111704380D01*
X158773714Y-110990095D01*
X158583238Y-111704380D01*
X158345142Y-110704380D01*
X157964190Y-111704380D02*
X157964190Y-110704380D01*
X157726095Y-110704380D01*
X157583238Y-110752000D01*
X157488000Y-110847238D01*
X157440380Y-110942476D01*
X157392761Y-111132952D01*
X157392761Y-111275809D01*
X157440380Y-111466285D01*
X157488000Y-111561523D01*
X157583238Y-111656761D01*
X157726095Y-111704380D01*
X157964190Y-111704380D01*
X156964190Y-111704380D02*
X156964190Y-110704380D01*
X156297523Y-110704380D02*
X156107047Y-110704380D01*
X156011809Y-110752000D01*
X155916571Y-110847238D01*
X155868952Y-111037714D01*
X155868952Y-111371047D01*
X155916571Y-111561523D01*
X156011809Y-111656761D01*
X156107047Y-111704380D01*
X156297523Y-111704380D01*
X156392761Y-111656761D01*
X156488000Y-111561523D01*
X156535619Y-111371047D01*
X156535619Y-111037714D01*
X156488000Y-110847238D01*
X156392761Y-110752000D01*
X156297523Y-110704380D01*
X162853333Y-106386380D02*
X162853333Y-107195904D01*
X162805714Y-107291142D01*
X162758095Y-107338761D01*
X162662857Y-107386380D01*
X162472380Y-107386380D01*
X162377142Y-107338761D01*
X162329523Y-107291142D01*
X162281904Y-107195904D01*
X162281904Y-106386380D01*
X161853333Y-107100666D02*
X161377142Y-107100666D01*
X161948571Y-107386380D02*
X161615238Y-106386380D01*
X161281904Y-107386380D01*
X160377142Y-107386380D02*
X160710476Y-106910190D01*
X160948571Y-107386380D02*
X160948571Y-106386380D01*
X160567619Y-106386380D01*
X160472380Y-106434000D01*
X160424761Y-106481619D01*
X160377142Y-106576857D01*
X160377142Y-106719714D01*
X160424761Y-106814952D01*
X160472380Y-106862571D01*
X160567619Y-106910190D01*
X160948571Y-106910190D01*
X160091428Y-106386380D02*
X159520000Y-106386380D01*
X159805714Y-107386380D02*
X159805714Y-106386380D01*
X159424761Y-107481619D02*
X158662857Y-107481619D01*
X158567619Y-106386380D02*
X157996190Y-106386380D01*
X158281904Y-107386380D02*
X158281904Y-106386380D01*
X157758095Y-106386380D02*
X157091428Y-107386380D01*
X157091428Y-106386380D02*
X157758095Y-107386380D01*
X164845904Y-101862000D02*
X164941142Y-101814380D01*
X165084000Y-101814380D01*
X165226857Y-101862000D01*
X165322095Y-101957238D01*
X165369714Y-102052476D01*
X165417333Y-102242952D01*
X165417333Y-102385809D01*
X165369714Y-102576285D01*
X165322095Y-102671523D01*
X165226857Y-102766761D01*
X165084000Y-102814380D01*
X164988761Y-102814380D01*
X164845904Y-102766761D01*
X164798285Y-102719142D01*
X164798285Y-102385809D01*
X164988761Y-102385809D01*
X164369714Y-102814380D02*
X164369714Y-101814380D01*
X163798285Y-102814380D01*
X163798285Y-101814380D01*
X163322095Y-102814380D02*
X163322095Y-101814380D01*
X163084000Y-101814380D01*
X162941142Y-101862000D01*
X162845904Y-101957238D01*
X162798285Y-102052476D01*
X162750666Y-102242952D01*
X162750666Y-102385809D01*
X162798285Y-102576285D01*
X162845904Y-102671523D01*
X162941142Y-102766761D01*
X163084000Y-102814380D01*
X163322095Y-102814380D01*
%LPC*%
D12*
%TO.C,J3*%
X156464000Y-100838000D03*
D13*
X158965412Y-101279066D03*
X156905066Y-98336588D03*
X159406478Y-98777655D03*
%TD*%
D14*
%TO.C,L1*%
X160809844Y-91070000D03*
X156534844Y-90570000D03*
%TD*%
%TO.C,L2*%
X156709844Y-86805000D03*
X157209844Y-82530000D03*
%TD*%
%TO.C,L3*%
X136359844Y-108925000D03*
X135859844Y-113200000D03*
%TD*%
%TO.C,L5*%
X127509844Y-86805000D03*
X128009844Y-82530000D03*
%TD*%
%TO.C,L4*%
X149359844Y-113200000D03*
X149859844Y-108925000D03*
%TD*%
D15*
%TO.C,J1*%
X167005000Y-102450739D03*
D16*
X165735000Y-104650444D03*
X164465000Y-106850148D03*
X163195000Y-109049853D03*
X161925000Y-111249557D03*
X160655000Y-113449262D03*
%TD*%
D14*
%TO.C,J2*%
X145584844Y-71625000D03*
X144734844Y-71625000D03*
X143884844Y-71625000D03*
X143034844Y-71625000D03*
X142184844Y-71625000D03*
X141334844Y-71625000D03*
X140484844Y-71625000D03*
X139634844Y-71625000D03*
X139634844Y-70275000D03*
X140484844Y-70275000D03*
X141334844Y-70275000D03*
X142184844Y-70275000D03*
X143034844Y-70275000D03*
X143884844Y-70275000D03*
X144734844Y-70275000D03*
X145584844Y-70275000D03*
D17*
X138284844Y-67265000D03*
D18*
X146934844Y-70645000D03*
X138284844Y-70645000D03*
D17*
X146934844Y-67265000D03*
%TD*%
D14*
%TO.C,L6*%
X128684844Y-91570000D03*
X124409844Y-91070000D03*
%TD*%
M02*
