%TF.GenerationSoftware,KiCad,Pcbnew,(6.0.8)*%
%TF.CreationDate,2023-12-19T18:45:34-08:00*%
%TF.ProjectId,OS3M_Mouse,4f53334d-5f4d-46f7-9573-652e6b696361,rev?*%
%TF.SameCoordinates,Original*%
%TF.FileFunction,Profile,NP*%
%FSLAX46Y46*%
G04 Gerber Fmt 4.6, Leading zero omitted, Abs format (unit mm)*
G04 Created by KiCad (PCBNEW (6.0.8)) date 2023-12-19 18:45:34*
%MOMM*%
%LPD*%
G01*
G04 APERTURE LIST*
%TA.AperFunction,Profile*%
%ADD10C,0.250000*%
%TD*%
G04 APERTURE END LIST*
D10*
X116008579Y-82104946D02*
X116302018Y-82166219D01*
X148385365Y-102759858D02*
G75*
G03*
X148991459Y-101840743I-393765J919058D01*
G01*
X128343506Y-69306941D02*
G75*
G03*
X127177025Y-69427462I-500006J-865859D01*
G01*
X126972561Y-118935384D02*
G75*
G03*
X126615354Y-118169339I-1000261J-116D01*
G01*
X144223387Y-125384881D02*
X144129731Y-125100118D01*
X127177025Y-69427462D02*
X117701221Y-77898172D01*
X158604301Y-118169347D02*
G75*
G03*
X158247081Y-118935384I642999J-766153D01*
G01*
X148991459Y-101840743D02*
X148991459Y-89359257D01*
X112706228Y-96391500D02*
X114582160Y-97474570D01*
X117479841Y-110503733D02*
X126615354Y-118169339D01*
X170637488Y-97474570D02*
X172513420Y-96391500D01*
X154158210Y-70463713D02*
X148767804Y-68501766D01*
X137109824Y-65762831D02*
X137109824Y-67562073D01*
X130219418Y-70390046D02*
X128343486Y-69306976D01*
X168917630Y-82166219D02*
X169211069Y-82104946D01*
X117137827Y-109911336D02*
G75*
G03*
X117479841Y-110503733I984973J173736D01*
G01*
X136228217Y-101840743D02*
G75*
G03*
X136834270Y-102759888I1000083J43D01*
G01*
X158604294Y-118169339D02*
X167739807Y-110503733D01*
X116302006Y-82166277D02*
G75*
G03*
X117821926Y-79533662I326994J1566277D01*
G01*
X157559517Y-122051497D02*
G75*
G03*
X158247081Y-121101523I-312517J949997D01*
G01*
X144129731Y-125100118D02*
G75*
G03*
X141089917Y-125100118I-1519907J-499882D01*
G01*
X144223380Y-125384883D02*
G75*
G03*
X145485755Y-126022397I949920J312383D01*
G01*
X126972524Y-121101523D02*
G75*
G03*
X127660141Y-122051466I999876J-77D01*
G01*
X136451845Y-68501769D02*
G75*
G03*
X137109824Y-67562073I-341845J939569D01*
G01*
X172992307Y-95321073D02*
X170394358Y-82879431D01*
X142215905Y-86133697D02*
X136834270Y-88440112D01*
X148109769Y-65762831D02*
G75*
G03*
X147109824Y-64762831I-999969J31D01*
G01*
X145485755Y-126022397D02*
X157559507Y-122051466D01*
X138109824Y-64762824D02*
G75*
G03*
X137109824Y-65762831I-124J-999876D01*
G01*
X112227343Y-95321073D02*
G75*
G03*
X112706228Y-96391500I979057J-204327D01*
G01*
X167739800Y-110503724D02*
G75*
G03*
X168081827Y-109911337I-642900J766124D01*
G01*
X136834283Y-88440142D02*
G75*
G03*
X136228189Y-89359257I393917J-919158D01*
G01*
X136834270Y-102759888D02*
X142215905Y-105066303D01*
X142215905Y-105066303D02*
G75*
G03*
X143003743Y-105066303I393919J919143D01*
G01*
X139733916Y-126022327D02*
G75*
G03*
X140996261Y-125384881I312484J949827D01*
G01*
X126972567Y-118935384D02*
X126972567Y-121101523D01*
X158247081Y-121101523D02*
X158247081Y-118935384D01*
X136451844Y-68501766D02*
X131061438Y-70463713D01*
X141089917Y-125100118D02*
X140996261Y-125384881D01*
X168081827Y-109911337D02*
X170152680Y-98166948D01*
X167397662Y-79533608D02*
G75*
G03*
X168917630Y-82166219I1192838J-1066392D01*
G01*
X143003743Y-105066303D02*
X148385378Y-102759888D01*
X158042645Y-69427438D02*
G75*
G03*
X156876162Y-69306976I-666445J-745462D01*
G01*
X117821926Y-79533662D02*
X117622142Y-79310173D01*
X148991492Y-89359257D02*
G75*
G03*
X148385378Y-88440112I-999892J57D01*
G01*
X148385378Y-88440112D02*
X143003743Y-86133697D01*
X130219414Y-70390054D02*
G75*
G03*
X131061438Y-70463713I499986J865954D01*
G01*
X116008573Y-82104974D02*
G75*
G03*
X114825290Y-82879431I-204573J-978626D01*
G01*
X127660141Y-122051466D02*
X139733893Y-126022397D01*
X115066990Y-98166944D02*
G75*
G03*
X114582160Y-97474570I-984790J-173656D01*
G01*
X156876162Y-69306976D02*
X155000230Y-70390046D01*
X172513439Y-96391532D02*
G75*
G03*
X172992307Y-95321073I-500039J866032D01*
G01*
X170637497Y-97474585D02*
G75*
G03*
X170152680Y-98166948I500103J-866115D01*
G01*
X136228189Y-89359257D02*
X136228189Y-101840743D01*
X167518427Y-77898172D02*
X158042623Y-69427462D01*
X167597484Y-79310153D02*
G75*
G03*
X167518427Y-77898172I-745684J666453D01*
G01*
X114825290Y-82879431D02*
X112227341Y-95321073D01*
X167597506Y-79310173D02*
X167397722Y-79533662D01*
X148109833Y-67562073D02*
G75*
G03*
X148767804Y-68501766I999967J-27D01*
G01*
X143003743Y-86133697D02*
G75*
G03*
X142215905Y-86133697I-393919J-919143D01*
G01*
X147109824Y-64762831D02*
X138109824Y-64762831D01*
X117701214Y-77898164D02*
G75*
G03*
X117622142Y-79310173I666386J-745536D01*
G01*
X154158199Y-70463742D02*
G75*
G03*
X155000230Y-70390046I342001J939642D01*
G01*
X115066968Y-98166948D02*
X117137821Y-109911337D01*
X148109824Y-67562073D02*
X148109824Y-65762831D01*
X170394402Y-82879422D02*
G75*
G03*
X169211069Y-82104946I-979002J-204578D01*
G01*
M02*
