M48
; DRILL file {KiCad (6.0.8)} date Sun Dec 31 20:52:28 2023
; FORMAT={-:-/ absolute / metric / decimal}
; #@! TF.CreationDate,2023-12-31T20:52:28-08:00
; #@! TF.GenerationSoftware,Kicad,Pcbnew,(6.0.8)
; #@! TF.FileFunction,Plated,1,4,PTH
FMAT,2
METRIC
; #@! TA.AperFunction,Plated,PTH,ComponentDrill
T1C0.200
; #@! TA.AperFunction,Plated,PTH,ComponentDrill
T2C0.300
; #@! TA.AperFunction,Plated,PTH,ViaDrill
T3C0.305
; #@! TA.AperFunction,Plated,PTH,ComponentDrill
T4C0.600
; #@! TA.AperFunction,Plated,PTH,ViaDrill
T5C0.610
; #@! TA.AperFunction,Plated,PTH,ComponentDrill
T6C1.000
%
G90
G05
T1
X130.86Y-94.55
X130.86Y-95.6
X130.86Y-96.65
X132.11Y-94.55
X132.11Y-95.6
X132.11Y-96.65
X133.36Y-94.55
X133.36Y-95.6
X133.36Y-96.65
X153.125Y-106.35
X153.867Y-105.608
X153.867Y-107.092
X154.61Y-104.865
X154.61Y-106.35
X154.61Y-107.835
X155.352Y-105.608
X155.352Y-107.092
X156.095Y-106.35
T2
X124.41Y-91.07
X127.51Y-86.805
X128.01Y-82.53
X128.685Y-91.57
X135.86Y-113.2
X136.36Y-108.925
X149.36Y-113.2
X149.86Y-108.925
X156.535Y-90.57
X156.71Y-86.805
X157.21Y-82.53
X160.81Y-91.07
T3
X128.016Y-104.902
X128.27Y-99.822
X129.794Y-95.758
X131.92Y-98.761
X132.612Y-101.322
X132.842Y-102.87
X133.096Y-105.156
X133.604Y-89.916
X133.62Y-99.822
X133.62Y-101.33
X133.858Y-98.298
X137.414Y-78.486
X137.668Y-84.582
X137.668Y-85.598
X137.922Y-79.502
X138.43Y-75.05
X138.43Y-81.788
X138.43Y-83.312
X139.192Y-77.978
X140.208Y-75.946
X140.462Y-82.55
X140.462Y-83.312
X140.462Y-84.582
X141.224Y-69.088
X142.494Y-83.058
X142.748Y-69.088
X143.002Y-75.946
X143.002Y-77.978
X143.047Y-76.979
X144.526Y-78.74
X144.78Y-76.708
X145.034Y-83.058
X145.034Y-84.074
X145.034Y-85.09
X146.05Y-77.724
X146.05Y-79.756
X146.05Y-81.788
X146.304Y-76.454
X146.304Y-80.772
X147.066Y-81.788
X147.574Y-83.058
X147.574Y-84.074
X147.574Y-85.09
X148.336Y-104.544
X148.336Y-106.426
X148.844Y-81.534
X149.352Y-82.296
X149.86Y-70.104
X149.86Y-75.438
X149.86Y-81.534
X151.941Y-100.33
X152.035Y-101.203
X152.908Y-101.092
X155.448Y-109.731
X156.464Y-109.728
X157.928Y-104.886
X158.242Y-108.458
X159.766Y-104.14
X160.98Y-104.67
T5
X120.142Y-109.22
X130.048Y-107.95
X138.684Y-72.39
X139.954Y-72.39
X145.034Y-72.338
X146.304Y-72.338
T6
X156.464Y-100.838
X156.905Y-98.337
X158.965Y-101.279
X159.406Y-98.778
X160.655Y-113.449
X161.925Y-111.25
X163.195Y-109.05
X164.465Y-106.85
X165.735Y-104.65
X167.005Y-102.451
T4
X138.29Y-66.504G85X138.29Y-65.904
G05
X138.29Y-70.934G85X138.29Y-69.834
G05
X146.93Y-66.504G85X146.93Y-65.904
G05
X146.93Y-70.934G85X146.93Y-69.834
G05
T0
M30
