%TF.GenerationSoftware,KiCad,Pcbnew,(6.0.8)*%
%TF.CreationDate,2023-12-19T18:45:34-08:00*%
%TF.ProjectId,OS3M_Mouse,4f53334d-5f4d-46f7-9573-652e6b696361,rev?*%
%TF.SameCoordinates,Original*%
%TF.FileFunction,Copper,L1,Top*%
%TF.FilePolarity,Positive*%
%FSLAX46Y46*%
G04 Gerber Fmt 4.6, Leading zero omitted, Abs format (unit mm)*
G04 Created by KiCad (PCBNEW (6.0.8)) date 2023-12-19 18:45:34*
%MOMM*%
%LPD*%
G01*
G04 APERTURE LIST*
G04 Aperture macros list*
%AMRoundRect*
0 Rectangle with rounded corners*
0 $1 Rounding radius*
0 $2 $3 $4 $5 $6 $7 $8 $9 X,Y pos of 4 corners*
0 Add a 4 corners polygon primitive as box body*
4,1,4,$2,$3,$4,$5,$6,$7,$8,$9,$2,$3,0*
0 Add four circle primitives for the rounded corners*
1,1,$1+$1,$2,$3*
1,1,$1+$1,$4,$5*
1,1,$1+$1,$6,$7*
1,1,$1+$1,$8,$9*
0 Add four rect primitives between the rounded corners*
20,1,$1+$1,$2,$3,$4,$5,0*
20,1,$1+$1,$4,$5,$6,$7,0*
20,1,$1+$1,$6,$7,$8,$9,0*
20,1,$1+$1,$8,$9,$2,$3,0*%
%AMHorizOval*
0 Thick line with rounded ends*
0 $1 width*
0 $2 $3 position (X,Y) of the first rounded end (center of the circle)*
0 $4 $5 position (X,Y) of the second rounded end (center of the circle)*
0 Add line between two ends*
20,1,$1,$2,$3,$4,$5,0*
0 Add two circle primitives to create the rounded ends*
1,1,$1,$2,$3*
1,1,$1,$4,$5*%
%AMRotRect*
0 Rectangle, with rotation*
0 The origin of the aperture is its center*
0 $1 length*
0 $2 width*
0 $3 Rotation angle, in degrees counterclockwise*
0 Add horizontal line*
21,1,$1,$2,0,0,$3*%
G04 Aperture macros list end*
%TA.AperFunction,EtchedComponent*%
%ADD10C,0.150000*%
%TD*%
%TA.AperFunction,SMDPad,CuDef*%
%ADD11RoundRect,0.140000X-0.140000X-0.170000X0.140000X-0.170000X0.140000X0.170000X-0.140000X0.170000X0*%
%TD*%
%TA.AperFunction,SMDPad,CuDef*%
%ADD12RoundRect,0.140000X0.140000X0.170000X-0.140000X0.170000X-0.140000X-0.170000X0.140000X-0.170000X0*%
%TD*%
%TA.AperFunction,SMDPad,CuDef*%
%ADD13RoundRect,0.218750X0.218750X0.256250X-0.218750X0.256250X-0.218750X-0.256250X0.218750X-0.256250X0*%
%TD*%
%TA.AperFunction,SMDPad,CuDef*%
%ADD14RotRect,1.800000X2.000000X30.000000*%
%TD*%
%TA.AperFunction,SMDPad,CuDef*%
%ADD15RoundRect,0.150000X-0.150000X0.512500X-0.150000X-0.512500X0.150000X-0.512500X0.150000X0.512500X0*%
%TD*%
%TA.AperFunction,SMDPad,CuDef*%
%ADD16RoundRect,0.140000X-0.021213X0.219203X-0.219203X0.021213X0.021213X-0.219203X0.219203X-0.021213X0*%
%TD*%
%TA.AperFunction,ComponentPad*%
%ADD17C,0.700000*%
%TD*%
%TA.AperFunction,SMDPad,CuDef*%
%ADD18RoundRect,0.037500X0.037500X0.037500X-0.037500X0.037500X-0.037500X-0.037500X0.037500X-0.037500X0*%
%TD*%
%TA.AperFunction,SMDPad,CuDef*%
%ADD19RoundRect,0.135000X0.135000X0.185000X-0.135000X0.185000X-0.135000X-0.185000X0.135000X-0.185000X0*%
%TD*%
%TA.AperFunction,SMDPad,CuDef*%
%ADD20RoundRect,0.037500X-0.037500X0.037500X-0.037500X-0.037500X0.037500X-0.037500X0.037500X0.037500X0*%
%TD*%
%TA.AperFunction,SMDPad,CuDef*%
%ADD21RoundRect,0.037500X0.037500X-0.037500X0.037500X0.037500X-0.037500X0.037500X-0.037500X-0.037500X0*%
%TD*%
%TA.AperFunction,SMDPad,CuDef*%
%ADD22RoundRect,0.062500X0.062500X-0.375000X0.062500X0.375000X-0.062500X0.375000X-0.062500X-0.375000X0*%
%TD*%
%TA.AperFunction,ComponentPad*%
%ADD23C,0.500000*%
%TD*%
%TA.AperFunction,SMDPad,CuDef*%
%ADD24R,3.000000X2.600000*%
%TD*%
%TA.AperFunction,SMDPad,CuDef*%
%ADD25RoundRect,0.100000X0.637500X0.100000X-0.637500X0.100000X-0.637500X-0.100000X0.637500X-0.100000X0*%
%TD*%
%TA.AperFunction,ComponentPad*%
%ADD26RotRect,1.700000X1.700000X330.000000*%
%TD*%
%TA.AperFunction,ComponentPad*%
%ADD27HorizOval,1.700000X0.000000X0.000000X0.000000X0.000000X0*%
%TD*%
%TA.AperFunction,SMDPad,CuDef*%
%ADD28RoundRect,0.135000X0.185000X-0.135000X0.185000X0.135000X-0.185000X0.135000X-0.185000X-0.135000X0*%
%TD*%
%TA.AperFunction,SMDPad,CuDef*%
%ADD29RoundRect,0.140000X-0.217224X0.036244X-0.077224X-0.206244X0.217224X-0.036244X0.077224X0.206244X0*%
%TD*%
%TA.AperFunction,SMDPad,CuDef*%
%ADD30RoundRect,0.140000X-0.036244X-0.217224X0.206244X-0.077224X0.036244X0.217224X-0.206244X0.077224X0*%
%TD*%
%TA.AperFunction,SMDPad,CuDef*%
%ADD31RoundRect,0.135000X-0.185000X0.135000X-0.185000X-0.135000X0.185000X-0.135000X0.185000X0.135000X0*%
%TD*%
%TA.AperFunction,SMDPad,CuDef*%
%ADD32RoundRect,0.140000X0.170000X-0.140000X0.170000X0.140000X-0.170000X0.140000X-0.170000X-0.140000X0*%
%TD*%
%TA.AperFunction,SMDPad,CuDef*%
%ADD33RoundRect,0.200000X0.200000X0.275000X-0.200000X0.275000X-0.200000X-0.275000X0.200000X-0.275000X0*%
%TD*%
%TA.AperFunction,SMDPad,CuDef*%
%ADD34RoundRect,0.140000X-0.170000X0.140000X-0.170000X-0.140000X0.170000X-0.140000X0.170000X0.140000X0*%
%TD*%
%TA.AperFunction,ComponentPad*%
%ADD35O,0.900000X1.700000*%
%TD*%
%TA.AperFunction,ComponentPad*%
%ADD36O,0.900000X2.400000*%
%TD*%
%TA.AperFunction,SMDPad,CuDef*%
%ADD37RoundRect,0.135000X-0.135000X-0.185000X0.135000X-0.185000X0.135000X0.185000X-0.135000X0.185000X0*%
%TD*%
%TA.AperFunction,SMDPad,CuDef*%
%ADD38RoundRect,0.037500X-0.037500X-0.037500X0.037500X-0.037500X0.037500X0.037500X-0.037500X0.037500X0*%
%TD*%
%TA.AperFunction,ComponentPad*%
%ADD39RotRect,1.700000X1.700000X170.000000*%
%TD*%
%TA.AperFunction,ComponentPad*%
%ADD40HorizOval,1.700000X0.000000X0.000000X0.000000X0.000000X0*%
%TD*%
%TA.AperFunction,SMDPad,CuDef*%
%ADD41RoundRect,0.062500X0.309359X-0.220971X-0.220971X0.309359X-0.309359X0.220971X0.220971X-0.309359X0*%
%TD*%
%TA.AperFunction,SMDPad,CuDef*%
%ADD42RoundRect,0.062500X0.309359X0.220971X0.220971X0.309359X-0.309359X-0.220971X-0.220971X-0.309359X0*%
%TD*%
%TA.AperFunction,SMDPad,CuDef*%
%ADD43RotRect,2.600000X2.600000X135.000000*%
%TD*%
%TA.AperFunction,SMDPad,CuDef*%
%ADD44RotRect,1.600000X1.400000X210.000000*%
%TD*%
%TA.AperFunction,ViaPad*%
%ADD45C,0.609600*%
%TD*%
%TA.AperFunction,ViaPad*%
%ADD46C,1.016000*%
%TD*%
%TA.AperFunction,ViaPad*%
%ADD47C,0.800000*%
%TD*%
%TA.AperFunction,Conductor*%
%ADD48C,0.152400*%
%TD*%
%TA.AperFunction,Conductor*%
%ADD49C,0.304800*%
%TD*%
%TA.AperFunction,Conductor*%
%ADD50C,0.508000*%
%TD*%
%TA.AperFunction,Conductor*%
%ADD51C,0.254000*%
%TD*%
%TA.AperFunction,Conductor*%
%ADD52C,0.250000*%
%TD*%
%TA.AperFunction,Conductor*%
%ADD53C,0.300000*%
%TD*%
G04 APERTURE END LIST*
D10*
%TO.C,L1*%
X156534844Y-90570000D02*
X156034844Y-90570000D01*
X157534844Y-91070000D02*
X157034844Y-91570000D01*
X157034844Y-91570000D02*
X156034844Y-91570000D01*
X159634844Y-91070000D02*
G75*
G03*
X168284844Y-91070000I4325000J0D01*
G01*
X159934844Y-91070000D02*
G75*
G03*
X167984844Y-91070000I4025000J0D01*
G01*
X160534844Y-91070000D02*
G75*
G03*
X167384844Y-91070000I3425000J0D01*
G01*
X160234844Y-91070000D02*
G75*
G03*
X167684844Y-91070000I3725000J0D01*
G01*
X168284844Y-91070000D02*
G75*
G03*
X159334844Y-91070000I-4475000J2514D01*
G01*
X158734844Y-91070000D02*
G75*
G03*
X169184844Y-91070000I5225000J0D01*
G01*
X158134844Y-91070000D02*
G75*
G03*
X169784844Y-91070000I5825000J0D01*
G01*
X159034844Y-91070000D02*
G75*
G03*
X168884844Y-91070000I4925000J0D01*
G01*
X157834844Y-91070000D02*
G75*
G03*
X170084844Y-91070000I6125000J0D01*
G01*
X168584844Y-91070000D02*
G75*
G03*
X159034844Y-91070000I-4775000J2356D01*
G01*
X169484844Y-91070000D02*
G75*
G03*
X158134844Y-91070000I-5675000J1982D01*
G01*
X158434844Y-91070000D02*
G75*
G03*
X169484844Y-91070000I5525000J0D01*
G01*
X159334844Y-91070000D02*
G75*
G03*
X168584844Y-91070000I4625000J0D01*
G01*
X167984844Y-91070000D02*
G75*
G03*
X159634844Y-91070000I-4175000J2695D01*
G01*
X167684844Y-91070000D02*
G75*
G03*
X159934844Y-91070000I-3875000J2903D01*
G01*
X169784844Y-91070000D02*
G75*
G03*
X157834844Y-91070000I-5975000J1883D01*
G01*
X170084844Y-91070000D02*
G75*
G03*
X157534844Y-91070000I-6275000J1793D01*
G01*
X168884844Y-91070000D02*
G75*
G03*
X158734844Y-91070000I-5075000J2217D01*
G01*
X169184844Y-91070000D02*
G75*
G03*
X158434844Y-91070000I-5375000J2093D01*
G01*
X167384844Y-91070000D02*
G75*
G03*
X160234844Y-91070000I-3575000J3147D01*
G01*
%TO.C,L2*%
X156709844Y-86805000D02*
X156709844Y-87305000D01*
X157209844Y-85805000D02*
X157709844Y-86305000D01*
X157709844Y-86305000D02*
X157709844Y-87305000D01*
X157209844Y-84005000D02*
G75*
G03*
X157209844Y-74755000I0J4625000D01*
G01*
X157209844Y-74755000D02*
G75*
G03*
X157209844Y-84305000I-2356J-4775000D01*
G01*
X157209844Y-85505000D02*
G75*
G03*
X157209844Y-73255000I0J6125000D01*
G01*
X157209844Y-73555000D02*
G75*
G03*
X157209844Y-85505000I-1883J-5975000D01*
G01*
X157209844Y-75655000D02*
G75*
G03*
X157209844Y-83405000I-2903J-3875000D01*
G01*
X157209844Y-75955000D02*
G75*
G03*
X157209844Y-83105000I-3147J-3575000D01*
G01*
X157209844Y-83105000D02*
G75*
G03*
X157209844Y-75655000I0J3725000D01*
G01*
X157209844Y-85205000D02*
G75*
G03*
X157209844Y-73555000I0J5825000D01*
G01*
X157209844Y-83405000D02*
G75*
G03*
X157209844Y-75355000I0J4025000D01*
G01*
X157209844Y-73855000D02*
G75*
G03*
X157209844Y-85205000I-1982J-5675000D01*
G01*
X157209844Y-83705000D02*
G75*
G03*
X157209844Y-75055000I0J4325000D01*
G01*
X157209844Y-75055000D02*
G75*
G03*
X157209844Y-84005000I-2514J-4475000D01*
G01*
X157209844Y-84305000D02*
G75*
G03*
X157209844Y-74455000I0J4925000D01*
G01*
X157209844Y-74155000D02*
G75*
G03*
X157209844Y-84905000I-2093J-5375000D01*
G01*
X157209844Y-73255000D02*
G75*
G03*
X157209844Y-85805000I-1793J-6275000D01*
G01*
X157209844Y-82805000D02*
G75*
G03*
X157209844Y-75955000I0J3425000D01*
G01*
X157209844Y-84605000D02*
G75*
G03*
X157209844Y-74155000I0J5225000D01*
G01*
X157209844Y-74455000D02*
G75*
G03*
X157209844Y-84605000I-2217J-5075000D01*
G01*
X157209844Y-84905000D02*
G75*
G03*
X157209844Y-73855000I0J5525000D01*
G01*
X157209844Y-75355000D02*
G75*
G03*
X157209844Y-83705000I-2695J-4175000D01*
G01*
%TO.C,L3*%
X135859844Y-109925000D02*
X135359844Y-109425000D01*
X136359844Y-108925000D02*
X136359844Y-108425000D01*
X135359844Y-109425000D02*
X135359844Y-108425000D01*
X135859844Y-121575000D02*
G75*
G03*
X135859844Y-110825000I2093J5375000D01*
G01*
X135859844Y-111425000D02*
G75*
G03*
X135859844Y-121275000I0J-4925000D01*
G01*
X135859844Y-112925000D02*
G75*
G03*
X135859844Y-119775000I0J-3425000D01*
G01*
X135859844Y-112625000D02*
G75*
G03*
X135859844Y-120075000I0J-3725000D01*
G01*
X135859844Y-110825000D02*
G75*
G03*
X135859844Y-121875000I0J-5525000D01*
G01*
X135859844Y-122475000D02*
G75*
G03*
X135859844Y-109925000I1793J6275000D01*
G01*
X135859844Y-110525000D02*
G75*
G03*
X135859844Y-122175000I0J-5825000D01*
G01*
X135859844Y-122175000D02*
G75*
G03*
X135859844Y-110225000I1883J5975000D01*
G01*
X135859844Y-120375000D02*
G75*
G03*
X135859844Y-112025000I2695J4175000D01*
G01*
X135859844Y-121275000D02*
G75*
G03*
X135859844Y-111125000I2217J5075000D01*
G01*
X135859844Y-119775000D02*
G75*
G03*
X135859844Y-112625000I3147J3575000D01*
G01*
X135859844Y-111725000D02*
G75*
G03*
X135859844Y-120975000I0J-4625000D01*
G01*
X135859844Y-112025000D02*
G75*
G03*
X135859844Y-120675000I0J-4325000D01*
G01*
X135859844Y-121875000D02*
G75*
G03*
X135859844Y-110525000I1982J5675000D01*
G01*
X135859844Y-110225000D02*
G75*
G03*
X135859844Y-122475000I0J-6125000D01*
G01*
X135859844Y-111125000D02*
G75*
G03*
X135859844Y-121575000I0J-5225000D01*
G01*
X135859844Y-112325000D02*
G75*
G03*
X135859844Y-120375000I0J-4025000D01*
G01*
X135859844Y-120675000D02*
G75*
G03*
X135859844Y-111725000I2514J4475000D01*
G01*
X135859844Y-120075000D02*
G75*
G03*
X135859844Y-112325000I2903J3875000D01*
G01*
X135859844Y-120975000D02*
G75*
G03*
X135859844Y-111425000I2356J4775000D01*
G01*
%TO.C,L5*%
X128009844Y-85805000D02*
X128509844Y-86305000D01*
X128509844Y-86305000D02*
X128509844Y-87305000D01*
X127509844Y-86805000D02*
X127509844Y-87305000D01*
X128009844Y-84905000D02*
G75*
G03*
X128009844Y-73855000I0J5525000D01*
G01*
X128009844Y-75055000D02*
G75*
G03*
X128009844Y-84005000I-2514J-4475000D01*
G01*
X128009844Y-73855000D02*
G75*
G03*
X128009844Y-85205000I-1982J-5675000D01*
G01*
X128009844Y-85505000D02*
G75*
G03*
X128009844Y-73255000I0J6125000D01*
G01*
X128009844Y-85205000D02*
G75*
G03*
X128009844Y-73555000I0J5825000D01*
G01*
X128009844Y-84605000D02*
G75*
G03*
X128009844Y-74155000I0J5225000D01*
G01*
X128009844Y-74755000D02*
G75*
G03*
X128009844Y-84305000I-2356J-4775000D01*
G01*
X128009844Y-83705000D02*
G75*
G03*
X128009844Y-75055000I0J4325000D01*
G01*
X128009844Y-75655000D02*
G75*
G03*
X128009844Y-83405000I-2903J-3875000D01*
G01*
X128009844Y-75355000D02*
G75*
G03*
X128009844Y-83705000I-2695J-4175000D01*
G01*
X128009844Y-82805000D02*
G75*
G03*
X128009844Y-75955000I0J3425000D01*
G01*
X128009844Y-83405000D02*
G75*
G03*
X128009844Y-75355000I0J4025000D01*
G01*
X128009844Y-83105000D02*
G75*
G03*
X128009844Y-75655000I0J3725000D01*
G01*
X128009844Y-73555000D02*
G75*
G03*
X128009844Y-85505000I-1883J-5975000D01*
G01*
X128009844Y-84005000D02*
G75*
G03*
X128009844Y-74755000I0J4625000D01*
G01*
X128009844Y-84305000D02*
G75*
G03*
X128009844Y-74455000I0J4925000D01*
G01*
X128009844Y-74155000D02*
G75*
G03*
X128009844Y-84905000I-2093J-5375000D01*
G01*
X128009844Y-73255000D02*
G75*
G03*
X128009844Y-85805000I-1793J-6275000D01*
G01*
X128009844Y-74455000D02*
G75*
G03*
X128009844Y-84605000I-2217J-5075000D01*
G01*
X128009844Y-75955000D02*
G75*
G03*
X128009844Y-83105000I-3147J-3575000D01*
G01*
%TO.C,L4*%
X149859844Y-108925000D02*
X149859844Y-108425000D01*
X149359844Y-109925000D02*
X148859844Y-109425000D01*
X148859844Y-109425000D02*
X148859844Y-108425000D01*
X149359844Y-111125000D02*
G75*
G03*
X149359844Y-121575000I0J-5225000D01*
G01*
X149359844Y-119775000D02*
G75*
G03*
X149359844Y-112625000I3147J3575000D01*
G01*
X149359844Y-111725000D02*
G75*
G03*
X149359844Y-120975000I0J-4625000D01*
G01*
X149359844Y-112025000D02*
G75*
G03*
X149359844Y-120675000I0J-4325000D01*
G01*
X149359844Y-120675000D02*
G75*
G03*
X149359844Y-111725000I2514J4475000D01*
G01*
X149359844Y-112325000D02*
G75*
G03*
X149359844Y-120375000I0J-4025000D01*
G01*
X149359844Y-111425000D02*
G75*
G03*
X149359844Y-121275000I0J-4925000D01*
G01*
X149359844Y-121875000D02*
G75*
G03*
X149359844Y-110525000I1982J5675000D01*
G01*
X149359844Y-121275000D02*
G75*
G03*
X149359844Y-111125000I2217J5075000D01*
G01*
X149359844Y-110525000D02*
G75*
G03*
X149359844Y-122175000I0J-5825000D01*
G01*
X149359844Y-110225000D02*
G75*
G03*
X149359844Y-122475000I0J-6125000D01*
G01*
X149359844Y-112925000D02*
G75*
G03*
X149359844Y-119775000I0J-3425000D01*
G01*
X149359844Y-121575000D02*
G75*
G03*
X149359844Y-110825000I2093J5375000D01*
G01*
X149359844Y-120975000D02*
G75*
G03*
X149359844Y-111425000I2356J4775000D01*
G01*
X149359844Y-120375000D02*
G75*
G03*
X149359844Y-112025000I2695J4175000D01*
G01*
X149359844Y-120075000D02*
G75*
G03*
X149359844Y-112325000I2903J3875000D01*
G01*
X149359844Y-110825000D02*
G75*
G03*
X149359844Y-121875000I0J-5525000D01*
G01*
X149359844Y-122175000D02*
G75*
G03*
X149359844Y-110225000I1883J5975000D01*
G01*
X149359844Y-112625000D02*
G75*
G03*
X149359844Y-120075000I0J-3725000D01*
G01*
X149359844Y-122475000D02*
G75*
G03*
X149359844Y-109925000I1793J6275000D01*
G01*
%TO.C,L6*%
X128184844Y-90570000D02*
X129184844Y-90570000D01*
X127684844Y-91070000D02*
X128184844Y-90570000D01*
X128684844Y-91570000D02*
X129184844Y-91570000D01*
X116634844Y-91070000D02*
G75*
G03*
X126184844Y-91070000I4775000J-2356D01*
G01*
X126784844Y-91070000D02*
G75*
G03*
X115734844Y-91070000I-5525000J0D01*
G01*
X124684844Y-91070000D02*
G75*
G03*
X117834844Y-91070000I-3425000J0D01*
G01*
X125284844Y-91070000D02*
G75*
G03*
X117234844Y-91070000I-4025000J0D01*
G01*
X116034844Y-91070000D02*
G75*
G03*
X126784844Y-91070000I5375000J-2093D01*
G01*
X117834844Y-91070000D02*
G75*
G03*
X124984844Y-91070000I3575000J-3147D01*
G01*
X125584844Y-91070000D02*
G75*
G03*
X116934844Y-91070000I-4325000J0D01*
G01*
X116934844Y-91070000D02*
G75*
G03*
X125884844Y-91070000I4475000J-2514D01*
G01*
X126184844Y-91070000D02*
G75*
G03*
X116334844Y-91070000I-4925000J0D01*
G01*
X127084844Y-91070000D02*
G75*
G03*
X115434844Y-91070000I-5825000J0D01*
G01*
X117534844Y-91070000D02*
G75*
G03*
X125284844Y-91070000I3875000J-2903D01*
G01*
X115134844Y-91070000D02*
G75*
G03*
X127684844Y-91070000I6275000J-1793D01*
G01*
X117234844Y-91070000D02*
G75*
G03*
X125584844Y-91070000I4175000J-2695D01*
G01*
X127384844Y-91070000D02*
G75*
G03*
X115134844Y-91070000I-6125000J0D01*
G01*
X115734844Y-91070000D02*
G75*
G03*
X127084844Y-91070000I5675000J-1982D01*
G01*
X116334844Y-91070000D02*
G75*
G03*
X126484844Y-91070000I5075000J-2217D01*
G01*
X115434844Y-91070000D02*
G75*
G03*
X127384844Y-91070000I5975000J-1883D01*
G01*
X124984844Y-91070000D02*
G75*
G03*
X117534844Y-91070000I-3725000J0D01*
G01*
X126484844Y-91070000D02*
G75*
G03*
X116034844Y-91070000I-5225000J0D01*
G01*
X125884844Y-91070000D02*
G75*
G03*
X116634844Y-91070000I-4625000J0D01*
G01*
%TD*%
D11*
%TO.P,C15,1*%
%TO.N,+3.3V*%
X145824000Y-83058000D03*
%TO.P,C15,2*%
%TO.N,GND*%
X146784000Y-83058000D03*
%TD*%
D12*
%TO.P,C11,1*%
%TO.N,+3.3V*%
X144244000Y-83058000D03*
%TO.P,C11,2*%
%TO.N,GND*%
X143284000Y-83058000D03*
%TD*%
D13*
%TO.P,D1,1,K*%
%TO.N,GND*%
X131851500Y-105918000D03*
%TO.P,D1,2,A*%
%TO.N,Net-(D1-Pad2)*%
X130276500Y-105918000D03*
%TD*%
D14*
%TO.P,X1,1,EN*%
%TO.N,unconnected-(X1-Pad1)*%
X124100295Y-111502051D03*
%TO.P,X1,2,GND*%
%TO.N,GND*%
X128499705Y-108962051D03*
%TO.P,X1,3,OUT*%
%TO.N,/40MHZ_CLK*%
X126499705Y-105497949D03*
%TO.P,X1,4,Vdd*%
%TO.N,+3.3V*%
X122100295Y-108037949D03*
%TD*%
D12*
%TO.P,C2,1*%
%TO.N,VBUS*%
X136624000Y-78994000D03*
%TO.P,C2,2*%
%TO.N,GND*%
X135664000Y-78994000D03*
%TD*%
%TO.P,C18,1*%
%TO.N,+3.3V*%
X134089844Y-91100000D03*
%TO.P,C18,2*%
%TO.N,GND*%
X133129844Y-91100000D03*
%TD*%
D15*
%TO.P,U5,1,I/O1*%
%TO.N,/USB_ESD_D-*%
X139380000Y-74046500D03*
%TO.P,U5,2,GND*%
%TO.N,GND*%
X138430000Y-74046500D03*
%TO.P,U5,3,I/O2*%
%TO.N,/USB_ESD_D+*%
X137480000Y-74046500D03*
%TO.P,U5,4,I/O2*%
%TO.N,/USB_D+*%
X137480000Y-76321500D03*
%TO.P,U5,5,VBUS*%
%TO.N,VBUS*%
X138430000Y-76321500D03*
%TO.P,U5,6,I/O1*%
%TO.N,/USB_D-*%
X139380000Y-76321500D03*
%TD*%
D16*
%TO.P,C5,1*%
%TO.N,+3.3V*%
X154009411Y-101260589D03*
%TO.P,C5,2*%
%TO.N,GND*%
X153330589Y-101939411D03*
%TD*%
D17*
%TO.P,L1,*%
%TO.N,*%
X160809844Y-91070000D03*
X156534844Y-90570000D03*
D18*
%TO.P,L1,1*%
%TO.N,Net-(C7-Pad1)*%
X156034844Y-91570000D03*
%TO.P,L1,2*%
%TO.N,Net-(C7-Pad2)*%
X156034844Y-90570000D03*
%TD*%
D19*
%TO.P,R3,1*%
%TO.N,+3.3V*%
X133619844Y-100600000D03*
%TO.P,R3,2*%
%TO.N,/I2C1_SDA*%
X132599844Y-100600000D03*
%TD*%
D12*
%TO.P,C17,1*%
%TO.N,+3.3V*%
X134089844Y-92100000D03*
%TO.P,C17,2*%
%TO.N,GND*%
X133129844Y-92100000D03*
%TD*%
D17*
%TO.P,L2,*%
%TO.N,*%
X156709844Y-86805000D03*
X157209844Y-82530000D03*
D20*
%TO.P,L2,1*%
%TO.N,Net-(C8-Pad1)*%
X157709844Y-87305000D03*
%TO.P,L2,2*%
%TO.N,Net-(C8-Pad2)*%
X156709844Y-87305000D03*
%TD*%
D17*
%TO.P,L3,*%
%TO.N,*%
X136359844Y-108925000D03*
X135859844Y-113200000D03*
D21*
%TO.P,L3,1*%
%TO.N,Net-(C9-Pad1)*%
X135359844Y-108425000D03*
%TO.P,L3,2*%
%TO.N,Net-(C9-Pad2)*%
X136359844Y-108425000D03*
%TD*%
D22*
%TO.P,U4,1,SCL*%
%TO.N,/I2C1_SCL*%
X130859844Y-97537500D03*
%TO.P,U4,2,SDA*%
%TO.N,/I2C1_SDA*%
X131359844Y-97537500D03*
%TO.P,U4,3,CLKIN*%
%TO.N,/40MHZ_CLK*%
X131859844Y-97537500D03*
%TO.P,U4,4,ADDR*%
%TO.N,Net-(R5-Pad1)*%
X132359844Y-97537500D03*
%TO.P,U4,5,INTB*%
%TO.N,/LDC1612_INTB*%
X132859844Y-97537500D03*
%TO.P,U4,6,SD*%
%TO.N,GND*%
X133359844Y-97537500D03*
%TO.P,U4,7,VDD*%
%TO.N,+3.3V*%
X133359844Y-93662500D03*
%TO.P,U4,8,GND*%
%TO.N,GND*%
X132859844Y-93662500D03*
%TO.P,U4,9,IN0A*%
%TO.N,Net-(C19-Pad1)*%
X132359844Y-93662500D03*
%TO.P,U4,10,IN0B*%
%TO.N,Net-(C19-Pad2)*%
X131859844Y-93662500D03*
%TO.P,U4,11,IN1A*%
%TO.N,Net-(C20-Pad1)*%
X131359844Y-93662500D03*
%TO.P,U4,12,IN1B*%
%TO.N,Net-(C20-Pad2)*%
X130859844Y-93662500D03*
D23*
%TO.P,U4,13,GND*%
%TO.N,GND*%
X133359844Y-95600000D03*
X130859844Y-95600000D03*
X130859844Y-94550000D03*
X132109844Y-94550000D03*
X133359844Y-94550000D03*
X133359844Y-96650000D03*
D24*
X132109844Y-95600000D03*
D23*
X132109844Y-96650000D03*
X132109844Y-95600000D03*
X130859844Y-96650000D03*
%TD*%
D15*
%TO.P,U1,1,VIN*%
%TO.N,VBUS*%
X139380000Y-80650500D03*
%TO.P,U1,2,GND*%
%TO.N,GND*%
X138430000Y-80650500D03*
%TO.P,U1,3,EN*%
%TO.N,VBUS*%
X137480000Y-80650500D03*
%TO.P,U1,4,NC*%
%TO.N,unconnected-(U1-Pad4)*%
X137480000Y-82925500D03*
%TO.P,U1,5,VOUT*%
%TO.N,+3.3V*%
X139380000Y-82925500D03*
%TD*%
D25*
%TO.P,U3,1,PB8*%
%TO.N,unconnected-(U3-Pad1)*%
X147472500Y-80525000D03*
%TO.P,U3,2,PF0*%
%TO.N,/I2C1_SDA*%
X147472500Y-79875000D03*
%TO.P,U3,3,PF1*%
%TO.N,/I2C1_SCL*%
X147472500Y-79225000D03*
%TO.P,U3,4,NRST*%
%TO.N,/~{RST}*%
X147472500Y-78575000D03*
%TO.P,U3,5,VDDA*%
%TO.N,+3.3V*%
X147472500Y-77925000D03*
%TO.P,U3,6,PA0*%
%TO.N,/LDC1614_INTB*%
X147472500Y-77275000D03*
%TO.P,U3,7,PA1*%
%TO.N,/LDC1612_INTB*%
X147472500Y-76625000D03*
%TO.P,U3,8,PA2*%
%TO.N,/UART2_TX*%
X147472500Y-75975000D03*
%TO.P,U3,9,PA3*%
%TO.N,/UART2_RX*%
X147472500Y-75325000D03*
%TO.P,U3,10,PA4*%
%TO.N,unconnected-(U3-Pad10)*%
X147472500Y-74675000D03*
%TO.P,U3,11,PA5*%
%TO.N,unconnected-(U3-Pad11)*%
X141747500Y-74675000D03*
%TO.P,U3,12,PA6*%
%TO.N,unconnected-(U3-Pad12)*%
X141747500Y-75325000D03*
%TO.P,U3,13,PA7*%
%TO.N,unconnected-(U3-Pad13)*%
X141747500Y-75975000D03*
%TO.P,U3,14,PB1*%
%TO.N,unconnected-(U3-Pad14)*%
X141747500Y-76625000D03*
%TO.P,U3,15,VSS*%
%TO.N,GND*%
X141747500Y-77275000D03*
%TO.P,U3,16,VDD*%
%TO.N,+3.3V*%
X141747500Y-77925000D03*
%TO.P,U3,17,PA9/PA11*%
%TO.N,/USB_D-*%
X141747500Y-78575000D03*
%TO.P,U3,18,PA10/PA12*%
%TO.N,/USB_D+*%
X141747500Y-79225000D03*
%TO.P,U3,19,PA13*%
%TO.N,/SWDIO*%
X141747500Y-79875000D03*
%TO.P,U3,20,PA14*%
%TO.N,/SWCLK*%
X141747500Y-80525000D03*
%TD*%
D17*
%TO.P,L5,*%
%TO.N,*%
X127509844Y-86805000D03*
X128009844Y-82530000D03*
D20*
%TO.P,L5,1*%
%TO.N,Net-(C19-Pad1)*%
X128509844Y-87305000D03*
%TO.P,L5,2*%
%TO.N,Net-(C19-Pad2)*%
X127509844Y-87305000D03*
%TD*%
D11*
%TO.P,C14,1*%
%TO.N,+3.3V*%
X145824000Y-84074000D03*
%TO.P,C14,2*%
%TO.N,GND*%
X146784000Y-84074000D03*
%TD*%
D17*
%TO.P,L4,*%
%TO.N,*%
X149359844Y-113200000D03*
X149859844Y-108925000D03*
D21*
%TO.P,L4,1*%
%TO.N,Net-(C10-Pad1)*%
X148859844Y-108425000D03*
%TO.P,L4,2*%
%TO.N,Net-(C10-Pad2)*%
X149859844Y-108425000D03*
%TD*%
D26*
%TO.P,J1,1,Pin_1*%
%TO.N,GND*%
X167005000Y-102450739D03*
D27*
%TO.P,J1,2,Pin_2*%
%TO.N,+3.3V*%
X165735000Y-104650444D03*
%TO.P,J1,3,Pin_3*%
%TO.N,/UART2_TX*%
X164465000Y-106850148D03*
%TO.P,J1,4,Pin_4*%
%TO.N,/UART2_RX*%
X163195000Y-109049853D03*
%TO.P,J1,5,Pin_5*%
%TO.N,/SWDIO*%
X161925000Y-111249557D03*
%TO.P,J1,6,Pin_6*%
%TO.N,/SWCLK*%
X160655000Y-113449262D03*
%TD*%
D11*
%TO.P,C3,1*%
%TO.N,+3.3V*%
X138712000Y-84582000D03*
%TO.P,C3,2*%
%TO.N,GND*%
X139672000Y-84582000D03*
%TD*%
D28*
%TO.P,R7,1*%
%TO.N,/CC1*%
X150609844Y-72100000D03*
%TO.P,R7,2*%
%TO.N,GND*%
X150609844Y-71080000D03*
%TD*%
D12*
%TO.P,C1,1*%
%TO.N,VBUS*%
X136624000Y-77978000D03*
%TO.P,C1,2*%
%TO.N,GND*%
X135664000Y-77978000D03*
%TD*%
D29*
%TO.P,C16,1*%
%TO.N,/~{RST}*%
X127060000Y-99684308D03*
%TO.P,C16,2*%
%TO.N,GND*%
X127540000Y-100515692D03*
%TD*%
D28*
%TO.P,R6,1*%
%TO.N,/CC2*%
X149609844Y-72110000D03*
%TO.P,R6,2*%
%TO.N,GND*%
X149609844Y-71090000D03*
%TD*%
D16*
%TO.P,C6,1*%
%TO.N,+3.3V*%
X154771411Y-102022589D03*
%TO.P,C6,2*%
%TO.N,GND*%
X154092589Y-102701411D03*
%TD*%
D19*
%TO.P,R4,1*%
%TO.N,+3.3V*%
X133619844Y-102100000D03*
%TO.P,R4,2*%
%TO.N,/I2C1_SCL*%
X132599844Y-102100000D03*
%TD*%
D30*
%TO.P,C22,1*%
%TO.N,+3.3V*%
X118964308Y-108444000D03*
%TO.P,C22,2*%
%TO.N,GND*%
X119795692Y-107964000D03*
%TD*%
D31*
%TO.P,R8,1*%
%TO.N,Net-(J2-PadS1)*%
X134109844Y-71590000D03*
%TO.P,R8,2*%
%TO.N,GND*%
X134109844Y-72610000D03*
%TD*%
D12*
%TO.P,C12,1*%
%TO.N,+3.3V*%
X144244000Y-84074000D03*
%TO.P,C12,2*%
%TO.N,GND*%
X143284000Y-84074000D03*
%TD*%
D11*
%TO.P,C13,1*%
%TO.N,+3.3V*%
X145824000Y-85090000D03*
%TO.P,C13,2*%
%TO.N,GND*%
X146784000Y-85090000D03*
%TD*%
D32*
%TO.P,C8,1*%
%TO.N,Net-(C8-Pad1)*%
X155609844Y-88580000D03*
%TO.P,C8,2*%
%TO.N,Net-(C8-Pad2)*%
X155609844Y-87620000D03*
%TD*%
D33*
%TO.P,R1,1*%
%TO.N,+3.3V*%
X131889000Y-104394000D03*
%TO.P,R1,2*%
%TO.N,Net-(D1-Pad2)*%
X130239000Y-104394000D03*
%TD*%
D34*
%TO.P,C20,1*%
%TO.N,Net-(C20-Pad1)*%
X130109844Y-90620000D03*
%TO.P,C20,2*%
%TO.N,Net-(C20-Pad2)*%
X130109844Y-91580000D03*
%TD*%
D32*
%TO.P,C21,1*%
%TO.N,VBUS*%
X135890000Y-76426000D03*
%TO.P,C21,2*%
%TO.N,GND*%
X135890000Y-75466000D03*
%TD*%
D17*
%TO.P,J2,A1,GND*%
%TO.N,GND*%
X145584844Y-71625000D03*
%TO.P,J2,A4,VBUS*%
%TO.N,VBUS*%
X144734844Y-71625000D03*
%TO.P,J2,A5,CC1*%
%TO.N,/CC1*%
X143884844Y-71625000D03*
%TO.P,J2,A6,D+*%
%TO.N,/USB_ESD_D+*%
X143034844Y-71625000D03*
%TO.P,J2,A7,D-*%
%TO.N,/USB_ESD_D-*%
X142184844Y-71625000D03*
%TO.P,J2,A8,SBU1*%
%TO.N,unconnected-(J2-PadA8)*%
X141334844Y-71625000D03*
%TO.P,J2,A9,VBUS*%
%TO.N,VBUS*%
X140484844Y-71625000D03*
%TO.P,J2,A12,GND*%
%TO.N,GND*%
X139634844Y-71625000D03*
%TO.P,J2,B1,GND*%
X139634844Y-70275000D03*
%TO.P,J2,B4,VBUS*%
%TO.N,VBUS*%
X140484844Y-70275000D03*
%TO.P,J2,B5,CC2*%
%TO.N,/CC2*%
X141334844Y-70275000D03*
%TO.P,J2,B6,D+*%
%TO.N,/USB_ESD_D+*%
X142184844Y-70275000D03*
%TO.P,J2,B7,D-*%
%TO.N,/USB_ESD_D-*%
X143034844Y-70275000D03*
%TO.P,J2,B8,SBU2*%
%TO.N,unconnected-(J2-PadB8)*%
X143884844Y-70275000D03*
%TO.P,J2,B9,VBUS*%
%TO.N,VBUS*%
X144734844Y-70275000D03*
%TO.P,J2,B12,GND*%
%TO.N,GND*%
X145584844Y-70275000D03*
D35*
%TO.P,J2,S1,SHIELD*%
%TO.N,Net-(J2-PadS1)*%
X138284844Y-67265000D03*
D36*
X146934844Y-70645000D03*
X138284844Y-70645000D03*
D35*
X146934844Y-67265000D03*
%TD*%
D37*
%TO.P,R5,1*%
%TO.N,Net-(R5-Pad1)*%
X132599844Y-99100000D03*
%TO.P,R5,2*%
%TO.N,+3.3V*%
X133619844Y-99100000D03*
%TD*%
D17*
%TO.P,L6,*%
%TO.N,*%
X128684844Y-91570000D03*
X124409844Y-91070000D03*
D38*
%TO.P,L6,1*%
%TO.N,Net-(C20-Pad1)*%
X129184844Y-90570000D03*
%TO.P,L6,2*%
%TO.N,Net-(C20-Pad2)*%
X129184844Y-91570000D03*
%TD*%
D39*
%TO.P,J3,1,Pin_1*%
%TO.N,+3.3V*%
X156464000Y-100838000D03*
D40*
%TO.P,J3,2,Pin_2*%
%TO.N,GND*%
X158965412Y-101279066D03*
%TO.P,J3,3,Pin_3*%
%TO.N,/I2C1_SDA*%
X156905066Y-98336588D03*
%TO.P,J3,4,Pin_4*%
%TO.N,/I2C1_SCL*%
X159406478Y-98777655D03*
%TD*%
D11*
%TO.P,C10,1*%
%TO.N,Net-(C10-Pad1)*%
X148879844Y-107850000D03*
%TO.P,C10,2*%
%TO.N,Net-(C10-Pad2)*%
X149839844Y-107850000D03*
%TD*%
D41*
%TO.P,U2,1,SCL*%
%TO.N,/I2C1_SCL*%
X155449533Y-108250349D03*
%TO.P,U2,2,SDA*%
%TO.N,/I2C1_SDA*%
X155803087Y-107896796D03*
%TO.P,U2,3,CLKIN*%
%TO.N,/40MHZ_CLK*%
X156156640Y-107543243D03*
%TO.P,U2,4,ADDR*%
%TO.N,Net-(R2-Pad1)*%
X156510193Y-107189689D03*
D42*
%TO.P,U2,5,INTB*%
%TO.N,/LDC1614_INTB*%
X156510193Y-105510311D03*
%TO.P,U2,6,SD*%
%TO.N,GND*%
X156156640Y-105156757D03*
%TO.P,U2,7,VDD*%
%TO.N,+3.3V*%
X155803087Y-104803204D03*
%TO.P,U2,8,GND*%
%TO.N,GND*%
X155449533Y-104449651D03*
D41*
%TO.P,U2,9,IN0A*%
%TO.N,Net-(C7-Pad1)*%
X153770155Y-104449651D03*
%TO.P,U2,10,IN0B*%
%TO.N,Net-(C7-Pad2)*%
X153416601Y-104803204D03*
%TO.P,U2,11,IN1A*%
%TO.N,Net-(C8-Pad1)*%
X153063048Y-105156757D03*
%TO.P,U2,12,IN1B*%
%TO.N,Net-(C8-Pad2)*%
X152709495Y-105510311D03*
D42*
%TO.P,U2,13,IN2A*%
%TO.N,Net-(C9-Pad1)*%
X152709495Y-107189689D03*
%TO.P,U2,14,IN2B*%
%TO.N,Net-(C9-Pad2)*%
X153063048Y-107543243D03*
%TO.P,U2,15,IN3A*%
%TO.N,Net-(C10-Pad1)*%
X153416601Y-107896796D03*
%TO.P,U2,16,IN3B*%
%TO.N,Net-(C10-Pad2)*%
X153770155Y-108250349D03*
D23*
%TO.P,U2,17,GND*%
%TO.N,GND*%
X155352306Y-105607538D03*
X154609844Y-107834924D03*
D43*
X154609844Y-106350000D03*
D23*
X153867382Y-107092462D03*
X153867382Y-105607538D03*
X154609844Y-104865076D03*
X156094768Y-106350000D03*
X154609844Y-106350000D03*
X153124920Y-106350000D03*
X155352306Y-107092462D03*
%TD*%
D32*
%TO.P,C7,1*%
%TO.N,Net-(C7-Pad1)*%
X155109844Y-91580000D03*
%TO.P,C7,2*%
%TO.N,Net-(C7-Pad2)*%
X155109844Y-90620000D03*
%TD*%
D11*
%TO.P,C4,1*%
%TO.N,+3.3V*%
X138712000Y-85598000D03*
%TO.P,C4,2*%
%TO.N,GND*%
X139672000Y-85598000D03*
%TD*%
D34*
%TO.P,C19,1*%
%TO.N,Net-(C19-Pad1)*%
X129109844Y-87720000D03*
%TO.P,C19,2*%
%TO.N,Net-(C19-Pad2)*%
X129109844Y-88680000D03*
%TD*%
D19*
%TO.P,R2,1*%
%TO.N,Net-(R2-Pad1)*%
X160022000Y-105350000D03*
%TO.P,R2,2*%
%TO.N,GND*%
X159002000Y-105350000D03*
%TD*%
D44*
%TO.P,SW1,1,1*%
%TO.N,GND*%
X120232309Y-105799038D03*
X126467691Y-102199038D03*
%TO.P,SW1,2,2*%
%TO.N,/~{RST}*%
X118732309Y-103200962D03*
X124967691Y-99600962D03*
%TD*%
D11*
%TO.P,C9,1*%
%TO.N,Net-(C9-Pad1)*%
X135379844Y-107850000D03*
%TO.P,C9,2*%
%TO.N,Net-(C9-Pad2)*%
X136339844Y-107850000D03*
%TD*%
D45*
%TO.N,VBUS*%
X137922000Y-79502000D03*
X139192000Y-77978000D03*
X137414000Y-78486000D03*
%TO.N,GND*%
X149860000Y-70104000D03*
X147574000Y-85090000D03*
X143046946Y-76979265D03*
X142494000Y-83058000D03*
X159766000Y-104140000D03*
X140462000Y-84582000D03*
X147574000Y-84074000D03*
X147574000Y-83058000D03*
D46*
X130048000Y-107950000D03*
D45*
X128270000Y-99822000D03*
X152908000Y-101092000D03*
X138430000Y-81788000D03*
X138430000Y-75049900D03*
%TO.N,+3.3V*%
X145034000Y-84074000D03*
X133096000Y-105156000D03*
X137668000Y-84582000D03*
X138430000Y-83312000D03*
X137668000Y-85598000D03*
X146050000Y-77724000D03*
X143002000Y-77978000D03*
X133619844Y-99822000D03*
X140462000Y-83312000D03*
X145034000Y-83058000D03*
D46*
X120142000Y-109220000D03*
D45*
X140462000Y-82550000D03*
X145034000Y-85090000D03*
X133604000Y-89916000D03*
X133619844Y-101330156D03*
%TO.N,/~{RST}*%
X129794000Y-95758000D03*
X144526000Y-78740000D03*
%TO.N,/UART2_TX*%
X149352000Y-82296000D03*
%TO.N,/UART2_RX*%
X149860000Y-81534000D03*
X160980000Y-104670000D03*
%TO.N,/SWDIO*%
X147066000Y-81788000D03*
%TO.N,/SWCLK*%
X146050000Y-81788000D03*
%TO.N,/USB_ESD_D+*%
X137668000Y-72898000D03*
%TO.N,/I2C1_SDA*%
X146304000Y-80772000D03*
X132611700Y-101322300D03*
X156464000Y-109728000D03*
X152034964Y-101203036D03*
%TO.N,/I2C1_SCL*%
X132842000Y-102870000D03*
X151941144Y-100330000D03*
X155448000Y-109731117D03*
X146050000Y-79756000D03*
X148336000Y-104543700D03*
X148336000Y-106426000D03*
%TO.N,/LDC1614_INTB*%
X148844000Y-81534000D03*
X157927507Y-104885793D03*
%TO.N,/LDC1612_INTB*%
X146304000Y-76454000D03*
X133858000Y-98298000D03*
%TO.N,/40MHZ_CLK*%
X131919977Y-98760676D03*
X158242000Y-108458000D03*
X128016000Y-104902000D03*
D47*
%TO.N,/CC2*%
X148359844Y-70100000D03*
%TD*%
D48*
%TO.N,/UART2_RX*%
X149860000Y-77196210D02*
X147988790Y-75325000D01*
X149860000Y-81534000D02*
X149860000Y-77196210D01*
X147988790Y-75325000D02*
X147472500Y-75325000D01*
%TO.N,/UART2_TX*%
X147988790Y-75975000D02*
X147472500Y-75975000D01*
X149352000Y-77338210D02*
X147988790Y-75975000D01*
X149352000Y-82296000D02*
X149352000Y-77338210D01*
%TO.N,/LDC1614_INTB*%
X148395000Y-77275000D02*
X147472500Y-77275000D01*
X148844000Y-77724000D02*
X148395000Y-77275000D01*
X148844000Y-81534000D02*
X148844000Y-77724000D01*
%TO.N,/UART2_RX*%
X162052000Y-105742000D02*
X162052000Y-107906853D01*
X160980000Y-104670000D02*
X162052000Y-105742000D01*
X162052000Y-107906853D02*
X163195000Y-109049853D01*
D49*
%TO.N,VBUS*%
X136624000Y-77978000D02*
X136906000Y-77978000D01*
X136906000Y-77978000D02*
X137414000Y-78486000D01*
X136624000Y-78994000D02*
X136906000Y-78994000D01*
X138128600Y-79708600D02*
X137922000Y-79502000D01*
X137969400Y-79708600D02*
X137480000Y-80198000D01*
X137922000Y-78994000D02*
X137922000Y-79502000D01*
X136624000Y-77442000D02*
X136624000Y-77978000D01*
X138382600Y-79708600D02*
X138128600Y-79708600D01*
D50*
X138430000Y-76321500D02*
X138430000Y-77216000D01*
D49*
X137480000Y-80198000D02*
X137480000Y-80650500D01*
X138382600Y-79708600D02*
X137969400Y-79708600D01*
X136624000Y-77978000D02*
X136624000Y-78994000D01*
X136906000Y-78994000D02*
X137414000Y-78486000D01*
X139380000Y-80330737D02*
X138757863Y-79708600D01*
D50*
X138430000Y-77216000D02*
X139192000Y-77978000D01*
D49*
X135890000Y-76426000D02*
X135890000Y-76708000D01*
X138757863Y-79708600D02*
X138382600Y-79708600D01*
X135890000Y-76708000D02*
X136624000Y-77442000D01*
X139380000Y-80650500D02*
X139380000Y-80330737D01*
X137414000Y-78486000D02*
X137922000Y-78994000D01*
%TO.N,GND*%
X146784000Y-83058000D02*
X146784000Y-84074000D01*
X135890000Y-73660000D02*
X135890000Y-75466000D01*
X146784000Y-84074000D02*
X146784000Y-85090000D01*
X158750000Y-104112000D02*
X159738000Y-104112000D01*
X137922000Y-81788000D02*
X138430000Y-81788000D01*
X136906000Y-75184000D02*
X138295900Y-75184000D01*
X146784000Y-85090000D02*
X147574000Y-85090000D01*
X128499705Y-108962051D02*
X129289949Y-108962051D01*
D51*
X131851500Y-106908500D02*
X130810000Y-107950000D01*
D48*
X156156640Y-105156757D02*
X156158443Y-105156757D01*
D49*
X149609844Y-71090000D02*
X149609844Y-70354156D01*
X159738000Y-104112000D02*
X159766000Y-104140000D01*
X149609844Y-71090000D02*
X150599844Y-71090000D01*
D51*
X133129844Y-92676156D02*
X133129844Y-92100000D01*
X120232309Y-105799038D02*
X122867691Y-105799038D01*
X122867691Y-105799038D02*
X126467691Y-102199038D01*
X132859844Y-93662500D02*
X132859844Y-92946156D01*
X127508000Y-101158729D02*
X127508000Y-100547692D01*
D50*
X128499705Y-108962051D02*
X129035949Y-108962051D01*
D49*
X150599844Y-71090000D02*
X150609844Y-71080000D01*
X157734000Y-104112000D02*
X157203200Y-104112000D01*
D51*
X154609844Y-105289340D02*
X154609844Y-106350000D01*
D49*
X135664000Y-78994000D02*
X135664000Y-80800000D01*
X143284000Y-83058000D02*
X142494000Y-83058000D01*
X146784000Y-83058000D02*
X147574000Y-83058000D01*
X143284000Y-84074000D02*
X143284000Y-83058000D01*
X157734000Y-104112000D02*
X158750000Y-104112000D01*
X140208000Y-85598000D02*
X140462000Y-85344000D01*
X149609844Y-70354156D02*
X149860000Y-70104000D01*
X136624000Y-75466000D02*
X136906000Y-75184000D01*
D51*
X127576308Y-100515692D02*
X128270000Y-99822000D01*
D49*
X135664000Y-77978000D02*
X135664000Y-78994000D01*
D51*
X126467691Y-102199038D02*
X127508000Y-101158729D01*
X132859844Y-92946156D02*
X133129844Y-92676156D01*
D49*
X158750000Y-104112000D02*
X158750000Y-105098000D01*
D48*
X156158443Y-105156757D02*
X156819600Y-104495600D01*
D49*
X135890000Y-75466000D02*
X136624000Y-75466000D01*
X139672000Y-84582000D02*
X140462000Y-84582000D01*
X138295900Y-75184000D02*
X138430000Y-75049900D01*
X141747500Y-77275000D02*
X142751211Y-77275000D01*
X140462000Y-85344000D02*
X140462000Y-84582000D01*
D51*
X119795692Y-107964000D02*
X119795692Y-106235655D01*
D49*
X133129844Y-91100000D02*
X133129844Y-92100000D01*
X138430000Y-74046500D02*
X138430000Y-75049900D01*
X158750000Y-105098000D02*
X159002000Y-105350000D01*
X139672000Y-85598000D02*
X140208000Y-85598000D01*
X138430000Y-81280000D02*
X138430000Y-80650500D01*
X152908000Y-101516822D02*
X153330589Y-101939411D01*
X157203200Y-104112000D02*
X156819600Y-104495600D01*
D51*
X131851500Y-105918000D02*
X131851500Y-106908500D01*
D49*
X142751211Y-77275000D02*
X143046946Y-76979265D01*
D51*
X127508000Y-100547692D02*
X127540000Y-100515692D01*
X130810000Y-107950000D02*
X130048000Y-107950000D01*
D49*
X134109844Y-72610000D02*
X134840000Y-72610000D01*
D52*
X133359844Y-97537500D02*
X133359844Y-96650000D01*
D49*
X153330589Y-101939411D02*
X154092589Y-102701411D01*
X136652000Y-81788000D02*
X137922000Y-81788000D01*
X138430000Y-80650500D02*
X138430000Y-81788000D01*
D51*
X155449533Y-104449651D02*
X154609844Y-105289340D01*
D50*
X129035949Y-108962051D02*
X130048000Y-107950000D01*
D51*
X132859844Y-94850000D02*
X132109844Y-95600000D01*
X119795692Y-106235655D02*
X120232309Y-105799038D01*
D49*
X135664000Y-80800000D02*
X136652000Y-81788000D01*
D51*
X127540000Y-100515692D02*
X127576308Y-100515692D01*
D49*
X134840000Y-72610000D02*
X135890000Y-73660000D01*
D51*
X132859844Y-93662500D02*
X132859844Y-94850000D01*
D49*
X137922000Y-81788000D02*
X138430000Y-81280000D01*
X146784000Y-84074000D02*
X147574000Y-84074000D01*
X152908000Y-101092000D02*
X152908000Y-101516822D01*
%TO.N,+3.3V*%
X156464000Y-103715178D02*
X156464000Y-104140000D01*
X144244000Y-83058000D02*
X145034000Y-83058000D01*
X134089844Y-91100000D02*
X134089844Y-92100000D01*
D48*
X156464000Y-104142291D02*
X155803087Y-104803204D01*
D49*
X139380000Y-82925500D02*
X140075500Y-82925500D01*
D51*
X134089844Y-93240156D02*
X134089844Y-92100000D01*
X134089844Y-90401844D02*
X133604000Y-89916000D01*
X118964308Y-108444000D02*
X118964308Y-108804308D01*
D49*
X156464000Y-102362000D02*
X155787411Y-103038589D01*
D50*
X122100295Y-108037949D02*
X121324051Y-108037949D01*
D49*
X145824000Y-83058000D02*
X145034000Y-83058000D01*
X145824000Y-84074000D02*
X145034000Y-84074000D01*
D51*
X133667500Y-93662500D02*
X134089844Y-93240156D01*
D49*
X138712000Y-85598000D02*
X137668000Y-85598000D01*
X139380000Y-82925500D02*
X138816500Y-82925500D01*
X147472500Y-77925000D02*
X146251000Y-77925000D01*
X145034000Y-84074000D02*
X145034000Y-85090000D01*
X141747500Y-77925000D02*
X142949000Y-77925000D01*
X138816500Y-82925500D02*
X138430000Y-83312000D01*
D51*
X119380000Y-109220000D02*
X120142000Y-109220000D01*
D49*
X146251000Y-77925000D02*
X146050000Y-77724000D01*
X133619844Y-100600000D02*
X133619844Y-102100000D01*
D50*
X121324051Y-108037949D02*
X120142000Y-109220000D01*
D49*
X155787411Y-103038589D02*
X156464000Y-103715178D01*
X133619844Y-99100000D02*
X133619844Y-100600000D01*
X140075500Y-82925500D02*
X140462000Y-83312000D01*
D51*
X131889000Y-104394000D02*
X132334000Y-104394000D01*
D49*
X139380000Y-82925500D02*
X140086500Y-82925500D01*
D51*
X132334000Y-104394000D02*
X133096000Y-105156000D01*
X134089844Y-91100000D02*
X134089844Y-90401844D01*
X156464000Y-101346000D02*
X156464000Y-100838000D01*
X133359844Y-93662500D02*
X133667500Y-93662500D01*
X118964308Y-108804308D02*
X119380000Y-109220000D01*
D49*
X145824000Y-85090000D02*
X145034000Y-85090000D01*
X145824000Y-84074000D02*
X145824000Y-85090000D01*
X154771411Y-102022589D02*
X155787411Y-103038589D01*
D48*
X156464000Y-104140000D02*
X156464000Y-104142291D01*
D49*
X145824000Y-83058000D02*
X145824000Y-84074000D01*
X145034000Y-83058000D02*
X145034000Y-84074000D01*
X142949000Y-77925000D02*
X143002000Y-77978000D01*
X140086500Y-82925500D02*
X140462000Y-82550000D01*
X154009411Y-101260589D02*
X154771411Y-102022589D01*
X138712000Y-84582000D02*
X137668000Y-84582000D01*
X156464000Y-100838000D02*
X156464000Y-102362000D01*
X144244000Y-84074000D02*
X145034000Y-84074000D01*
D53*
%TO.N,Net-(C7-Pad1)*%
X152920504Y-102910660D02*
X151359844Y-101350000D01*
D52*
X153770155Y-104449651D02*
X152920504Y-103600000D01*
D53*
X151359844Y-101350000D02*
X151359844Y-95330000D01*
X152920504Y-103600000D02*
X152920504Y-102910660D01*
X151359844Y-95330000D02*
X155109844Y-91580000D01*
X156088594Y-91570000D02*
X155131094Y-91570000D01*
%TO.N,Net-(C7-Pad2)*%
X150859844Y-94600000D02*
X154839844Y-90620000D01*
X156338594Y-90600000D02*
X155381094Y-90600000D01*
X152359844Y-103100000D02*
X150859844Y-101600000D01*
X152359844Y-103746447D02*
X152359844Y-103100000D01*
X150859844Y-101600000D02*
X150859844Y-94600000D01*
X154839844Y-90620000D02*
X155109844Y-90620000D01*
D52*
X153416601Y-104803204D02*
X152359844Y-103746447D01*
D53*
%TO.N,Net-(C8-Pad1)*%
X150359844Y-93100000D02*
X154879844Y-88580000D01*
X154879844Y-88580000D02*
X155609844Y-88580000D01*
X151859844Y-103953553D02*
X151859844Y-103350000D01*
D52*
X153063048Y-105156757D02*
X151859844Y-103953553D01*
D53*
X150359844Y-101850000D02*
X150359844Y-93100000D01*
X151859844Y-103350000D02*
X150359844Y-101850000D01*
X157184844Y-87825000D02*
X156434844Y-88575000D01*
X156409844Y-88600000D02*
X155590156Y-88600000D01*
X156509844Y-88500000D02*
X156409844Y-88600000D01*
X157684844Y-87325000D02*
X156934844Y-88075000D01*
%TO.N,Net-(C8-Pad2)*%
X149859844Y-92600000D02*
X154839844Y-87620000D01*
D52*
X152709495Y-105510311D02*
X151359844Y-104160660D01*
D53*
X156409844Y-87700000D02*
X155500000Y-87700000D01*
X156709844Y-87400000D02*
X156559844Y-87550000D01*
X154839844Y-87620000D02*
X155609844Y-87620000D01*
X149859844Y-102100000D02*
X149859844Y-92600000D01*
X151359844Y-104160660D02*
X151359844Y-103600000D01*
X151359844Y-103600000D02*
X149859844Y-102100000D01*
X156634844Y-87475000D02*
X156484844Y-87625000D01*
X156459844Y-87650000D02*
X156409844Y-87700000D01*
D52*
%TO.N,Net-(C9-Pad1)*%
X136109844Y-106350000D02*
X135379844Y-107080000D01*
X152699533Y-107189689D02*
X150609844Y-105100000D01*
X145609844Y-106350000D02*
X136109844Y-106350000D01*
X152709495Y-107189689D02*
X152699533Y-107189689D01*
X135379844Y-107080000D02*
X135379844Y-107850000D01*
X146859844Y-105100000D02*
X145609844Y-106350000D01*
D53*
X135359844Y-108030312D02*
X135359844Y-108850000D01*
D52*
X150609844Y-105100000D02*
X146859844Y-105100000D01*
%TO.N,Net-(C9-Pad2)*%
X136909844Y-106800000D02*
X136339844Y-107370000D01*
X147081443Y-105600000D02*
X145881443Y-106800000D01*
X145881443Y-106800000D02*
X136909844Y-106800000D01*
X149922344Y-105600000D02*
X147081443Y-105600000D01*
X136339844Y-107370000D02*
X136339844Y-107850000D01*
X152719743Y-107886548D02*
X152208892Y-107886548D01*
X152208892Y-107886548D02*
X149922344Y-105600000D01*
D53*
X136359844Y-108030312D02*
X136359844Y-108850000D01*
D52*
X153063048Y-107543243D02*
X152719743Y-107886548D01*
%TO.N,Net-(C10-Pad1)*%
X148879844Y-107330000D02*
X148879844Y-107850000D01*
X149359844Y-106850000D02*
X148879844Y-107330000D01*
D53*
X148859844Y-108105312D02*
X148859844Y-108925000D01*
D52*
X153416601Y-107896796D02*
X152976849Y-108336548D01*
X150535948Y-106850000D02*
X149359844Y-106850000D01*
X152022496Y-108336548D02*
X150535948Y-106850000D01*
X152976849Y-108336548D02*
X152022496Y-108336548D01*
D53*
%TO.N,Net-(C10-Pad2)*%
X149859844Y-108105312D02*
X149859844Y-108925000D01*
D52*
X151899552Y-108850000D02*
X150899552Y-107850000D01*
X153770155Y-108250349D02*
X153170504Y-108850000D01*
X150899552Y-107850000D02*
X149839844Y-107850000D01*
X153170504Y-108850000D02*
X151899552Y-108850000D01*
D51*
%TO.N,/~{RST}*%
X124967691Y-99600962D02*
X126976654Y-99600962D01*
X126976654Y-99600962D02*
X127060000Y-99684308D01*
D48*
X144691000Y-78575000D02*
X147472500Y-78575000D01*
X144526000Y-78740000D02*
X144691000Y-78575000D01*
X127060000Y-98492000D02*
X129794000Y-95758000D01*
D51*
X121367691Y-103200962D02*
X124967691Y-99600962D01*
D48*
X127060000Y-99684308D02*
X127060000Y-98492000D01*
D51*
X118732309Y-103200962D02*
X121367691Y-103200962D01*
%TO.N,Net-(C19-Pad1)*%
X132359844Y-93662500D02*
X132359844Y-88850000D01*
X128534844Y-87325000D02*
X128884844Y-87675000D01*
X131229844Y-87720000D02*
X129109844Y-87720000D01*
X132359844Y-88850000D02*
X131229844Y-87720000D01*
%TO.N,Net-(C19-Pad2)*%
X130689844Y-88680000D02*
X129109844Y-88680000D01*
X131859844Y-93662500D02*
X131859844Y-89850000D01*
X127559844Y-87350000D02*
X128859844Y-88650000D01*
X128859844Y-88650000D02*
X129159844Y-88650000D01*
X131859844Y-89850000D02*
X130689844Y-88680000D01*
%TO.N,Net-(C20-Pad1)*%
X130019688Y-90570000D02*
X129200000Y-90570000D01*
X130109844Y-90620000D02*
X130629844Y-90620000D01*
X131359844Y-91350000D02*
X131359844Y-93662500D01*
X130629844Y-90620000D02*
X131359844Y-91350000D01*
%TO.N,Net-(C20-Pad2)*%
X129819688Y-91600000D02*
X129000000Y-91600000D01*
X130109844Y-91580000D02*
X130589844Y-91580000D01*
X130859844Y-91850000D02*
X130859844Y-93662500D01*
X130589844Y-91580000D02*
X130859844Y-91850000D01*
%TO.N,Net-(D1-Pad2)*%
X130276500Y-105918000D02*
X130276500Y-104431500D01*
X130276500Y-104431500D02*
X130239000Y-104394000D01*
D48*
%TO.N,/SWDIO*%
X144780000Y-81280000D02*
X146558000Y-81280000D01*
X141747500Y-79875000D02*
X143375000Y-79875000D01*
X146558000Y-81280000D02*
X147066000Y-81788000D01*
X143375000Y-79875000D02*
X144780000Y-81280000D01*
%TO.N,/SWCLK*%
X141747500Y-80525000D02*
X143263000Y-80525000D01*
X144526000Y-81788000D02*
X146050000Y-81788000D01*
X143263000Y-80525000D02*
X144526000Y-81788000D01*
%TO.N,/USB_ESD_D+*%
X137480000Y-73086000D02*
X137668000Y-72898000D01*
X137480000Y-74046500D02*
X137480000Y-73086000D01*
X142184844Y-70275000D02*
X142184844Y-70414950D01*
%TO.N,/USB_ESD_D-*%
X142184844Y-71125000D02*
X143034844Y-70275000D01*
X139954000Y-72898000D02*
X139380000Y-73472000D01*
X139380000Y-73472000D02*
X139380000Y-74046500D01*
X140911844Y-72898000D02*
X139954000Y-72898000D01*
X142184844Y-71625000D02*
X142184844Y-71125000D01*
X142184844Y-71625000D02*
X140911844Y-72898000D01*
D53*
%TO.N,Net-(J2-PadS1)*%
X135054844Y-70645000D02*
X138284844Y-70645000D01*
X134109844Y-71590000D02*
X135054844Y-70645000D01*
X138284844Y-67265000D02*
X138284844Y-70645000D01*
X138284844Y-67265000D02*
X146934844Y-67265000D01*
X146934844Y-67265000D02*
X146934844Y-70645000D01*
D52*
%TO.N,Net-(R2-Pad1)*%
X157859844Y-107600000D02*
X156920504Y-107600000D01*
X156920504Y-107600000D02*
X156510193Y-107189689D01*
D49*
X159619844Y-105840000D02*
X160022000Y-105437844D01*
D53*
X159619844Y-105840000D02*
X157859844Y-107600000D01*
D49*
X160022000Y-105437844D02*
X160022000Y-105350000D01*
D48*
%TO.N,/I2C1_SDA*%
X131359844Y-97537500D02*
X131359844Y-99360000D01*
X156464000Y-109728000D02*
X156464000Y-108557709D01*
X146304000Y-80772000D02*
X146304000Y-80527210D01*
X146956210Y-79875000D02*
X147472500Y-79875000D01*
X131359844Y-99360000D02*
X132599844Y-100600000D01*
X132599844Y-101310444D02*
X132611700Y-101322300D01*
X154901412Y-98336588D02*
X152034964Y-101203036D01*
X132599844Y-100600000D02*
X132599844Y-101310444D01*
X156464000Y-108557709D02*
X155803087Y-107896796D01*
X156905066Y-98336588D02*
X154901412Y-98336588D01*
X146304000Y-80527210D02*
X146956210Y-79875000D01*
%TO.N,/I2C1_SCL*%
X132842000Y-102342156D02*
X132599844Y-102100000D01*
X155448000Y-109731117D02*
X156057600Y-109121517D01*
X157656823Y-97028000D02*
X156210000Y-97028000D01*
X156210000Y-97028000D02*
X155243144Y-97028000D01*
X156057600Y-108858416D02*
X155449533Y-108250349D01*
X159406478Y-98777655D02*
X157656823Y-97028000D01*
X146581000Y-79225000D02*
X147472500Y-79225000D01*
X155243144Y-97028000D02*
X151941144Y-100330000D01*
X130859844Y-100360000D02*
X132599844Y-102100000D01*
X132842000Y-102870000D02*
X132842000Y-102342156D01*
X130859844Y-97537500D02*
X130859844Y-100360000D01*
X156057600Y-109121517D02*
X156057600Y-108858416D01*
X147449500Y-79248000D02*
X147472500Y-79225000D01*
X146050000Y-79756000D02*
X146581000Y-79225000D01*
D52*
%TO.N,Net-(R5-Pad1)*%
X132359844Y-97537500D02*
X132359844Y-98350000D01*
X132609844Y-98600000D02*
X132609844Y-99090000D01*
X132359844Y-98350000D02*
X132609844Y-98600000D01*
X132609844Y-99090000D02*
X132599844Y-99100000D01*
D48*
%TO.N,/LDC1614_INTB*%
X157134711Y-104885793D02*
X156510193Y-105510311D01*
X157927507Y-104885793D02*
X157134711Y-104885793D01*
%TO.N,/USB_D-*%
X140805000Y-78575000D02*
X141747500Y-78575000D01*
X139380000Y-77150000D02*
X140805000Y-78575000D01*
X139380000Y-76321500D02*
X139380000Y-77150000D01*
%TO.N,/USB_D+*%
X137480000Y-77536000D02*
X139169000Y-79225000D01*
X137480000Y-76321500D02*
X137480000Y-77536000D01*
X139169000Y-79225000D02*
X141747500Y-79225000D01*
%TO.N,/LDC1612_INTB*%
X133307087Y-98298000D02*
X133858000Y-98298000D01*
X146475000Y-76625000D02*
X147472500Y-76625000D01*
X132859844Y-97850757D02*
X133307087Y-98298000D01*
X132859844Y-97537500D02*
X132859844Y-97850757D01*
X146304000Y-76454000D02*
X146475000Y-76625000D01*
%TO.N,/40MHZ_CLK*%
X157073600Y-108458000D02*
X158242000Y-108458000D01*
X156158843Y-107543243D02*
X157073600Y-108458000D01*
X127420051Y-105497949D02*
X128016000Y-104902000D01*
X131859844Y-97537500D02*
X131859844Y-98700543D01*
X131859844Y-98700543D02*
X131919977Y-98760676D01*
X126499705Y-105497949D02*
X127420051Y-105497949D01*
X156156640Y-107543243D02*
X156158843Y-107543243D01*
D49*
%TO.N,/CC1*%
X149859844Y-73100000D02*
X150609844Y-72350000D01*
X144864870Y-73100000D02*
X149859844Y-73100000D01*
X143884844Y-71625000D02*
X143884844Y-72119974D01*
X143884844Y-72119974D02*
X144864870Y-73100000D01*
%TO.N,/CC2*%
X148359844Y-70100000D02*
X148359844Y-71600000D01*
X148869844Y-72110000D02*
X149609844Y-72110000D01*
X148359844Y-71600000D02*
X148869844Y-72110000D01*
%TD*%
M02*
