%TF.GenerationSoftware,KiCad,Pcbnew,(6.0.8)*%
%TF.CreationDate,2023-11-01T21:59:58-07:00*%
%TF.ProjectId,OS3M_Mouse,4f53334d-5f4d-46f7-9573-652e6b696361,rev?*%
%TF.SameCoordinates,Original*%
%TF.FileFunction,Soldermask,Top*%
%TF.FilePolarity,Negative*%
%FSLAX46Y46*%
G04 Gerber Fmt 4.6, Leading zero omitted, Abs format (unit mm)*
G04 Created by KiCad (PCBNEW (6.0.8)) date 2023-11-01 21:59:58*
%MOMM*%
%LPD*%
G01*
G04 APERTURE LIST*
G04 Aperture macros list*
%AMRoundRect*
0 Rectangle with rounded corners*
0 $1 Rounding radius*
0 $2 $3 $4 $5 $6 $7 $8 $9 X,Y pos of 4 corners*
0 Add a 4 corners polygon primitive as box body*
4,1,4,$2,$3,$4,$5,$6,$7,$8,$9,$2,$3,0*
0 Add four circle primitives for the rounded corners*
1,1,$1+$1,$2,$3*
1,1,$1+$1,$4,$5*
1,1,$1+$1,$6,$7*
1,1,$1+$1,$8,$9*
0 Add four rect primitives between the rounded corners*
20,1,$1+$1,$2,$3,$4,$5,0*
20,1,$1+$1,$4,$5,$6,$7,0*
20,1,$1+$1,$6,$7,$8,$9,0*
20,1,$1+$1,$8,$9,$2,$3,0*%
%AMHorizOval*
0 Thick line with rounded ends*
0 $1 width*
0 $2 $3 position (X,Y) of the first rounded end (center of the circle)*
0 $4 $5 position (X,Y) of the second rounded end (center of the circle)*
0 Add line between two ends*
20,1,$1,$2,$3,$4,$5,0*
0 Add two circle primitives to create the rounded ends*
1,1,$1,$2,$3*
1,1,$1,$4,$5*%
%AMRotRect*
0 Rectangle, with rotation*
0 The origin of the aperture is its center*
0 $1 length*
0 $2 width*
0 $3 Rotation angle, in degrees counterclockwise*
0 Add horizontal line*
21,1,$1,$2,0,0,$3*%
G04 Aperture macros list end*
%ADD10RotRect,1.700000X1.700000X170.000000*%
%ADD11HorizOval,1.700000X0.000000X0.000000X0.000000X0.000000X0*%
%ADD12RoundRect,0.140000X-0.140000X-0.170000X0.140000X-0.170000X0.140000X0.170000X-0.140000X0.170000X0*%
%ADD13RoundRect,0.140000X0.140000X0.170000X-0.140000X0.170000X-0.140000X-0.170000X0.140000X-0.170000X0*%
%ADD14RoundRect,0.218750X0.218750X0.256250X-0.218750X0.256250X-0.218750X-0.256250X0.218750X-0.256250X0*%
%ADD15RotRect,1.800000X2.000000X30.000000*%
%ADD16RoundRect,0.150000X-0.150000X0.512500X-0.150000X-0.512500X0.150000X-0.512500X0.150000X0.512500X0*%
%ADD17RoundRect,0.140000X-0.021213X0.219203X-0.219203X0.021213X0.021213X-0.219203X0.219203X-0.021213X0*%
%ADD18C,0.700000*%
%ADD19RoundRect,0.135000X0.135000X0.185000X-0.135000X0.185000X-0.135000X-0.185000X0.135000X-0.185000X0*%
%ADD20RoundRect,0.062500X0.062500X-0.375000X0.062500X0.375000X-0.062500X0.375000X-0.062500X-0.375000X0*%
%ADD21R,3.000000X2.600000*%
%ADD22RoundRect,0.100000X0.637500X0.100000X-0.637500X0.100000X-0.637500X-0.100000X0.637500X-0.100000X0*%
%ADD23RotRect,1.700000X1.700000X330.000000*%
%ADD24HorizOval,1.700000X0.000000X0.000000X0.000000X0.000000X0*%
%ADD25RoundRect,0.135000X0.185000X-0.135000X0.185000X0.135000X-0.185000X0.135000X-0.185000X-0.135000X0*%
%ADD26RoundRect,0.140000X-0.217224X0.036244X-0.077224X-0.206244X0.217224X-0.036244X0.077224X0.206244X0*%
%ADD27RoundRect,0.140000X-0.036244X-0.217224X0.206244X-0.077224X0.036244X0.217224X-0.206244X0.077224X0*%
%ADD28RoundRect,0.135000X-0.185000X0.135000X-0.185000X-0.135000X0.185000X-0.135000X0.185000X0.135000X0*%
%ADD29RoundRect,0.140000X0.170000X-0.140000X0.170000X0.140000X-0.170000X0.140000X-0.170000X-0.140000X0*%
%ADD30RoundRect,0.200000X0.200000X0.275000X-0.200000X0.275000X-0.200000X-0.275000X0.200000X-0.275000X0*%
%ADD31RoundRect,0.140000X-0.170000X0.140000X-0.170000X-0.140000X0.170000X-0.140000X0.170000X0.140000X0*%
%ADD32O,0.900000X1.700000*%
%ADD33O,0.900000X2.400000*%
%ADD34RoundRect,0.135000X-0.135000X-0.185000X0.135000X-0.185000X0.135000X0.185000X-0.135000X0.185000X0*%
%ADD35RoundRect,0.062500X0.309359X-0.220971X-0.220971X0.309359X-0.309359X0.220971X0.220971X-0.309359X0*%
%ADD36RoundRect,0.062500X0.309359X0.220971X0.220971X0.309359X-0.309359X-0.220971X-0.220971X-0.309359X0*%
%ADD37RotRect,2.600000X2.600000X135.000000*%
%ADD38RotRect,1.600000X1.400000X210.000000*%
G04 APERTURE END LIST*
D10*
%TO.C,J3*%
X156464000Y-100838000D03*
D11*
X158965412Y-101279066D03*
X156905066Y-98336588D03*
X159406478Y-98777655D03*
%TD*%
D12*
%TO.C,C15*%
X145824000Y-83058000D03*
X146784000Y-83058000D03*
%TD*%
D13*
%TO.C,C11*%
X144244000Y-83058000D03*
X143284000Y-83058000D03*
%TD*%
D14*
%TO.C,D1*%
X131851500Y-105918000D03*
X130276500Y-105918000D03*
%TD*%
D15*
%TO.C,X1*%
X124100295Y-111502051D03*
X128499705Y-108962051D03*
X126499705Y-105497949D03*
X122100295Y-108037949D03*
%TD*%
D13*
%TO.C,C2*%
X136624000Y-78994000D03*
X135664000Y-78994000D03*
%TD*%
%TO.C,C18*%
X134089844Y-91100000D03*
X133129844Y-91100000D03*
%TD*%
D16*
%TO.C,U5*%
X139380000Y-74046500D03*
X138430000Y-74046500D03*
X137480000Y-74046500D03*
X137480000Y-76321500D03*
X138430000Y-76321500D03*
X139380000Y-76321500D03*
%TD*%
D17*
%TO.C,C5*%
X154009411Y-101260589D03*
X153330589Y-101939411D03*
%TD*%
D18*
%TO.C,L1*%
X160809844Y-91070000D03*
X156534844Y-90570000D03*
%TD*%
D19*
%TO.C,R3*%
X133619844Y-100600000D03*
X132599844Y-100600000D03*
%TD*%
D13*
%TO.C,C17*%
X134089844Y-92100000D03*
X133129844Y-92100000D03*
%TD*%
D18*
%TO.C,L2*%
X156709844Y-86805000D03*
X157209844Y-82530000D03*
%TD*%
%TO.C,L3*%
X136359844Y-108925000D03*
X135859844Y-113200000D03*
%TD*%
D20*
%TO.C,U4*%
X130859844Y-97537500D03*
X131359844Y-97537500D03*
X131859844Y-97537500D03*
X132359844Y-97537500D03*
X132859844Y-97537500D03*
X133359844Y-97537500D03*
X133359844Y-93662500D03*
X132859844Y-93662500D03*
X132359844Y-93662500D03*
X131859844Y-93662500D03*
X131359844Y-93662500D03*
X130859844Y-93662500D03*
D21*
X132109844Y-95600000D03*
%TD*%
D16*
%TO.C,U1*%
X139380000Y-80650500D03*
X138430000Y-80650500D03*
X137480000Y-80650500D03*
X137480000Y-82925500D03*
X139380000Y-82925500D03*
%TD*%
D22*
%TO.C,U3*%
X147472500Y-80525000D03*
X147472500Y-79875000D03*
X147472500Y-79225000D03*
X147472500Y-78575000D03*
X147472500Y-77925000D03*
X147472500Y-77275000D03*
X147472500Y-76625000D03*
X147472500Y-75975000D03*
X147472500Y-75325000D03*
X147472500Y-74675000D03*
X141747500Y-74675000D03*
X141747500Y-75325000D03*
X141747500Y-75975000D03*
X141747500Y-76625000D03*
X141747500Y-77275000D03*
X141747500Y-77925000D03*
X141747500Y-78575000D03*
X141747500Y-79225000D03*
X141747500Y-79875000D03*
X141747500Y-80525000D03*
%TD*%
D18*
%TO.C,L5*%
X127509844Y-86805000D03*
X128009844Y-82530000D03*
%TD*%
D12*
%TO.C,C14*%
X145824000Y-84074000D03*
X146784000Y-84074000D03*
%TD*%
D18*
%TO.C,L4*%
X149359844Y-113200000D03*
X149859844Y-108925000D03*
%TD*%
D23*
%TO.C,J1*%
X167005000Y-102450739D03*
D24*
X165735000Y-104650444D03*
X164465000Y-106850148D03*
X163195000Y-109049853D03*
X161925000Y-111249557D03*
X160655000Y-113449262D03*
%TD*%
D12*
%TO.C,C3*%
X138712000Y-84582000D03*
X139672000Y-84582000D03*
%TD*%
D25*
%TO.C,R7*%
X150609844Y-72100000D03*
X150609844Y-71080000D03*
%TD*%
D13*
%TO.C,C1*%
X136624000Y-77978000D03*
X135664000Y-77978000D03*
%TD*%
D26*
%TO.C,C16*%
X127060000Y-99684308D03*
X127540000Y-100515692D03*
%TD*%
D25*
%TO.C,R6*%
X149609844Y-72110000D03*
X149609844Y-71090000D03*
%TD*%
D17*
%TO.C,C6*%
X154771411Y-102022589D03*
X154092589Y-102701411D03*
%TD*%
D19*
%TO.C,R4*%
X133619844Y-102100000D03*
X132599844Y-102100000D03*
%TD*%
D27*
%TO.C,C22*%
X118964308Y-108444000D03*
X119795692Y-107964000D03*
%TD*%
D28*
%TO.C,R8*%
X134109844Y-71590000D03*
X134109844Y-72610000D03*
%TD*%
D13*
%TO.C,C12*%
X144244000Y-84074000D03*
X143284000Y-84074000D03*
%TD*%
D12*
%TO.C,C13*%
X145824000Y-85090000D03*
X146784000Y-85090000D03*
%TD*%
D29*
%TO.C,C8*%
X155609844Y-88580000D03*
X155609844Y-87620000D03*
%TD*%
D30*
%TO.C,R1*%
X131889000Y-104394000D03*
X130239000Y-104394000D03*
%TD*%
D31*
%TO.C,C20*%
X130109844Y-90620000D03*
X130109844Y-91580000D03*
%TD*%
D29*
%TO.C,C21*%
X135890000Y-76426000D03*
X135890000Y-75466000D03*
%TD*%
D18*
%TO.C,J2*%
X145584844Y-71625000D03*
X144734844Y-71625000D03*
X143884844Y-71625000D03*
X143034844Y-71625000D03*
X142184844Y-71625000D03*
X141334844Y-71625000D03*
X140484844Y-71625000D03*
X139634844Y-71625000D03*
X139634844Y-70275000D03*
X140484844Y-70275000D03*
X141334844Y-70275000D03*
X142184844Y-70275000D03*
X143034844Y-70275000D03*
X143884844Y-70275000D03*
X144734844Y-70275000D03*
X145584844Y-70275000D03*
D32*
X138284844Y-67265000D03*
D33*
X146934844Y-70645000D03*
X138284844Y-70645000D03*
D32*
X146934844Y-67265000D03*
%TD*%
D34*
%TO.C,R5*%
X132599844Y-99100000D03*
X133619844Y-99100000D03*
%TD*%
D18*
%TO.C,L6*%
X128684844Y-91570000D03*
X124409844Y-91070000D03*
%TD*%
D12*
%TO.C,C10*%
X148879844Y-107850000D03*
X149839844Y-107850000D03*
%TD*%
D35*
%TO.C,U2*%
X155449533Y-108250349D03*
X155803087Y-107896796D03*
X156156640Y-107543243D03*
X156510193Y-107189689D03*
D36*
X156510193Y-105510311D03*
X156156640Y-105156757D03*
X155803087Y-104803204D03*
X155449533Y-104449651D03*
D35*
X153770155Y-104449651D03*
X153416601Y-104803204D03*
X153063048Y-105156757D03*
X152709495Y-105510311D03*
D36*
X152709495Y-107189689D03*
X153063048Y-107543243D03*
X153416601Y-107896796D03*
X153770155Y-108250349D03*
D37*
X154609844Y-106350000D03*
%TD*%
D29*
%TO.C,C7*%
X155109844Y-91580000D03*
X155109844Y-90620000D03*
%TD*%
D12*
%TO.C,C4*%
X138712000Y-85598000D03*
X139672000Y-85598000D03*
%TD*%
D31*
%TO.C,C19*%
X129109844Y-87720000D03*
X129109844Y-88680000D03*
%TD*%
D19*
%TO.C,R2*%
X160022000Y-105350000D03*
X159002000Y-105350000D03*
%TD*%
D38*
%TO.C,SW1*%
X120232309Y-105799038D03*
X126467691Y-102199038D03*
X118732309Y-103200962D03*
X124967691Y-99600962D03*
%TD*%
D12*
%TO.C,C9*%
X135379844Y-107850000D03*
X136339844Y-107850000D03*
%TD*%
M02*
